<svg width="522" height="232" viewBox="0 0 522 232" fill="none" xmlns="http://www.w3.org/2000/svg">
<path d="M0 8C0 3.58172 3.58172 0 8 0H467C471.418 0 475 3.58172 475 8V76H0V8Z" fill="white"/>
<path d="M39.5312 33.0625C39.8125 33.3438 40 33.75 40 34.125V44.5312C40 45.3438 39.3125 46 38.5 46H30C29.9062 46 29.8438 46 29.75 45.9688L28 45.0625L26.2188 45.9688C26.0625 46.0312 25.875 46.0312 25.7188 45.9375C25.5625 45.8438 25.5 45.6875 25.5 45.5V42.25C25.4375 42.25 25.4062 42.25 25.3438 42.2188C25.125 42.1562 24.9688 42 24.9062 41.7812C24.7188 41.0312 24.7188 41.0312 24.1562 40.4688C24 40.3125 23.9375 40.0625 24 39.8438C24.2188 39.0938 24.2188 39.0938 24 38.3438C23.9375 38.125 24 37.875 24.1562 37.7188C24.7188 37.1562 24.7188 37.1875 24.9062 36.4062C24.9688 36.1875 25.125 36.0312 25.3438 35.9688C26.125 35.75 26.0938 35.7812 26.6562 35.1875C26.75 35.0938 26.9062 35.0312 27.0625 35.0312C27.125 35.0312 27.1875 35.0312 27.2188 35.0312C27.625 35.1562 27.8125 35.1875 28 35.1875V31.5312C28 30.6875 28.6562 30.0312 29.5 30H35.875C36.25 30 36.6562 30.1875 36.9375 30.4688L39.5312 33.0625ZM36 31.0312V34.0312H38.9688C38.9375 33.9375 38.9062 33.8438 38.8438 33.7812L36.2188 31.1562C36.1562 31.0938 36.0625 31.0625 36 31.0312ZM25.0312 39.9062C25.5312 40.4375 25.625 40.625 25.8125 41.3125C26.2812 41.4375 26.5625 41.5625 27 41.9375C27.3125 41.7812 27.625 41.7188 28 41.7188C28.3438 41.7188 28.6562 41.7812 28.9688 41.9062C29.4062 41.5312 29.6875 41.4375 30.1562 41.3125C30.3438 40.625 30.4688 40.4062 30.9375 39.9062C30.75 39.2188 30.75 38.9688 30.9375 38.2812C30.4375 37.75 30.3438 37.5625 30.1562 36.875C29.4688 36.6875 29.25 36.5625 28.7812 36.0625C28.4688 36.1562 28.25 36.1875 28 36.1875C27.7188 36.1875 27.5 36.1562 27.1875 36.0625C26.6875 36.5625 26.5 36.6875 25.8125 36.875C25.625 37.5625 25.5 37.7812 25.0312 38.2812C25.1875 38.9688 25.1875 39.2188 25.0312 39.9062ZM28.2188 44.0625L29.5 44.7188V42.8125C29.4688 42.8438 29.4688 42.8438 29.4688 42.8438C29.3438 42.9688 29.2188 43 29.0625 43C28.9375 43 28.8438 43 28.7188 42.9062C28.5 42.7812 28.25 42.7188 28 42.7188C27.7188 42.7188 27.4688 42.7812 27.25 42.9375C27.125 42.9688 27.0312 43 26.9062 43C26.7812 43 26.625 42.9688 26.5 42.8438C26.5 42.8438 26.5 42.8438 26.5 42.8125V44.7188L27.75 44.0625C27.9062 44 28.0625 44 28.2188 44.0625ZM39 44.5312V35H35.75C35.3125 35 35 34.6875 35 34.2812V31H29.5C29.2188 31 29 31.25 29 31.5312V35.0312C29.0938 35.0625 29.2188 35.0938 29.3125 35.1875C29.875 35.7812 29.875 35.75 30.625 35.9688C30.8438 36.0312 31 36.1875 31.0625 36.4062C31.25 37.1562 31.25 37.1562 31.8125 37.7188C31.9688 37.875 32.0312 38.125 31.9688 38.3438C31.75 39.0938 31.75 39.0938 31.9688 39.8438C32.0312 40.0625 31.9688 40.3125 31.8125 40.4688C31.25 41.0312 31.25 41 31.0625 41.7812C31 42 30.8438 42.1562 30.625 42.2188C30.5625 42.25 30.5312 42.25 30.5 42.25V45.0312H38.5C38.75 45.0312 39 44.7812 39 44.5312Z" fill="#166CFF"/>
<path d="M55.84 43H49.056V32.328H51.328V41H55.84V43ZM64.215 43H57.431V32.328H59.703V41H64.215V43ZM70.5365 43.192C67.3365 43.192 64.8565 40.952 64.8565 37.672C64.8565 34.392 67.3365 32.152 70.5365 32.152C72.8885 32.152 74.2485 33.432 75.0005 34.76L73.0485 35.72C72.6005 34.856 71.6405 34.168 70.5365 34.168C68.6005 34.168 67.1925 35.656 67.1925 37.672C67.1925 39.688 68.6005 41.176 70.5365 41.176C71.6405 41.176 72.6005 40.504 73.0485 39.624L75.0005 40.568C74.2325 41.896 72.8885 43.192 70.5365 43.192Z" fill="black"/>
<circle cx="238" cy="38" r="4" fill="#10B981"/>
<rect x="250" y="33" width="134" height="10" rx="5" fill="#D1D5DB"/>
<path d="M0 78H475V154H0V78Z" fill="white"/>
<path d="M39.5312 111.062C39.8125 111.344 40 111.75 40 112.125V122.531C40 123.344 39.3125 124 38.5 124H30C29.9062 124 29.8438 124 29.75 123.969L28 123.062L26.2188 123.969C26.0625 124.031 25.875 124.031 25.7188 123.938C25.5625 123.844 25.5 123.688 25.5 123.5V120.25C25.4375 120.25 25.4062 120.25 25.3438 120.219C25.125 120.156 24.9688 120 24.9062 119.781C24.7188 119.031 24.7188 119.031 24.1562 118.469C24 118.312 23.9375 118.062 24 117.844C24.2188 117.094 24.2188 117.094 24 116.344C23.9375 116.125 24 115.875 24.1562 115.719C24.7188 115.156 24.7188 115.188 24.9062 114.406C24.9688 114.188 25.125 114.031 25.3438 113.969C26.125 113.75 26.0938 113.781 26.6562 113.188C26.75 113.094 26.9062 113.031 27.0625 113.031C27.125 113.031 27.1875 113.031 27.2188 113.031C27.625 113.156 27.8125 113.188 28 113.188V109.531C28 108.688 28.6562 108.031 29.5 108H35.875C36.25 108 36.6562 108.188 36.9375 108.469L39.5312 111.062ZM36 109.031V112.031H38.9688C38.9375 111.938 38.9062 111.844 38.8438 111.781L36.2188 109.156C36.1562 109.094 36.0625 109.062 36 109.031ZM25.0312 117.906C25.5312 118.438 25.625 118.625 25.8125 119.312C26.2812 119.438 26.5625 119.562 27 119.938C27.3125 119.781 27.625 119.719 28 119.719C28.3438 119.719 28.6562 119.781 28.9688 119.906C29.4062 119.531 29.6875 119.438 30.1562 119.312C30.3438 118.625 30.4688 118.406 30.9375 117.906C30.75 117.219 30.75 116.969 30.9375 116.281C30.4375 115.75 30.3438 115.562 30.1562 114.875C29.4688 114.688 29.25 114.562 28.7812 114.062C28.4688 114.156 28.25 114.188 28 114.188C27.7188 114.188 27.5 114.156 27.1875 114.062C26.6875 114.562 26.5 114.688 25.8125 114.875C25.625 115.562 25.5 115.781 25.0312 116.281C25.1875 116.969 25.1875 117.219 25.0312 117.906ZM28.2188 122.062L29.5 122.719V120.812C29.4688 120.844 29.4688 120.844 29.4688 120.844C29.3438 120.969 29.2188 121 29.0625 121C28.9375 121 28.8438 121 28.7188 120.906C28.5 120.781 28.25 120.719 28 120.719C27.7188 120.719 27.4688 120.781 27.25 120.938C27.125 120.969 27.0312 121 26.9062 121C26.7812 121 26.625 120.969 26.5 120.844C26.5 120.844 26.5 120.844 26.5 120.812V122.719L27.75 122.062C27.9062 122 28.0625 122 28.2188 122.062ZM39 122.531V113H35.75C35.3125 113 35 112.688 35 112.281V109H29.5C29.2188 109 29 109.25 29 109.531V113.031C29.0938 113.062 29.2188 113.094 29.3125 113.188C29.875 113.781 29.875 113.75 30.625 113.969C30.8438 114.031 31 114.188 31.0625 114.406C31.25 115.156 31.25 115.156 31.8125 115.719C31.9688 115.875 32.0312 116.125 31.9688 116.344C31.75 117.094 31.75 117.094 31.9688 117.844C32.0312 118.062 31.9688 118.312 31.8125 118.469C31.25 119.031 31.25 119 31.0625 119.781C31 120 30.8438 120.156 30.625 120.219C30.5625 120.25 30.5312 120.25 30.5 120.25V123.031H38.5C38.75 123.031 39 122.781 39 122.531Z" fill="#166CFF"/>
<path d="M56.608 121H49.056V110.328H56.608V112.328H51.328V114.584H56.496V116.584H51.328V119H56.608V121ZM60.6561 121H58.3841V110.328H60.6561V121ZM72.3268 121H70.1348L65.0468 114.04V121H62.7747V110.328H65.1108L70.0548 117.032V110.328H72.3268V121Z" fill="black"/>
<circle cx="238" cy="116" r="4" fill="#10B981"/>
<rect x="250" y="111" width="134" height="10" rx="5" fill="#D1D5DB"/>
<path d="M0 156H475V224C475 228.418 471.418 232 467 232H8.00001C3.58173 232 0 228.418 0 224V156Z" fill="white"/>
<path d="M39.5312 189.062C39.8125 189.344 40 189.75 40 190.125V200.531C40 201.344 39.3125 202 38.5 202H30C29.9062 202 29.8438 202 29.75 201.969L28 201.062L26.2188 201.969C26.0625 202.031 25.875 202.031 25.7188 201.938C25.5625 201.844 25.5 201.688 25.5 201.5V198.25C25.4375 198.25 25.4062 198.25 25.3438 198.219C25.125 198.156 24.9688 198 24.9062 197.781C24.7188 197.031 24.7188 197.031 24.1562 196.469C24 196.312 23.9375 196.062 24 195.844C24.2188 195.094 24.2188 195.094 24 194.344C23.9375 194.125 24 193.875 24.1562 193.719C24.7188 193.156 24.7188 193.188 24.9062 192.406C24.9688 192.188 25.125 192.031 25.3438 191.969C26.125 191.75 26.0938 191.781 26.6562 191.188C26.75 191.094 26.9062 191.031 27.0625 191.031C27.125 191.031 27.1875 191.031 27.2188 191.031C27.625 191.156 27.8125 191.188 28 191.188V187.531C28 186.688 28.6562 186.031 29.5 186H35.875C36.25 186 36.6562 186.188 36.9375 186.469L39.5312 189.062ZM36 187.031V190.031H38.9688C38.9375 189.938 38.9062 189.844 38.8438 189.781L36.2188 187.156C36.1562 187.094 36.0625 187.062 36 187.031ZM25.0312 195.906C25.5312 196.438 25.625 196.625 25.8125 197.312C26.2812 197.438 26.5625 197.562 27 197.938C27.3125 197.781 27.625 197.719 28 197.719C28.3438 197.719 28.6562 197.781 28.9688 197.906C29.4062 197.531 29.6875 197.438 30.1562 197.312C30.3438 196.625 30.4688 196.406 30.9375 195.906C30.75 195.219 30.75 194.969 30.9375 194.281C30.4375 193.75 30.3438 193.562 30.1562 192.875C29.4688 192.688 29.25 192.562 28.7812 192.062C28.4688 192.156 28.25 192.188 28 192.188C27.7188 192.188 27.5 192.156 27.1875 192.062C26.6875 192.562 26.5 192.688 25.8125 192.875C25.625 193.562 25.5 193.781 25.0312 194.281C25.1875 194.969 25.1875 195.219 25.0312 195.906ZM28.2188 200.062L29.5 200.719V198.812C29.4688 198.844 29.4688 198.844 29.4688 198.844C29.3438 198.969 29.2188 199 29.0625 199C28.9375 199 28.8438 199 28.7188 198.906C28.5 198.781 28.25 198.719 28 198.719C27.7188 198.719 27.4688 198.781 27.25 198.938C27.125 198.969 27.0312 199 26.9062 199C26.7812 199 26.625 198.969 26.5 198.844C26.5 198.844 26.5 198.844 26.5 198.812V200.719L27.75 200.062C27.9062 200 28.0625 200 28.2188 200.062ZM39 200.531V191H35.75C35.3125 191 35 190.688 35 190.281V187H29.5C29.2188 187 29 187.25 29 187.531V191.031C29.0938 191.062 29.2188 191.094 29.3125 191.188C29.875 191.781 29.875 191.75 30.625 191.969C30.8438 192.031 31 192.188 31.0625 192.406C31.25 193.156 31.25 193.156 31.8125 193.719C31.9688 193.875 32.0312 194.125 31.9688 194.344C31.75 195.094 31.75 195.094 31.9688 195.844C32.0312 196.062 31.9688 196.312 31.8125 196.469C31.25 197.031 31.25 197 31.0625 197.781C31 198 30.8438 198.156 30.625 198.219C30.5625 198.25 30.5312 198.25 30.5 198.25V201.031H38.5C38.75 201.031 39 200.781 39 200.531Z" fill="#166CFF"/>
<path d="M52.848 199.192C50.8 199.192 49.328 198.504 48.336 197.496L49.568 195.768C50.32 196.552 51.488 197.208 52.96 197.208C54.208 197.208 54.816 196.632 54.816 196.024C54.816 194.136 48.672 195.432 48.672 191.416C48.672 189.64 50.208 188.168 52.72 188.168C54.416 188.168 55.824 188.68 56.88 189.656L55.616 191.32C54.752 190.52 53.6 190.152 52.512 190.152C51.536 190.152 50.992 190.584 50.992 191.224C50.992 192.92 57.12 191.784 57.12 195.768C57.12 197.72 55.728 199.192 52.848 199.192ZM65.2738 199H63.2418V198.2C62.7138 198.824 61.8018 199.192 60.7938 199.192C59.5618 199.192 58.1058 198.36 58.1058 196.632C58.1058 194.824 59.5618 194.136 60.7938 194.136C61.8177 194.136 62.7298 194.472 63.2418 195.08V194.04C63.2418 193.256 62.5698 192.744 61.5458 192.744C60.7138 192.744 59.9457 193.048 59.2898 193.656L58.5218 192.296C59.4658 191.464 60.6818 191.08 61.8978 191.08C63.6578 191.08 65.2738 191.784 65.2738 194.008V199ZM61.6098 197.816C62.2658 197.816 62.9058 197.592 63.2418 197.144V196.184C62.9058 195.736 62.2658 195.512 61.6098 195.512C60.8098 195.512 60.1538 195.928 60.1538 196.68C60.1538 197.4 60.8098 197.816 61.6098 197.816ZM69.3213 199H67.2893V188.328H69.3213V199ZM74.9681 199.192C72.6161 199.192 70.8401 197.608 70.8401 195.128C70.8401 192.888 72.4881 191.08 74.8401 191.08C77.1441 191.08 78.7121 192.808 78.7121 195.336V195.784H72.9681C73.0961 196.76 73.8801 197.576 75.1921 197.576C75.8481 197.576 76.7601 197.288 77.2561 196.808L78.1521 198.12C77.3841 198.824 76.1681 199.192 74.9681 199.192ZM76.7441 194.408C76.6961 193.672 76.1841 192.696 74.8401 192.696C73.5761 192.696 73.0321 193.64 72.9361 194.408H76.7441ZM82.9639 199.192C81.6199 199.192 80.3239 198.744 79.5079 197.992L80.3879 196.568C80.9479 197.096 82.0999 197.624 83.0599 197.624C83.9399 197.624 84.3559 197.272 84.3559 196.792C84.3559 195.512 79.7639 196.552 79.7639 193.512C79.7639 192.216 80.8999 191.08 82.9319 191.08C84.2439 191.08 85.2839 191.528 86.0519 192.136L85.2359 193.528C84.7719 193.032 83.8919 192.632 82.9479 192.632C82.2119 192.632 81.7319 192.968 81.7319 193.4C81.7319 194.552 86.3079 193.592 86.3079 196.712C86.3079 198.12 85.1079 199.192 82.9639 199.192ZM94.4906 199.192C93.0666 199.192 92.2986 198.456 92.2986 197.08V193.048H91.0186V191.272H92.2986V189.16H94.3466V191.272H95.9146V193.048H94.3466V196.536C94.3466 197.016 94.6026 197.384 95.0506 197.384C95.3546 197.384 95.6426 197.272 95.7546 197.16L96.1866 198.696C95.8826 198.968 95.3386 199.192 94.4906 199.192ZM103.977 199H101.945V198.2C101.417 198.824 100.505 199.192 99.4969 199.192C98.2649 199.192 96.8089 198.36 96.8089 196.632C96.8089 194.824 98.2649 194.136 99.4969 194.136C100.521 194.136 101.433 194.472 101.945 195.08V194.04C101.945 193.256 101.273 192.744 100.249 192.744C99.4169 192.744 98.6489 193.048 97.9929 193.656L97.2249 192.296C98.1689 191.464 99.3849 191.08 100.601 191.08C102.361 191.08 103.977 191.784 103.977 194.008V199ZM100.313 197.816C100.969 197.816 101.609 197.592 101.945 197.144V196.184C101.609 195.736 100.969 195.512 100.313 195.512C99.5129 195.512 98.8569 195.928 98.8569 196.68C98.8569 197.4 99.5129 197.816 100.313 197.816ZM113.048 199H110.776L109.016 196.392L107.24 199H104.984L107.72 195.032L105.144 191.272H107.416L109.016 193.656L110.6 191.272H112.872L110.28 195.032L113.048 199ZM122.565 199.192C121.653 199.192 120.805 198.808 120.181 198.008V201.944H118.149V191.272H120.181V192.248C120.773 191.496 121.621 191.08 122.565 191.08C124.549 191.08 125.989 192.552 125.989 195.128C125.989 197.704 124.549 199.192 122.565 199.192ZM121.925 197.384C123.093 197.384 123.877 196.472 123.877 195.128C123.877 193.8 123.093 192.888 121.925 192.888C121.269 192.888 120.517 193.272 120.181 193.768V196.504C120.517 196.984 121.269 197.384 121.925 197.384ZM131.109 199.192C128.757 199.192 126.981 197.608 126.981 195.128C126.981 192.888 128.629 191.08 130.981 191.08C133.285 191.08 134.853 192.808 134.853 195.336V195.784H129.109C129.237 196.76 130.021 197.576 131.333 197.576C131.989 197.576 132.901 197.288 133.397 196.808L134.293 198.12C133.525 198.824 132.309 199.192 131.109 199.192ZM132.885 194.408C132.837 193.672 132.325 192.696 130.981 192.696C129.717 192.696 129.173 193.64 129.077 194.408H132.885ZM138.353 199H136.321V191.272H138.353V192.328C138.897 191.64 139.857 191.08 140.817 191.08V193.064C140.673 193.032 140.481 193.016 140.257 193.016C139.585 193.016 138.689 193.4 138.353 193.896V199ZM153.718 199H151.67V194.12C151.67 193.4 151.35 192.888 150.518 192.888C149.798 192.888 149.206 193.368 148.918 193.784V199H146.87V194.12C146.87 193.4 146.55 192.888 145.718 192.888C145.014 192.888 144.422 193.368 144.118 193.8V199H142.086V191.272H144.118V192.28C144.438 191.816 145.462 191.08 146.646 191.08C147.782 191.08 148.502 191.608 148.79 192.488C149.238 191.784 150.262 191.08 151.446 191.08C152.87 191.08 153.718 191.832 153.718 193.416V199ZM156.719 190.44C156.063 190.44 155.503 189.896 155.503 189.224C155.503 188.552 156.063 188.024 156.719 188.024C157.391 188.024 157.935 188.552 157.935 189.224C157.935 189.896 157.391 190.44 156.719 190.44ZM157.743 199H155.711V191.272H157.743V199ZM162.35 199.192C160.926 199.192 160.158 198.456 160.158 197.08V193.048H158.878V191.272H160.158V189.16H162.206V191.272H163.774V193.048H162.206V196.536C162.206 197.016 162.462 197.384 162.91 197.384C163.214 197.384 163.502 197.272 163.614 197.16L164.046 198.696C163.742 198.968 163.198 199.192 162.35 199.192ZM167.948 199.192C166.604 199.192 165.308 198.744 164.492 197.992L165.372 196.568C165.932 197.096 167.084 197.624 168.044 197.624C168.924 197.624 169.34 197.272 169.34 196.792C169.34 195.512 164.748 196.552 164.748 193.512C164.748 192.216 165.884 191.08 167.916 191.08C169.228 191.08 170.268 191.528 171.036 192.136L170.22 193.528C169.756 193.032 168.876 192.632 167.932 192.632C167.196 192.632 166.716 192.968 166.716 193.4C166.716 194.552 171.292 193.592 171.292 196.712C171.292 198.12 170.092 199.192 167.948 199.192Z" fill="black"/>
<circle cx="238" cy="194" r="4" fill="#10B981"/>
<rect x="250" y="189" width="134" height="10" rx="5" fill="#D1D5DB"/>
<path d="M0 8C0 3.58173 3.58172 0 8 0H475V232H8.00001C3.58173 232 0 228.418 0 224V8Z" fill="url(#paint0_linear_4740_20615)"/>
<defs>
<linearGradient id="paint0_linear_4740_20615" x1="237.5" y1="0" x2="237.5" y2="232" gradientUnits="userSpaceOnUse">
<stop stop-color="white" stop-opacity="0.71"/>
<stop offset="0.697917" stop-color="white" stop-opacity="0.95"/>
</linearGradient>
</defs>
</svg>
