<svg width="300" height="300" viewBox="0 0 300 300" fill="none" xmlns="http://www.w3.org/2000/svg">
<g clip-path="url(#clip0_4371_214410)">
<path d="M178.587 51.5024C178.086 58.9858 177.874 66.482 177.951 73.9911C178.012 74.7549 178.358 75.4678 178.92 75.9876C179.483 76.5075 180.22 76.7962 180.986 76.7962C181.751 76.7962 182.489 76.5075 183.051 75.9876C183.614 75.4678 183.96 74.7549 184.021 73.9911C183.944 66.4948 184.156 58.9987 184.657 51.5024C184.926 47.645 178.876 47.645 178.587 51.5024Z" fill="#FC6078"/>
<path d="M211.074 20.0452C204.522 37.1078 198.421 54.344 192.768 71.7538C191.554 75.4762 197.412 77.077 198.549 73.3739C204.214 55.977 210.322 38.7343 216.874 21.646C218.261 18.0008 212.404 16.4192 211.093 20.0452H211.074Z" fill="#FC6078"/>
<path d="M295.917 126.972C254.646 147.679 214.643 170.826 176.12 196.29L174.964 194.959C161.437 170.388 148.186 145.662 135.212 120.781L134.826 121.263C176.004 98.119 217.452 74.9745 262.003 59.2363C274.027 82.5929 283.912 103.597 295.917 126.972Z" fill="#166CFF"/>
<path d="M1.79492 227.495L34.6849 180.209L91.4949 221.509L59.2029 279.569C19.0173 269.513 4.18692 240.663 1.79492 227.495Z" fill="#FC6078"/>
<path d="M182.088 165.155C191.327 150.938 203.379 130.074 202.143 112.496C200.908 94.9181 186.598 103.855 184.119 115.815C181.834 127.092 181.077 153.829 197.684 154.935C212.796 155.973 215.465 132.961 216.215 122.493L209.211 122.187C209.914 129.873 213.01 140.526 222.993 138.178C232.976 135.83 235.868 120.405 235.758 111.6L228.833 112.208C230.115 119.941 235.039 135.975 245.968 130.409C255.872 125.333 257.349 111.661 258.123 101.861L251.198 102.469C252.159 108.257 254.407 115.581 261.522 115.955C266.684 116.202 269.23 112.441 269.75 107.936C270.27 103.432 263.267 103.175 262.746 107.629C261.258 107.336 259.94 106.48 259.066 105.239C258.192 103.998 257.829 102.468 258.054 100.966C257.379 96.9157 251.335 97.7636 251.119 101.554C251.06 106.62 250.19 111.644 248.543 116.435C242.853 129.51 237.062 118.516 235.657 110.646C235.418 109.866 234.914 109.194 234.234 108.744C233.554 108.295 232.738 108.096 231.928 108.182C231.117 108.268 230.361 108.633 229.79 109.215C229.218 109.797 228.867 110.559 228.795 111.372C228.942 115.186 228.469 118.998 227.396 122.66C225.273 129.421 216.894 131.376 216.335 122.531C216.305 121.645 215.943 120.803 215.32 120.172C214.697 119.542 213.86 119.171 212.975 119.132C212.09 119.093 211.223 119.39 210.548 119.963C209.872 120.537 209.438 121.344 209.331 122.224C209.162 127.156 208.443 132.054 207.187 136.826C205.271 143.025 199.705 154.951 191.66 140.539C189.196 136.149 188.594 111.942 194.101 111.125C197.91 110.525 190.85 132.506 189.427 136.253C185.905 145.073 181.477 153.503 176.214 161.406C173.768 165.215 179.691 168.913 182.167 165.114L182.088 165.155Z" fill="white"/>
<path d="M294.395 124.349C253.159 145.12 213.16 168.264 174.598 193.666L178.279 194.129C174.271 189.578 171.708 182.711 168.798 177.369C165.304 170.94 161.829 164.511 158.374 158.082C151.462 145.224 144.615 132.289 137.833 119.276C137.597 118.878 137.274 118.538 136.888 118.283C136.501 118.029 136.062 117.865 135.603 117.806C135.145 117.746 134.678 117.792 134.24 117.94C133.801 118.088 133.402 118.334 133.073 118.659L132.669 119.141C132.165 119.672 131.868 120.366 131.834 121.097C131.799 121.828 132.028 122.547 132.479 123.122C132.931 123.698 133.574 124.092 134.291 124.232C135.009 124.373 135.753 124.25 136.387 123.886C177.335 100.915 218.493 77.9829 262.851 62.1675L259.421 60.7595C270.983 83.2289 281.831 106.026 293.335 128.496C295.127 131.967 300.368 128.901 298.576 125.429C287.015 102.96 276.185 80.1816 264.662 57.6929C264.318 57.1212 263.797 56.6767 263.179 56.4264C262.56 56.176 261.877 56.1331 261.233 56.3042C216.393 72.3125 174.733 95.3991 133.324 118.64L137.004 123.423L137.409 122.941L132.63 122.324C139.978 136.365 147.403 150.374 154.905 164.35C160.686 175.209 165.869 189.153 174.02 198.43C174.497 198.903 175.114 199.206 175.779 199.293C176.444 199.38 177.119 199.246 177.701 198.913C216.262 173.511 256.261 150.366 297.497 129.595C300.985 127.821 297.921 122.594 294.433 124.349H294.395Z" fill="#166CFF"/>
<path d="M116.136 119.778C116.965 115.246 120.51 111.774 123.959 108.707C129.199 103.69 135.186 99.5189 141.706 96.3444C146.727 93.925 152.309 93.0504 157.759 93.7666C159.494 93.9947 161.216 94.3842 162.903 94.9364C169.685 97.463 175.138 104.078 175.004 111.311C175.072 112.506 174.839 113.699 174.327 114.78C173.816 115.862 173.041 116.798 172.075 117.502C170.247 118.275 168.218 118.43 166.294 117.946C159.596 116.73 152.789 116.213 145.984 116.403C143.327 116.458 140.707 117.041 138.276 118.119C134.233 120.438 131.166 124.145 129.644 128.554C126.638 135.863 126.06 144.504 129.644 151.544C130.707 153.834 132.415 155.765 134.558 157.099C141.09 160.802 150.243 157.311 155.754 163.27C157.021 164.691 157.877 166.43 158.23 168.301C158.584 170.172 158.42 172.104 157.759 173.89C157.097 175.675 155.961 177.246 154.474 178.433C152.986 179.621 151.204 180.38 149.318 180.629C145.502 180.955 141.66 180.468 138.045 179.201C132.524 177.575 127.164 175.445 122.033 172.837C121.726 172.627 121.379 172.484 121.014 172.418C120.649 172.351 120.274 172.362 119.913 172.451C119.473 172.692 119.116 173.062 118.892 173.512L108.178 190.041" fill="white"/>
<path d="M116.136 119.778C116.965 115.246 120.51 111.774 123.959 108.707C129.199 103.69 135.186 99.5189 141.706 96.3444C146.727 93.925 152.309 93.0504 157.759 93.7666C159.236 91.4558 160.902 86.1158 155.754 83.2427C150.605 80.3697 140.669 82.0456 136.345 83.2427L126.777 80.25L110.631 86.2355C105.847 85.7295 95.0828 85.7392 90.2988 89.8269C85.5148 93.9145 67.1761 132.675 58.6048 151.544L49.6348 144.894L108.178 190.041L116.136 119.778Z" fill="white"/>
<path d="M115.163 202.377C93.1304 183.872 70.9369 165.572 48.5823 147.479C42.668 155.481 37.0084 163.645 31.6035 171.969L99.1471 224.564C101.098 222.395 102.798 219.9 104.461 217.461L104.462 217.459C105.143 216.46 105.818 215.469 106.501 214.515L115.163 202.377Z" fill="#FC6078"/>
<path fill-rule="evenodd" clip-rule="evenodd" d="M44.8817 164.392C45.0901 163.723 45.4992 163.101 46.1119 162.653C47.8007 161.438 49.8599 160.85 51.935 160.991C54.01 161.132 55.9711 161.993 57.4806 163.425C60.7178 166.703 59.4846 171.429 55.8235 173.743C54.1255 174.921 52.0484 175.42 50.0012 175.142C47.9541 174.863 46.0853 173.828 44.763 172.239C44.1513 171.428 43.7417 170.483 43.5683 169.482C43.3949 168.481 43.4628 167.453 43.7662 166.483C44.0049 165.721 44.3838 165.011 44.8817 164.392Z" fill="white"/>
<path fill-rule="evenodd" clip-rule="evenodd" d="M44.4365 142.943C44.5163 140.833 47.506 138.845 49.7716 140.665C73.8452 160.094 97.7134 179.773 121.376 199.703C122.749 200.857 122.594 202.378 121.738 203.45C121.649 203.659 121.53 203.87 121.376 204.081L110.431 219.241C109.753 220.185 109.088 221.163 108.418 222.149C106.252 225.336 104.028 228.609 101.086 231.083L101.144 231.122C99.2451 232.736 96.7793 231.544 96.0615 229.81L91.8935 226.565C80.9812 244.154 70.8009 262.157 61.3525 280.574V280.67C59.5605 284.161 54.3193 281.075 56.1114 277.603C65.6696 258.885 75.9911 240.622 87.0761 222.815L34.9293 182.224C24.7369 197.072 14.9948 212.246 5.70312 227.747L5.68383 227.785C3.66057 231.141 -1.5806 228.074 0.442669 224.719C9.85974 208.963 19.759 193.556 30.1405 178.496L26.1054 175.355C24.6609 174.648 23.7277 172.977 24.8569 171.235C31.0796 161.602 37.6061 152.171 44.4365 142.943ZM48.5818 147.479C70.9363 165.573 93.1298 183.872 115.162 202.377L106.5 214.515C105.817 215.47 105.142 216.46 104.461 217.46L104.46 217.461C102.798 219.901 101.097 222.396 99.1465 224.565L31.6029 171.97C37.0079 163.645 42.6674 155.482 48.5818 147.479Z" fill="#374151"/>
<path d="M61.2377 151.467C65.2634 140.025 70.1593 128.909 75.8822 118.216C81.2583 108.283 86.9235 96.6336 97.6179 91.6768C101.163 90.0374 98.0803 84.8106 94.5541 86.4307C83.744 91.4261 77.8669 102.188 72.2789 112.198C65.6271 124.233 59.9999 136.808 55.4569 149.789C54.1466 153.492 60.0237 155.073 61.2377 151.409V151.467Z" fill="#374151"/>
<path d="M92.7803 113.066C100.103 102.111 117.387 74.9546 133.535 85.6589C136.81 87.8384 139.855 82.573 136.598 80.4129C116.366 67.0277 96.9811 95.8425 87.5392 109.999C85.3618 113.259 90.6222 116.306 92.7803 113.066Z" fill="#374151"/>
<path d="M111.819 114.435C120.393 101.378 134.19 83.4026 151.687 84.9263C155.54 85.2541 155.54 79.1402 151.687 78.8509C131.82 77.1343 116.347 96.4792 106.577 111.369C104.419 114.648 109.66 117.695 111.819 114.435Z" fill="#374151"/>
<path d="M119.045 120.607C122.533 109.208 139.913 98.3302 151.051 96.9416C155.359 96.1861 159.795 96.8069 163.73 98.7159C166.1 99.9889 174.559 107.627 171.842 111.33C169.916 113.856 164 114.223 161.11 114.223C158.219 114.223 155.444 113.509 152.631 113.374C144.384 112.988 136.426 113.663 130.876 120.414C125.873 126.87 123.479 134.973 124.17 143.115C124.691 149.383 127.35 156.365 132.976 159.74C136.086 161.254 139.482 162.088 142.939 162.19C146.234 162.575 152.361 163.135 154.346 166.587C157.371 171.872 153.094 175.729 149.028 177.137C142.592 179.336 132.341 174.263 126.579 171.679C124.652 170.811 122.109 168.901 119.816 169.384C113.592 170.637 108.543 183.695 105.46 188.478C103.321 191.776 108.562 194.823 110.701 191.544C112.84 188.266 115.037 183.598 117.831 180.512C121.319 176.655 121.685 176.655 126.676 178.314C132.302 180.107 137.582 182.807 143.536 183.521C151.783 184.485 160.069 180.782 161.206 171.737C162.15 164.273 156.851 158.699 149.991 156.944C141.243 154.687 133.054 157.04 130.568 145.217C128.275 134.358 133.766 120.568 145.848 119.449C154.693 118.639 171.553 126.374 176.679 116.364C180.533 108.842 175.195 99.3524 168.971 94.9357C159.549 88.1659 146.966 89.9789 137.254 95.09C127.543 100.201 116.309 108.456 113.071 118.987C111.935 122.844 117.792 124.348 118.852 120.607H119.045Z" fill="#374151"/>
<path d="M124.827 170.753C122.688 169.598 120.738 168.121 119.046 166.375C117.466 164.735 116.444 162.517 114.73 161.032C111.801 158.467 107.484 162.749 110.433 165.333C112.359 166.953 113.458 169.422 115.25 171.119C117.192 173.023 119.391 174.646 121.782 175.941C125.212 177.87 128.276 172.566 124.846 170.695L124.827 170.753Z" fill="#374151"/>
</g>
<defs>
<clipPath id="clip0_4371_214410">
<rect width="299" height="264.117" fill="white" transform="translate(0 18)"/>
</clipPath>
</defs>
</svg>
