<svg width="300" height="300" viewBox="0 0 300 300" fill="none" xmlns="http://www.w3.org/2000/svg">
<g clip-path="url(#clip0_4371_214337)">
<path d="M193.766 37.079C158.359 30.3414 122.989 23.3448 87.6565 16.089C90.6146 96.3878 64.2676 173.597 37.4131 248.307C37.5156 248.949 37.3891 249.661 36.9416 250.398C34.9217 253.725 60.0696 257.791 62.4763 258.197C70.233 259.638 77.9861 261.101 85.7356 262.585C101.227 265.596 116.7 268.722 132.153 271.962C157.151 277.291 182.139 282.805 206.982 288.821C237.661 223.198 254.714 152.643 266.953 81.5134L269.037 69.158C269.586 65.2507 272.146 58.5888 271.359 54.7433C270.333 49.6864 267.441 50.5906 261.983 49.6699L249.112 47.3661C230.657 44.017 212.208 40.588 193.766 37.079Z" fill="white"/>
<path d="M80.5333 12.0313C84.7713 93.6729 57.501 172.01 30.2575 247.7C29.9688 248.385 29.9078 249.144 30.0836 249.866C30.2594 250.588 30.6627 251.234 31.2338 251.71C31.805 252.185 32.5139 252.464 33.2558 252.506C33.9976 252.547 34.7333 252.349 35.3541 251.941L35.7308 251.673L30.6342 247.432C23.6471 258.982 41.5475 261.339 48.5415 262.585C68.3168 266.142 88.0486 269.913 107.737 273.897C141.377 280.677 174.916 287.926 208.263 296.049C209.003 296.174 209.762 296.054 210.427 295.707C211.092 295.361 211.625 294.807 211.946 294.129C245.438 223.449 263.154 146.992 275.73 70.2197C276.553 65.342 280.895 52.7046 278.844 47.8284C277.097 43.6442 270.913 44.2804 267.281 43.6678C247.406 40.0939 227.535 36.4471 207.669 32.7275C166.544 24.9941 125.487 16.8967 84.4991 8.43521C80.2305 7.53834 79.0887 14.3069 83.3572 15.2038C84.7899 15.4989 86.2227 15.7935 87.6555 16.0878C122.988 23.3435 158.358 30.3402 193.764 37.0778C212.207 40.5868 230.656 44.0158 249.111 47.3648L261.982 49.6687C267.439 50.5894 270.332 49.6852 271.358 54.7421C272.145 58.5876 269.585 65.2494 269.036 69.1568L266.952 81.5121C254.713 152.642 237.66 223.197 206.981 288.82C206.584 289.669 206.184 290.518 205.783 291.366L209.469 289.424C208.64 289.222 207.811 289.021 206.981 288.82C182.137 282.804 157.15 277.29 132.152 271.961C116.699 268.721 101.226 265.595 85.7345 262.584C77.985 261.1 70.2319 259.637 62.4752 258.196C60.0686 257.79 34.9207 253.724 36.9406 250.396C37.388 249.659 37.5146 248.947 37.4121 248.306C37.0517 246.052 33.8613 244.672 31.8225 246.152L31.4673 246.423L36.5639 250.664C36.8466 249.879 37.1294 249.092 37.4121 248.306C64.2666 173.596 90.6135 96.3866 87.6555 16.0878C87.5978 14.5216 87.5289 12.9543 87.4487 11.3858C87.2283 6.92881 80.3843 7.67477 80.698 12.1033L80.5333 12.0313Z" fill="#374151"/>
<path d="M145.72 12.1306C109.686 11.3767 73.6456 10.3612 37.5982 9.08398C53.8725 87.7719 40.7361 168.288 26.6836 246.425C26.8914 247.04 26.885 247.763 26.5664 248.564C25.1282 252.182 50.6021 252.007 53.0427 252.007C60.9311 252.138 68.8195 252.291 76.7079 252.465C92.4846 252.857 108.261 253.366 124.038 253.99C149.575 255.087 175.131 256.367 200.629 258.167C219.964 188.355 225.043 115.946 225.28 43.7713V31.2414C225.171 27.2972 226.587 20.3023 225.171 16.6414C223.319 11.8255 220.617 13.1984 215.082 13.1984L202.007 13.0676C183.252 12.8352 164.49 12.5228 145.72 12.1306Z" fill="white"/>
<path d="M29.8991 6.26799C47.6588 86.0671 33.7997 167.849 19.5265 247.016C19.3557 247.74 19.4219 248.498 19.7154 249.181C20.0088 249.864 20.514 250.434 21.1562 250.808C21.7985 251.181 22.5439 251.339 23.2824 251.256C24.0209 251.174 24.7133 250.856 25.2576 250.35L25.5844 250.024L19.8534 246.69C14.885 259.241 32.928 258.588 40.0319 258.653C60.1234 258.871 80.2075 259.307 100.284 259.96C134.584 261.05 168.861 262.619 203.095 265.081C203.845 265.081 204.574 264.836 205.172 264.384C205.769 263.932 206.203 263.297 206.407 262.575C227.675 187.309 232.426 108.97 232.055 31.1753C232.055 26.2287 234.235 13.045 231.402 8.57786C228.983 4.74262 222.99 6.39874 219.308 6.39874C199.114 6.18083 178.914 5.89028 158.706 5.52709C116.867 4.74261 75.0358 3.58768 33.2113 2.0623C28.8531 1.88797 28.8531 8.75218 33.2113 8.92651C34.6731 8.97917 36.135 9.03139 37.5968 9.08318C73.6442 10.3604 109.685 11.3759 145.719 12.1298C164.488 12.522 183.251 12.8344 202.005 13.0668L215.08 13.1976C220.615 13.1976 223.317 11.8247 225.169 16.6406C226.586 20.3015 225.169 27.2964 225.278 31.2406V43.7705C225.042 115.945 219.963 188.354 200.628 258.166C200.378 259.069 200.125 259.973 199.87 260.876L203.182 258.348C202.331 258.287 201.479 258.226 200.628 258.166C175.13 256.366 149.573 255.086 124.037 253.99C108.26 253.365 92.4832 252.856 76.7064 252.464C68.818 252.29 60.9296 252.137 53.0413 252.007C50.6007 252.007 25.1268 252.181 26.565 248.564C26.8836 247.762 26.89 247.039 26.6822 246.424C25.952 244.261 22.5765 243.431 20.8122 245.23L20.5071 245.556L26.2382 248.89C26.3863 248.069 26.5343 247.246 26.6822 246.424C40.7347 168.287 53.8711 87.7711 37.5968 9.08318C37.2793 7.54845 36.9507 6.01443 36.6107 4.48112C35.6519 0.122894 29.0274 1.99693 30.0734 6.31158L29.8991 6.26799Z" fill="#374151"/>
<path d="M134.147 66.4775L88.6072 66.2388C87.8313 66.2968 87.1044 66.6607 86.5712 67.258C86.038 67.8553 85.7378 68.6422 85.7302 69.4618C85.7227 70.2814 86.0085 71.0736 86.5306 71.6806C87.0527 72.2876 87.7729 72.6648 88.5475 72.7371L134.087 72.9758C134.863 72.9178 135.59 72.5539 136.123 71.9566C136.657 71.3593 136.957 70.5724 136.964 69.7528C136.972 68.9332 136.686 68.141 136.164 67.534C135.642 66.927 134.922 66.5498 134.147 66.4775Z" fill="#166CFF"/>
<path d="M101.281 30.6203L83.7749 30.3816C82.999 30.4396 82.272 30.8036 81.7389 31.4009C81.2057 31.9982 80.9054 32.785 80.8979 33.6046C80.8904 34.4243 81.1761 35.2165 81.6983 35.8235C82.2204 36.4305 82.9405 36.8077 83.7152 36.8799L101.221 37.1187C101.997 37.0606 102.724 36.6967 103.257 36.0994C103.79 35.5021 104.091 34.7152 104.098 33.8956C104.106 33.076 103.82 32.2838 103.298 31.6768C102.776 31.0698 102.056 30.6926 101.281 30.6203Z" fill="#166CFF"/>
<path d="M70.3473 222.812L52.8413 222.573C52.0654 222.631 51.3384 222.995 50.8053 223.592C50.2721 224.19 49.9718 224.976 49.9643 225.796C49.9568 226.616 50.2426 227.408 50.7647 228.015C51.2868 228.622 52.0069 228.999 52.7816 229.071L70.2877 229.31C71.0636 229.252 71.7905 228.888 72.3237 228.291C72.8569 227.694 73.1571 226.907 73.1646 226.087C73.1722 225.267 72.8864 224.475 72.3643 223.868C71.8422 223.261 71.122 222.884 70.3473 222.812Z" fill="#166CFF"/>
<path d="M131.248 30.6203L113.742 30.3816C112.966 30.4396 112.239 30.8036 111.706 31.4009C111.172 31.9982 110.872 32.785 110.865 33.6046C110.857 34.4243 111.143 35.2165 111.665 35.8235C112.187 36.4305 112.907 36.8077 113.682 36.8799L131.188 37.1187C131.964 37.0606 132.691 36.6967 133.224 36.0994C133.757 35.5021 134.057 34.7152 134.065 33.8956C134.073 33.076 133.787 32.2838 133.265 31.6768C132.743 31.0698 132.022 30.6926 131.248 30.6203Z" fill="#166CFF"/>
<path d="M100.316 222.812L82.81 222.573C82.0341 222.631 81.3072 222.995 80.774 223.592C80.2409 224.19 79.9406 224.976 79.9331 225.796C79.9255 226.616 80.2113 227.408 80.7334 228.015C81.2555 228.622 81.9757 228.999 82.7504 229.071L100.256 229.31C101.032 229.252 101.759 228.888 102.292 228.291C102.826 227.694 103.126 226.907 103.133 226.087C103.141 225.267 102.855 224.475 102.333 223.868C101.811 223.261 101.091 222.884 100.316 222.812Z" fill="#166CFF"/>
<path d="M165.082 30.6203L147.576 30.3816C146.8 30.4396 146.073 30.8036 145.54 31.4009C145.006 31.9982 144.706 32.785 144.699 33.6046C144.691 34.4243 144.977 35.2165 145.499 35.8235C146.021 36.4305 146.741 36.8077 147.516 36.8799L165.022 37.1187C165.798 37.0606 166.525 36.6967 167.058 36.0994C167.591 35.5021 167.891 34.7152 167.899 33.8956C167.907 33.076 167.621 32.2838 167.099 31.6768C166.577 31.0698 165.856 30.6926 165.082 30.6203Z" fill="#166CFF"/>
<path d="M134.15 222.812L116.644 222.573C115.868 222.631 115.141 222.995 114.608 223.592C114.075 224.19 113.775 224.976 113.767 225.796C113.76 226.616 114.045 227.408 114.567 228.015C115.09 228.622 115.81 228.999 116.584 229.071L134.09 229.31C134.866 229.252 135.593 228.888 136.126 228.291C136.66 227.694 136.96 226.907 136.967 226.087C136.975 225.267 136.689 224.475 136.167 223.868C135.645 223.261 134.925 222.884 134.15 222.812Z" fill="#166CFF"/>
<path d="M198.916 30.6203L181.41 30.3816C180.634 30.4396 179.907 30.8036 179.374 31.4009C178.84 31.9982 178.54 32.785 178.533 33.6046C178.525 34.4243 178.811 35.2165 179.333 35.8235C179.855 36.4305 180.575 36.8077 181.35 36.8799L198.856 37.1187C199.632 37.0606 200.359 36.6967 200.892 36.0994C201.425 35.5021 201.725 34.7152 201.733 33.8956C201.741 33.076 201.455 32.2838 200.933 31.6768C200.411 31.0698 199.69 30.6926 198.916 30.6203Z" fill="#166CFF"/>
<path d="M167.984 222.812L150.478 222.573C149.702 222.631 148.975 222.995 148.442 223.592C147.909 224.19 147.609 224.976 147.601 225.796C147.593 226.616 147.879 227.408 148.401 228.015C148.923 228.622 149.644 228.999 150.418 229.071L167.924 229.31C168.7 229.252 169.427 228.888 169.96 228.291C170.494 227.694 170.794 226.907 170.801 226.087C170.809 225.267 170.523 224.475 170.001 223.868C169.479 223.261 168.759 222.884 167.984 222.812Z" fill="#166CFF"/>
<path d="M204.064 69.9833L203.948 52.476C203.874 51.7014 203.495 50.982 202.887 50.4611C202.279 49.9401 201.487 49.6558 200.667 49.6649C199.847 49.674 199.061 49.9758 198.465 50.5101C197.868 51.0444 197.506 51.772 197.449 52.548L197.566 70.0553C197.639 70.8299 198.018 71.5493 198.626 72.0703C199.234 72.5912 200.027 72.8755 200.846 72.8664C201.666 72.8573 202.452 72.5556 203.048 72.0212C203.645 71.4869 204.007 70.7593 204.064 69.9833Z" fill="#166CFF"/>
<path d="M70.0416 52.1649L69.4456 34.6674C69.3506 33.8952 68.9524 33.1864 68.3304 32.6823C67.7083 32.1782 66.9081 31.9158 66.089 31.9474C65.27 31.9789 64.4923 32.3021 63.9109 32.8526C63.3295 33.403 62.987 34.1403 62.9518 34.9176L63.5479 52.4151C63.6428 53.1874 64.041 53.8961 64.663 54.4002C65.2851 54.9043 66.0853 55.1667 66.9044 55.1352C67.7234 55.1036 68.5011 54.7804 69.0825 54.23C69.6639 53.6795 70.0064 52.9422 70.0416 52.1649Z" fill="#166CFF"/>
<path d="M202.592 107.019L203.95 89.5643C203.942 88.7862 203.625 88.0375 203.063 87.4672C202.501 86.897 201.735 86.547 200.918 86.4871C200.1 86.4271 199.291 86.6617 198.652 87.1439C198.013 87.6261 197.591 88.3207 197.469 89.0892L196.111 106.544C196.119 107.322 196.436 108.071 196.998 108.641C197.56 109.211 198.326 109.561 199.144 109.621C199.961 109.681 200.77 109.447 201.409 108.964C202.048 108.482 202.471 107.788 202.592 107.019Z" fill="#166CFF"/>
<path d="M69.5888 89.2264L70.4674 71.7408C70.4378 70.9633 70.1007 70.2235 69.5233 69.6689C68.9459 69.1142 68.1705 68.7854 67.3517 68.7479C66.533 68.7104 65.7308 68.967 65.1051 69.4666C64.4795 69.9661 64.0762 70.672 63.9756 71.4435L63.097 88.9292C63.1266 89.7067 63.4637 90.4464 64.0412 91.0011C64.6186 91.5557 65.3939 91.8846 66.2127 91.922C67.0315 91.9595 67.8336 91.7029 68.4593 91.2034C69.085 90.7038 69.4883 89.9979 69.5888 89.2264Z" fill="#166CFF"/>
<path d="M198.562 147.667L200.238 130.24C200.244 129.462 199.941 128.707 199.39 128.127C198.838 127.546 198.079 127.182 197.262 127.108C196.446 127.033 195.633 127.252 194.985 127.723C194.337 128.193 193.902 128.88 193.767 129.646L192.09 147.073C192.084 147.852 192.387 148.606 192.939 149.186C193.49 149.767 194.25 150.131 195.066 150.206C195.882 150.28 196.695 150.061 197.343 149.59C197.991 149.12 198.426 148.433 198.562 147.667Z" fill="#166CFF"/>
<path d="M66.6727 129.968L67.8706 112.502C67.8552 111.724 67.5316 110.978 66.9644 110.413C66.3973 109.848 65.6281 109.505 64.8101 109.452C63.9921 109.4 63.1854 109.642 62.5507 110.13C61.916 110.618 61.4999 111.316 61.3853 112.086L60.1874 129.552C60.2028 130.33 60.5264 131.076 61.0935 131.641C61.6607 132.206 62.4299 132.549 63.2479 132.602C64.0659 132.654 64.8726 132.412 65.5073 131.924C66.142 131.436 66.5581 130.738 66.6727 129.968Z" fill="#166CFF"/>
<path d="M194.938 188.299L196.544 170.866C196.547 170.088 196.241 169.334 195.687 168.756C195.134 168.178 194.373 167.817 193.556 167.746C192.74 167.674 191.927 167.897 191.281 168.37C190.636 168.843 190.203 169.531 190.071 170.298L188.464 187.732C188.461 188.51 188.767 189.263 189.321 189.841C189.875 190.42 190.636 190.781 191.452 190.852C192.269 190.924 193.081 190.701 193.727 190.228C194.373 189.755 194.805 189.066 194.938 188.299Z" fill="#166CFF"/>
<path d="M64.1641 170.685L65.2921 153.213C65.2736 152.435 64.9471 151.691 64.3776 151.128C63.8082 150.565 63.0376 150.225 62.2194 150.176C61.4013 150.127 60.5956 150.372 59.9628 150.863C59.3301 151.353 58.9167 152.053 58.8052 152.823L57.6772 170.295C57.6957 171.073 58.0222 171.817 58.5917 172.38C59.1611 172.943 59.9317 173.283 60.7498 173.332C61.568 173.381 62.3737 173.136 63.0065 172.645C63.6392 172.155 64.0525 171.455 64.1641 170.685Z" fill="#166CFF"/>
<path d="M187.056 226.213L190.689 209.087C190.783 208.314 190.567 207.531 190.085 206.892C189.602 206.253 188.889 205.805 188.086 205.639C187.283 205.472 186.451 205.599 185.754 205.993C185.057 206.387 184.547 207.02 184.326 207.766L180.693 224.893C180.599 225.665 180.815 226.449 181.297 227.088C181.78 227.727 182.493 228.174 183.296 228.341C184.098 228.507 184.931 228.381 185.628 227.987C186.325 227.592 186.834 226.959 187.056 226.213Z" fill="#166CFF"/>
<path d="M57.326 208.802L60.4884 191.582C60.5609 190.807 60.3237 190.03 59.8239 189.404C59.3242 188.779 58.5986 188.351 57.7918 188.207C56.985 188.062 56.1561 188.211 55.4704 188.625C54.7846 189.038 54.2923 189.685 54.0915 190.437L50.9291 207.656C50.8566 208.431 51.0938 209.209 51.5936 209.834C52.0933 210.46 52.8189 210.887 53.6257 211.032C54.4325 211.176 55.2614 211.027 55.9471 210.614C56.6329 210.2 57.1252 209.553 57.326 208.802Z" fill="#166CFF"/>
<path d="M151.463 162.179L128.848 201.708C128.517 202.412 128.476 203.223 128.734 203.982C128.992 204.74 129.529 205.388 130.239 205.798C130.948 206.208 131.779 206.349 132.564 206.193C133.349 206.037 134.032 205.596 134.476 204.957L157.091 165.428C157.422 164.724 157.463 163.912 157.205 163.154C156.948 162.396 156.41 161.748 155.701 161.338C154.991 160.928 154.16 160.787 153.375 160.943C152.59 161.099 151.907 161.54 151.463 162.179Z" fill="#166CFF"/>
<path d="M127.476 166.551L162.583 195.559C163.141 196.101 163.466 196.846 163.492 197.646C163.519 198.446 163.245 199.243 162.725 199.877C162.206 200.511 161.478 200.935 160.689 201.067C159.899 201.198 159.104 201.026 158.463 200.585L123.356 171.577C122.798 171.035 122.473 170.29 122.447 169.49C122.421 168.689 122.695 167.893 123.214 167.259C123.734 166.625 124.461 166.2 125.251 166.069C126.041 165.938 126.835 166.11 127.476 166.551Z" fill="#166CFF"/>
<path d="M176.683 90.9446L88.6088 90.1003C87.8334 90.1611 87.1068 90.5403 86.5738 91.1625C86.0408 91.7846 85.7404 92.604 85.7326 93.4575C85.7248 94.3109 86.01 95.1357 86.5315 95.7676C87.053 96.3994 87.7725 96.7919 88.5466 96.8668L176.621 97.7111C177.396 97.6503 178.123 97.2711 178.656 96.649C179.189 96.0268 179.489 95.2074 179.497 94.354C179.505 93.5005 179.219 92.6757 178.698 92.0439C178.176 91.412 177.457 91.0195 176.683 90.9446Z" fill="#374151"/>
<path d="M176.683 115.15L88.6088 114.305C87.8334 114.366 87.1068 114.745 86.5738 115.368C86.0408 115.99 85.7404 116.809 85.7326 117.663C85.7248 118.516 86.01 119.341 86.5315 119.973C87.053 120.604 87.7725 120.997 88.5466 121.072L176.621 121.916C177.396 121.855 178.123 121.476 178.656 120.854C179.189 120.232 179.489 119.412 179.497 118.559C179.505 117.706 179.219 116.881 178.698 116.249C178.176 115.617 177.457 115.225 176.683 115.15Z" fill="#374151"/>
<path d="M176.683 139.316L88.6088 138.471C87.8334 138.532 87.1068 138.911 86.5738 139.534C86.0408 140.156 85.7404 140.975 85.7326 141.829C85.7248 142.682 86.01 143.507 86.5315 144.139C87.053 144.77 87.7725 145.163 88.5466 145.238L176.621 146.082C177.396 146.021 178.123 145.642 178.656 145.02C179.189 144.398 179.489 143.578 179.497 142.725C179.505 141.872 179.219 141.047 178.698 140.415C178.176 139.783 177.457 139.391 176.683 139.316Z" fill="#374151"/>
</g>
<defs>
<clipPath id="clip0_4371_214337">
<rect width="300" height="300" fill="white"/>
</clipPath>
</defs>
</svg>
