<svg width="300" height="300" viewBox="0 0 300 300" fill="none" xmlns="http://www.w3.org/2000/svg">
<path d="M292.694 165.951C292.14 133.507 290.416 101.12 287.529 68.9094C285.275 56.8269 282.64 40.7091 274.851 34.4931C266.965 28.2502 255.338 27.2326 246.688 25.94C228.1 23.1348 209.352 21.6772 190.663 20.9347C153.551 19.5187 116.413 21.659 79.5229 27.3392C79.1407 27.6188 78.6968 27.8133 78.1921 27.8926V27.9752H77.715C52.3178 32.5826 42.3081 69.0057 39.6891 99.5347C36.9354 129.422 35.7388 159.539 36.1084 189.658C36.7521 222.825 45.6436 253.435 69.2202 266.828C89.2252 278.015 111.346 275.896 132.498 277.7C132.858 277.503 133.243 277.397 133.633 277.389C158.718 278.626 183.683 275.216 208.728 274.171C231.681 273.208 260.629 280.441 279.136 257.395C296.436 235.861 293.137 194.746 292.694 165.951Z" fill="white"/>
<path d="M150.433 134.119C147.476 134.755 144.603 135.615 141.746 136.681C132.976 139.913 125.058 145.071 118.042 151.008C111.845 156.278 105.163 162.804 96.2097 162.422C91.215 162.231 86.3874 160.942 81.376 161.754C76.9159 162.486 72.6897 164.237 68.9145 166.609C65.1393 168.997 61.7649 172.037 59.0421 175.54C58.1233 163.919 57.9395 152.266 57.9562 140.597C57.9562 133.816 56.3692 127.066 57.4717 120.269C58.7747 112.309 65.0724 110.415 73.0739 110.749C89.9789 111.434 106.917 111.482 123.872 111.784C129.602 111.88 135.499 111.625 141.195 112.246C146.173 112.787 149.597 115.397 149.932 120.332C150.282 124.917 150.349 129.518 150.433 134.119Z" fill="#166CFF"/>
<path d="M152.065 188.369C149.991 190.822 146.763 192.207 143.485 192.764C138.066 193.672 132.43 192.733 126.994 192.526C121.073 192.303 115.119 192.159 109.198 192.334C103.077 192.494 91.8029 193.115 85.7149 193.465C79.744 193.8 73.6895 193.863 67.7521 192.94C63.5708 192.271 60.8117 195.504 58.4701 192.334C57.1153 194.323 58.8214 186.219 58.4701 185.264C58.1858 184.468 57.9684 183.624 57.8178 182.78C57.6673 181.999 57.567 181.187 57.4834 180.391C57.3998 179.595 57.3329 178.798 57.2827 178.018C57.1991 177.174 57.1322 176.346 57.082 175.486C59.7915 171.983 60.5937 168.941 64.3736 166.552C68.1535 164.18 72.3849 162.428 76.8505 161.695C81.868 160.883 91.8878 159.564 96.8886 159.771C105.853 160.153 112.543 153.608 118.748 148.353C125.773 142.429 133.701 137.269 142.481 134.021C145.341 132.954 148.218 132.094 151.178 131.457C151.212 132.842 151.229 134.228 151.279 135.613C151.396 139.483 151.53 143.257 151.714 146.984C151.764 148.035 151.831 149.07 151.864 150.121C152.065 154.213 152.332 158.322 152.617 162.415C152.901 166.555 153.604 186.554 152.065 188.369Z" fill="#FC6078"/>
<path d="M102.729 145.544C97.1979 151.703 87.7685 154.486 80.2384 149.983C74.9906 146.863 71.9419 140.623 72.7749 134.737C74.4575 122.66 89.6179 117.176 99.5304 124.171C106.811 129.302 108.86 138.725 102.729 145.544Z" fill="white"/>
<path d="M10.4531 33.7691L11.9498 280.459C12.0082 281.598 12.3401 282.66 12.8794 283.435C13.4187 284.21 14.1259 284.64 14.86 284.64C15.5941 284.64 16.3013 284.21 16.8406 283.435C17.3799 282.66 17.7118 281.598 17.7702 280.459L16.2735 33.7691C16.2152 32.6305 15.8833 31.5679 15.3439 30.7931C14.8046 30.0182 14.0974 29.5879 13.3633 29.5879C12.6292 29.5879 11.922 30.0182 11.3827 30.7931C10.8434 31.5679 10.5115 32.6305 10.4531 33.7691Z" fill="#374151"/>
<path d="M12.3871 100.643C12.0631 100.495 11.706 100.436 11.3519 100.472C10.9978 100.507 10.6594 100.636 10.371 100.844C8.73101 101.668 7.28223 102.826 6.1185 104.245C4.95476 105.664 4.10201 107.312 3.61547 109.081C3.12892 110.85 3.01943 112.702 3.29409 114.517C3.56874 116.331 4.22142 118.068 5.20985 119.614C5.89273 120.762 6.87543 121.703 8.05251 122.336C9.38884 122.911 10.8313 123.2 12.2863 123.182C15.9959 123.404 20.1691 123.444 22.8505 120.864C24.4526 119.074 25.4476 116.822 25.6932 114.433C26.2603 112.105 26.0259 109.655 25.0279 107.477C24.3856 106.459 23.5662 105.565 22.6086 104.836C19.2305 102.067 15.1967 100.213 10.8952 99.4531" fill="#FC6078"/>
<path d="M13.2344 97.5806C5.73456 96.3105 0.15003 105.645 0.00890426 112.177C-0.0642289 114.344 0.313784 116.502 1.11896 118.515C1.92414 120.528 3.13891 122.352 4.6862 123.87C7.60951 126.471 12.0852 126.592 15.7948 126.431C24.5849 126.048 29.5041 119.536 29.0606 110.846C28.617 102.157 18.9802 97.9032 11.682 96.3912C7.64983 95.5646 5.99665 101.673 10.0086 102.439C14.0206 103.206 18.7181 104.697 21.2382 107.822C23.7583 110.947 22.9519 118.245 18.4358 119.677C14.4037 120.967 8.55707 120.362 6.94421 115.887C6.49508 114.622 6.30297 113.281 6.37913 111.941C6.4553 110.601 6.7982 109.29 7.38774 108.084C7.8716 107.117 10.2909 103.427 11.5409 103.649C15.573 104.335 17.2665 98.2056 13.2344 97.6008V97.5806Z" fill="#FC6078"/>
<path d="M287.792 70.1925C287.959 71.8959 288.122 73.5998 288.282 75.3042C291.181 106.257 292.913 137.379 293.47 168.556C293.915 196.226 297.229 235.735 279.851 256.428C261.261 278.574 232.185 271.624 209.129 272.549C183.973 273.553 158.897 276.83 133.699 275.641C133.307 275.649 132.921 275.751 132.559 275.94C132.408 276.019 132.26 276.114 132.119 276.223C131.639 276.593 131.241 277.12 130.964 277.751C130.687 278.383 130.54 279.097 130.538 279.825C130.536 280.554 130.678 281.27 130.951 281.904L131.174 282.354L134.002 276.064C133.522 276.021 133.041 275.979 132.559 275.94C111.313 274.207 89.0933 276.243 68.999 265.493C45.3173 252.623 36.3861 223.209 35.7395 191.337C35.3683 162.394 36.5702 133.453 39.3362 104.733C41.9669 75.3968 52.0213 40.3962 77.5317 35.9687C77.6909 35.9411 77.8506 35.9146 78.011 35.8894C78.5179 35.8132 78.9638 35.6263 79.3477 35.3576C82.0241 33.4844 81.6867 27.634 78.011 27.5647H75.8085V35.8894C76.988 35.7087 78.1677 35.5314 79.3477 35.3576C116.403 29.8993 153.706 27.8425 190.984 29.2032C209.756 29.9168 228.588 31.3174 247.258 34.0131C255.947 35.2552 267.626 36.233 275.547 42.232C283.371 48.2054 286.018 63.6936 288.282 75.3042C288.532 76.5872 288.777 77.8227 289.025 78.9929C289.347 79.8846 289.9 80.5985 290.586 81.0081C291.272 81.4176 292.046 81.4965 292.772 81.2306C293.499 80.9646 294.129 80.3712 294.553 79.5553C294.976 78.7394 295.166 77.7538 295.087 76.773C291.045 58.0358 287.913 38.6643 272.638 31.846C253.3 23.2041 230.689 23.3627 210.503 21.9356C165.562 18.8597 120.503 20.7693 75.8085 27.644C71.7673 28.2518 71.6056 35.8894 75.8085 35.9687H77.5317H78.011V27.644C56.2893 30.9739 42.0439 54.0716 36.3053 80.4993C32.7692 96.8844 32.1428 114.168 31.375 131.082C30.4455 151.088 28.9098 171.252 29.3544 191.31C29.9606 221.359 37.2348 251.486 57.9664 267.607C80.7793 285.393 108.482 282.195 133.982 284.468C134.539 284.456 135.084 284.256 135.563 283.886C136.043 283.516 136.44 282.989 136.718 282.358C136.995 281.726 137.141 281.011 137.144 280.283C137.146 279.555 137.004 278.839 136.73 278.204L136.508 277.755L133.78 283.992C162.21 285.34 190.479 280.9 218.889 280.636C241.015 280.451 266.818 283.966 284.337 262.348C299.855 243.241 300.037 212.611 299.997 186.765C299.891 147.796 297.941 108.873 294.157 70.2189C293.652 64.9334 287.287 64.9334 287.792 70.2189V70.1925Z" fill="#374151"/>
<path d="M42.4518 85.5777C123.767 80.8198 205.163 79.8386 286.639 82.6343C290.671 82.7754 290.671 76.4247 286.639 76.2836C205.23 73.3805 123.834 74.3616 42.4518 79.2271C38.4197 79.469 38.4197 85.8197 42.4518 85.5777Z" fill="#374151"/>
<path d="M176.747 129.671C197.815 131.002 218.963 129.792 240.052 131.102C244.084 131.365 244.084 125.054 240.052 124.752C218.963 123.441 197.815 124.752 176.747 123.32C172.715 123.058 172.715 129.369 176.747 129.671Z" fill="#374151"/>
<path d="M172.714 155.437C204.747 157.134 236.857 156.743 268.84 154.267C272.872 153.965 272.872 147.614 268.84 147.917C236.858 150.406 204.748 150.81 172.714 149.126C168.681 148.905 168.681 155.175 172.714 155.477V155.437Z" fill="#374151"/>
<path d="M174.087 181.423C206.12 183.12 238.23 182.73 270.213 180.254C274.245 179.951 274.245 173.601 270.213 173.903C238.231 176.392 206.121 176.796 174.087 175.113C170.054 174.891 170.054 181.161 174.087 181.463V181.423Z" fill="#374151"/>
<path d="M228.703 25.2656C249.552 26.858 270.493 26.858 291.342 25.2656L290.979 25.9108C291.503 46.6764 291.739 67.4419 291.685 88.2075L290.213 86.9777C270.35 88.8494 250.354 88.8156 230.497 86.8769L230.86 87.1188C229.381 66.7565 228.649 46.3605 228.662 25.9309L228.703 25.2656Z" fill="#FC6078"/>
<path d="M228.702 28.4311C249.554 29.9331 270.488 29.9331 291.341 28.4311L288.599 23.653C287.83 25.5704 287.587 27.6583 287.894 29.7012C287.894 36.193 288.176 42.6847 288.277 49.1765C288.465 62.1332 288.545 75.11 288.519 88.1069L293.881 85.9699C288.075 81.1918 277.37 84.8409 270.253 85.0627C256.965 85.4193 243.668 84.9683 230.435 83.7119C227.028 83.3893 226.403 88.0263 228.823 89.6392L229.185 89.8811C229.668 90.16 230.216 90.3071 230.774 90.3079C231.332 90.3086 231.88 90.1629 232.364 89.8853C232.847 89.6077 233.25 89.208 233.53 88.726C233.811 88.2441 233.961 87.697 233.964 87.1392C232.552 66.6559 231.101 45.8097 231.806 25.2658C231.947 21.2337 225.597 21.2337 225.456 25.2658C224.75 45.8097 226.202 66.6559 227.613 87.1392L232.391 84.3974L232.028 84.1554L230.435 90.0625C241.02 91.0302 251.624 91.5947 262.269 91.5544C267.645 91.5544 272.961 91.3931 278.216 91.0706C280.515 90.9496 287.773 89.0545 289.385 90.4657C289.837 90.8872 290.401 91.17 291.009 91.2803C291.617 91.3907 292.244 91.3241 292.816 91.0883C293.387 90.8526 293.879 90.4576 294.232 89.9505C294.585 89.4434 294.785 88.8455 294.809 88.2279C294.809 77.1798 294.755 66.1451 294.647 55.1239C294.647 49.9426 294.506 44.7411 294.405 39.5598C294.405 36.7373 292.732 29.2174 294.022 26.8989C294.295 26.4149 294.437 25.8684 294.435 25.313C294.433 24.7575 294.286 24.2122 294.01 23.7305C293.733 23.2487 293.336 22.847 292.858 22.5649C292.379 22.2827 291.836 22.1296 291.281 22.1208C270.428 23.6227 249.494 23.6227 228.641 22.1208C224.609 21.778 224.629 28.1488 228.702 28.4311Z" fill="#FC6078"/>
<path d="M220.759 21.4558L294.487 93.7523C297.41 96.6151 301.906 92.1394 298.982 89.2766L225.335 16.9196C222.432 14.0568 217.936 18.5325 220.859 21.4155L220.759 21.4558Z" fill="#374151"/>
<path d="M294.285 18.0878L224.146 90.2028C221.283 93.1261 225.779 97.622 228.642 94.6785L298.781 22.5836C301.624 19.6603 297.148 15.1645 294.285 18.0878Z" fill="#374151"/>
<path d="M171.009 215.905C177.491 231.203 182.971 248.13 192.196 261.95C192.491 262.416 192.9 262.799 193.386 263.061C193.872 263.323 194.417 263.455 194.969 263.445C195.52 263.434 196.06 263.282 196.535 263.001C197.011 262.721 197.406 262.323 197.682 261.845C200.893 256.144 203.804 249.836 208.217 244.964L204.382 245.559C211.081 249.323 219.031 255.769 226.418 257.615C235.805 260 235.312 246.279 239.326 240.599C239.674 239.986 239.806 239.275 239.701 238.579C239.597 237.882 239.262 237.241 238.75 236.758C230.689 231.139 221.901 226.644 212.627 223.398L214.625 228.027L221.811 210.804C222.062 210.314 222.185 209.768 222.167 209.218C222.15 208.667 221.992 208.131 221.71 207.658C221.428 207.185 221.03 206.792 220.553 206.515C220.077 206.238 219.538 206.088 218.988 206.077C204.408 206.577 189.888 208.194 175.555 210.911C171.574 211.654 173.346 217.836 177.305 217.016C191.08 214.412 205.036 212.881 219.048 212.435L216.25 207.721L209.064 224.944C208.848 225.371 208.728 225.841 208.713 226.32C208.699 226.799 208.79 227.275 208.98 227.715C209.17 228.155 209.454 228.548 209.813 228.865C210.172 229.183 210.597 229.418 211.056 229.553C219.32 232.418 227.16 236.386 234.361 241.35L233.785 237.51C232.09 240.042 230.763 242.802 229.843 245.707C227.668 251.804 228.851 251.759 223.207 248.679C217.956 245.821 212.734 242.921 207.542 239.977C206.926 239.642 206.218 239.518 205.526 239.622C204.833 239.726 204.192 240.053 203.702 240.553C198.932 245.863 195.719 252.509 192.141 258.757L197.627 258.652C188.704 245.229 183.427 228.936 177.125 214.194C175.53 210.457 169.425 212.207 171.021 215.944L171.009 215.905Z" fill="#166CFF"/>
<path d="M54.9242 112.288L54.6621 192.609C54.7258 193.407 55.0879 194.153 55.6764 194.696C56.2649 195.239 57.0364 195.541 57.8374 195.541C58.6384 195.541 59.41 195.239 59.9985 194.696C60.5869 194.153 60.9491 193.407 61.0128 192.609L61.295 112.288C61.2313 111.49 60.8692 110.745 60.2807 110.201C59.6923 109.658 58.9207 109.356 58.1197 109.356C57.3187 109.356 56.5471 109.658 55.9586 110.201C55.3702 110.745 55.008 111.49 54.9444 112.288H54.9242Z" fill="#374151"/>
<path d="M146.797 113.135C146.448 139.626 146.542 166.117 147.079 192.609C147.079 196.641 153.511 196.641 153.43 192.609C152.893 166.117 152.798 139.626 153.148 113.135C153.148 109.103 146.858 109.103 146.797 113.135Z" fill="#374151"/>
<path d="M59.158 115.413L148.631 116.32C149.43 116.257 150.175 115.895 150.718 115.306C151.262 114.718 151.564 113.946 151.564 113.145C151.564 112.344 151.262 111.572 150.718 110.984C150.175 110.396 149.43 110.033 148.631 109.97L59.158 109.062C58.3595 109.126 57.6144 109.488 57.0709 110.077C56.5275 110.665 56.2258 111.437 56.2258 112.238C56.2258 113.039 56.5275 113.81 57.0709 114.399C57.6144 114.987 58.3595 115.349 59.158 115.413Z" fill="#374151"/>
<path d="M58.351 196.358C88.5921 194.812 118.833 194.705 149.074 196.035C153.107 196.217 153.107 189.846 149.074 189.685C118.833 188.341 88.5921 188.448 58.351 190.007C54.3188 190.209 54.3188 196.559 58.351 196.358Z" fill="#374151"/>
</svg>
