<svg width="300" height="300" viewBox="0 0 300 300" fill="none" xmlns="http://www.w3.org/2000/svg">
<ellipse cx="175.624" cy="164.17" rx="118.157" ry="124.375" fill="white"/>
<path d="M224.809 189.682C152.182 189.015 79.4459 188.348 6.81836 186.346L7.03451 185.964C8.87182 159.843 11.5737 133.722 15.1403 107.601H15.2483C84.0932 108.84 152.83 107.792 221.675 104.455L222.323 105.027C224.809 133.722 225.35 160.987 224.809 189.682Z" fill="#166CFF"/>
<path d="M225.121 185.11C152.073 184.429 78.9162 183.747 5.86833 181.703L11.4121 190.27C13.6949 185.499 13.0427 178.782 13.4775 173.622C14.021 166.418 14.6732 159.117 15.3254 151.913C16.7385 136.921 18.4778 121.928 20.5431 106.936L15.8689 112.388C19.7822 110.928 28.3697 112.777 32.8265 112.777C39.6747 112.777 46.4142 112.972 53.2625 112.972C66.198 113.069 79.2423 113.069 92.1778 112.972C117.505 112.777 142.833 112.29 168.161 111.512C180.553 111.122 192.836 110.636 205.228 110.149C208.38 110.149 211.533 109.954 214.685 109.565C220.338 108.591 218.381 109.565 216.751 107.423C218.816 110.441 217.62 119.787 217.838 123.486C219.142 145.877 219.359 168.268 218.925 190.659C218.816 197.961 231.534 197.961 231.643 190.659C232.077 166.126 231.751 141.594 230.121 117.158C229.686 110.149 231.751 99.732 222.077 97.9797C216.098 96.9088 207.837 98.6612 201.641 98.9532C194.249 99.2453 186.857 99.5373 179.466 99.8294C151.094 100.803 122.614 101.387 94.2432 101.679C80.0032 101.776 65.7632 101.776 51.6319 101.679C44.2402 101.679 36.8484 101.582 29.348 101.484C24.8912 101.484 16.8472 99.9267 12.7166 101.484C11.4121 101.874 10.2164 102.653 9.4555 103.626C8.58588 104.6 8.15107 105.768 8.04237 107.033C6.30314 120.273 4.6726 133.611 3.36818 146.948C2.71596 153.665 2.06375 160.285 1.52024 167.003C1.30284 169.826 1.08543 172.552 0.868028 175.375C0.650624 177.517 1.41154 183.066 0.650623 184.526C-1.19731 188.42 0.97673 192.996 6.08573 193.093C79.1336 195.137 152.29 195.916 225.338 196.5C233.382 196.403 233.382 185.11 225.121 185.11Z" fill="#166CFF"/>
<path d="M35.3144 132.532C34.2615 132.532 33.3139 132.847 32.4716 133.269C31.6293 133.795 30.6816 134.848 30.6816 136.849C30.6816 140.534 32.3663 144.535 34.0509 148.431C34.8933 150.326 35.6303 152.116 36.1568 153.8C38.052 160.013 40.6843 166.014 44.0536 171.595C44.4747 172.226 45.0012 172.858 45.7382 173.174C47.107 173.911 48.897 173.911 50.2657 173.174C51.0028 172.753 51.5292 172.226 51.9504 171.595L59.426 158.117L61.216 161.697C61.953 163.592 63.1112 165.382 64.3747 166.962C65.4276 168.225 67.007 169.068 68.6916 169.278C70.3763 169.489 72.1662 169.173 73.535 168.225C76.062 166.541 76.9043 162.75 77.6414 159.17C77.9572 157.907 78.1678 156.643 78.4837 155.485C81.116 147.167 84.6958 139.165 89.3286 131.689C90.8027 129.162 89.6445 126.846 87.7493 125.688C85.7488 124.53 83.0112 124.424 81.4318 127.056C77.0096 134.322 73.4297 142.008 70.6922 150.01C70.4816 150.536 70.271 151.168 69.9551 151.905L68.6916 154.959L67.1123 152.116C66.0594 150.22 65.1117 148.746 64.9012 148.431C63.2165 146.114 61.4266 144.956 59.7419 145.061C56.7938 145.272 53.3192 148.957 49.4234 156.117L47.844 159.065L46.5806 155.906C45.8435 153.906 45.1065 151.905 44.4747 149.905C44.0536 148.746 43.4218 147.272 42.6848 145.798C41.5266 143.377 40.3684 140.85 39.9472 138.533L39.8419 138.217L39.9472 137.901C40.2631 136.217 39.9472 133.9 38.052 133.058L37.6308 132.847C36.8938 132.742 36.0515 132.532 35.3144 132.532Z" fill="white"/>
<path d="M145.811 122.415L137.914 148.948C135.914 146.316 134.018 143.578 132.018 140.841C131.491 139.893 130.649 139.156 129.701 138.735C128.754 138.208 127.701 137.998 126.648 137.998C125.595 137.998 124.542 138.314 123.595 138.735C122.647 139.261 121.91 139.998 121.278 140.841C119.699 143.052 118.225 145.368 116.856 147.684C115.066 142.525 113.171 137.261 111.17 132.101C108.327 124.836 96.5348 127.995 99.2724 135.365C103.063 145.263 106.537 155.16 109.696 165.163C111.065 169.69 118.646 171.796 120.962 166.637C122.752 162.53 124.647 158.635 126.964 154.739C129.701 158.529 132.755 162.109 136.44 164.952C140.125 167.795 145.285 167.058 146.759 162.215L157.709 125.468C159.92 118.098 148.127 114.834 145.811 122.415Z" fill="white"/>
<path d="M190.688 154.095L192.162 157.886C193.847 162.413 195.847 166.73 198.164 170.836C199.111 172.521 200.48 172.942 201.533 173.048C203.218 173.153 205.113 172.205 206.166 170.731C211.536 163.466 214.063 153.885 216.484 144.619C217.327 141.46 218.064 138.512 219.011 135.669C219.959 132.721 217.958 131.037 216.063 130.405C213.852 129.773 211.115 130.405 210.167 133.353C209.325 135.985 208.588 138.723 207.851 141.671C206.692 146.093 205.429 150.726 203.849 155.148L202.375 159.149L200.901 155.253C198.795 149.778 197.216 143.987 196.163 138.302C195.742 135.985 194.268 135.353 193.11 135.248C190.793 135.038 188.161 136.512 187.319 138.617L180.58 155.464L172.789 131.458C171.841 128.404 168.998 127.878 166.682 128.615C164.892 129.141 163.207 130.721 163.734 133.248L163.944 133.774L175.632 169.994C176.263 171.995 177.737 173.153 179.633 173.258C181.317 173.258 183.528 172.311 184.581 169.889L190.688 154.095Z" fill="white"/>
<path d="M42.8965 73.3594L60.4801 87.3631L42.8965 73.3594Z" fill="#FC6078"/>
<path d="M23.2453 65.2177L42.1352 77.5228C43.402 78.5611 45.0256 78.9291 46.5973 78.7733C48.1689 78.6175 49.6783 77.833 50.7269 76.6709C52.6147 74.3676 52.6918 69.8102 49.8646 67.9744L31.0795 55.6589C29.8126 54.6206 28.189 54.2526 26.6174 54.4084C25.0457 54.5642 23.5364 55.3487 22.4878 56.5108C20.5056 58.9293 20.4181 63.3819 23.2453 65.2177Z" fill="#FC6078"/>
<path d="M71.0087 60.3962C58.2808 46.2103 47.8588 30.7378 36.8817 15.0029C32.3297 8.57679 22.3498 15.7032 26.9122 22.234C37.8789 37.8642 48.3008 53.3367 61.0392 67.6273C66.2727 73.4568 76.3574 66.32 71.0087 60.3962Z" fill="#FC6078"/>
<path d="M109.124 234.346C111.862 234.346 114.599 234.556 116.495 235.82C121.022 238.768 120.18 245.822 119.548 250.981C119.443 252.14 119.338 253.087 119.232 253.93C118.916 258.773 119.548 263.511 121.127 268.039C123.865 274.988 129.024 280.989 135.552 284.885C137.132 285.833 138.5 285.412 139.238 284.99C140.606 284.148 141.554 282.569 141.554 280.989C141.554 279.726 140.922 278.673 139.659 277.936C130.92 272.987 126.813 264.353 127.445 252.35C127.445 251.297 127.55 250.139 127.656 248.981C128.077 242.663 128.498 236.767 124.707 232.24C121.443 228.239 116.495 227.186 110.177 226.765C109.545 226.765 108.914 226.659 108.282 226.659C103.86 226.449 99.3323 226.238 96.0683 220.868C94.2783 217.92 93.436 214.34 92.699 210.866C92.3831 209.497 92.0672 208.233 91.7513 207.075C91.2249 205.285 90.0667 204.653 89.1191 204.443C87.5397 204.022 85.7498 204.548 84.6969 205.706C83.9598 206.443 83.6439 207.286 83.7492 208.233L83.9598 209.076C84.2757 210.234 84.5916 211.392 84.9074 212.656C86.8027 219.71 88.8032 226.975 94.2783 231.187C96.8053 232.977 99.7534 234.135 102.807 234.451C103.86 234.556 105.334 234.556 106.808 234.556C107.65 234.345 108.387 234.346 109.124 234.346Z" fill="#374151"/>
<path d="M247.16 63.2501L246.634 63.566L245.476 64.0924C237.052 68.0935 229.787 71.5681 231.367 81.5707C231.683 83.5712 232.314 85.3612 233.367 87.0458C234.42 88.7305 235.789 90.0993 237.368 91.2575C239.053 92.4157 241.054 93.1527 243.054 93.8897C246.844 95.2585 251.056 96.8379 253.373 101.26C255.162 104.735 255.478 108.525 255.689 112.21C255.9 115.369 256.11 118.212 257.268 120.844C258.953 124.635 261.796 128.004 265.165 130.426C269.061 133.374 273.378 135.48 278.011 136.638C282.643 137.796 287.381 138.112 292.225 137.375C294.857 136.954 294.962 134.953 294.857 133.795C294.541 131.794 292.751 129.162 289.593 129.583H289.487C285.592 130.004 281.696 129.478 278.011 128.215C274.325 126.951 270.956 124.845 268.113 122.213C264.007 118.107 263.375 112.737 262.849 107.472C262.533 104.103 262.112 100.944 260.953 98.2067C259.901 95.785 258.426 93.6792 256.531 91.8892C254.636 90.0993 252.425 88.7305 250.003 87.7829C249.477 87.5723 248.634 87.3617 247.897 87.0458C244.949 86.2035 241.264 85.0453 240.001 82.3077C238.948 80.0966 239.264 78.412 239.685 77.2538C241.054 73.8845 245.581 72.1998 248.845 71.0416C249.687 70.7257 250.53 70.4099 251.056 70.1993C252.32 69.5675 252.951 68.7252 253.057 67.6723C253.162 66.1982 252.32 64.6189 250.951 63.6713C250.109 63.2501 248.74 62.7236 247.16 63.2501Z" fill="#374151"/>
<path d="M264.005 208.553C260.846 208.553 257.477 208.869 253.897 209.5C236.419 212.448 225.574 218.555 220.73 228.137C219.467 230.664 218.624 233.507 217.782 236.455C216.519 240.877 215.255 245.405 212.307 249.09C207.779 254.881 200.62 256.987 194.197 258.776C192.407 259.303 190.617 259.829 188.932 260.356C179.351 263.62 167.664 270.358 166.716 283.625C166.505 286.784 169.138 287.205 169.98 287.31C171.77 287.416 174.613 286.468 174.823 283.415C175.56 272.359 188.195 268.779 197.461 266.147C199.777 265.515 201.988 264.883 203.673 264.252C213.57 260.461 219.467 254.986 222.731 246.668C223.468 244.878 223.994 242.983 224.626 240.877C225.784 236.981 226.942 232.875 229.469 229.4C233.576 223.82 239.788 221.504 246.316 219.503C257.477 216.239 271.586 213.607 280.851 222.346C282.22 223.715 283.694 223.609 284.537 223.293C286.116 222.872 287.379 221.504 287.695 220.029C288.011 218.766 287.59 217.713 286.537 216.66C280.851 211.29 273.376 208.553 264.005 208.553Z" fill="#374151"/>
<path d="M68.1675 211.82C66.904 211.82 65.5352 212.346 64.6929 213.188C63.8505 214.031 63.7452 215.189 64.1664 216.558C70.3786 235.51 82.3817 252.462 98.8071 265.518C114.917 278.258 134.08 286.366 154.295 289.103C159.455 289.84 164.719 290.156 170.089 290.156C205.467 290.156 242.634 275.205 268.22 249.83C293.385 224.876 304.651 186.129 298.228 146.223C291.595 104.844 267.904 70.3087 234.948 53.8833C211.889 42.4066 185.777 37.0368 161.245 38.6162C133.764 40.4061 110.81 50.9352 94.9113 69.0452C93.5425 70.5193 93.7531 72.0987 94.069 73.0463C94.5955 74.6256 95.9642 75.8891 97.4383 76.205C98.5965 76.4156 99.5441 75.9944 100.492 74.9415C114.074 59.4637 133.237 49.8823 155.98 47.1447C175.564 44.8283 197.675 47.7765 218.312 55.3574C254.006 68.4135 277.907 96.105 287.488 135.378C296.754 173.599 290.963 209.714 271.379 234.457C248.741 263.096 210.521 281.312 171.774 282.049C150.505 282.365 129.026 276.152 111.021 264.36C92.1738 251.935 78.8018 234.773 72.1685 214.662C71.5368 212.767 70.2733 212.136 69.2204 211.925C68.7992 211.82 68.4833 211.82 68.1675 211.82Z" fill="#374151"/>
</svg>
