<svg width="300" height="300" viewBox="0 0 300 300" fill="none" xmlns="http://www.w3.org/2000/svg">
<path d="M46.8987 130.541L33.8129 34.8655H63.2558V13.7844L68.163 7.29793L202.292 4.05469H272.628L277.535 12.1628V117.568L259.466 254.349H239.014L226.479 295.253L22.6191 282.058L46.8987 130.541Z" fill="white"/>
<g clip-path="url(#clip0_4369_286882)">
<path d="M68.4241 24.4927C68.4241 21.8582 66.8529 12.95 68.7678 11.0969C70.6826 9.24378 78.5876 10.3601 81.4598 10.3155L113.153 9.75729L171.679 8.73028L235.065 7.63628C244.345 7.48 255.22 5.69389 264.328 7.12278C269.508 5.64923 272.11 7.77025 272.16 13.4412L272.454 17.7055C273.191 22.595 273.019 27.7747 273.24 32.7088C276.456 106.026 270.435 179.436 255.294 251.508C254.361 255.973 261.824 257.826 262.659 253.361C271.577 210.919 277.408 167.989 280.114 124.85C281.423 103.446 281.947 82.013 281.685 60.5499C281.57 50.5476 281.267 40.5454 280.776 30.5432C280.457 23.4211 282.397 11.2308 278.567 4.7785C275.621 -0.602161 270.515 0.0676295 264.328 0.0676295C252.962 0.0676295 241.571 0.469506 230.205 0.670444L157.047 1.94305L83.8902 3.21565C78.293 3.21565 67.4176 1.27326 62.7777 5.44829C58.1379 9.62333 60.6419 19.5139 60.691 24.5374C60.7686 25.4216 61.2096 26.2468 61.9261 26.8486C62.6427 27.4504 63.5822 27.7845 64.5576 27.7845C65.5329 27.7845 66.4725 27.4504 67.189 26.8486C67.9056 26.2468 68.3466 25.4216 68.4241 24.5374V24.4927Z" fill="#374151"/>
<path d="M30.2747 34.8299C50.2825 116.589 34.6691 200.38 18.5892 281.492C18.3968 282.233 18.4714 283.011 18.802 283.71C19.1326 284.409 19.7017 284.994 20.4253 285.376C21.1488 285.759 21.9886 285.92 22.8205 285.836C23.6525 285.752 24.4326 285.426 25.0457 284.908L25.414 284.573L18.9575 281.157C13.3602 294.017 33.6871 293.347 41.6902 293.414C64.3247 293.638 86.9511 294.084 109.569 294.754C148.21 295.87 186.826 297.478 225.393 300.001C226.238 300 227.059 299.75 227.733 299.286C228.406 298.823 228.895 298.172 229.125 297.433C253.085 220.318 258.437 140.054 258.019 60.3489C258.019 55.2809 260.474 41.7734 257.283 37.1965C254.558 33.267 247.807 34.9638 243.658 34.9638C220.909 34.7406 198.152 34.4429 175.386 34.0708C128.251 33.267 81.1247 32.0837 34.0062 30.5209C29.0964 30.3423 29.0964 37.3751 34.0062 37.5537C76.2639 38.9379 118.513 40.0319 160.755 40.8357C181.9 41.2375 203.037 41.5576 224.166 41.7957L238.895 41.9297C245.131 41.9297 248.175 40.5231 250.262 45.4572C251.858 49.2081 250.262 56.3748 250.385 60.4159V73.2536C250.115 148.159 244.247 223.309 221.76 295.692L225.492 293.102C195.811 291.159 166.057 289.797 136.328 288.637C118.554 287.996 100.781 287.476 83.0068 287.074C74.12 286.895 65.2331 286.739 56.3462 286.605C53.5967 286.605 24.8984 286.783 26.5187 283.077C28.1389 279.371 22.5908 277.295 20.0376 279.661L19.6939 279.996L26.1504 283.412C42.4758 201.005 58.0646 115.964 37.8359 32.9991C36.7558 28.5338 29.2928 30.4539 30.4711 34.8745L30.2747 34.8299Z" fill="#374151"/>
<path d="M184.984 220.964C187.758 215.695 178.65 210.917 173.151 209.086C168.413 207.644 163.404 207.082 158.422 207.434C156.251 207.368 154.11 207.906 152.284 208.975C150.753 210.202 149.738 211.875 149.412 213.708C148.946 215.494 148.823 217.347 148.258 219.111C146.684 222.814 144.286 226.181 141.213 229.001C138.136 231.84 136.015 235.419 135.1 239.316C134.885 240.973 135.092 242.652 135.705 244.223C136.318 245.795 137.321 247.218 138.635 248.381C139.968 249.53 141.583 250.374 143.346 250.844C145.109 251.313 146.969 251.395 148.774 251.082C152.137 250.457 155.107 248.425 158.594 248.135C161.3 248.182 163.99 248.542 166.597 249.207C170.111 249.734 173.716 249.419 177.055 248.291C178.834 247.794 180.402 246.812 181.547 245.478C182.545 243.892 183.022 242.079 182.922 240.254C183.045 233.824 181.842 226.97 184.984 220.964Z" fill="#FC6078"/>
<path d="M188.717 221.903C192.4 209.177 171.655 203.886 161.418 203.863C153.906 203.863 147.867 205.694 145.682 212.794C143.819 218.665 140.671 224.132 136.427 228.869C133.767 231.759 132.004 235.243 131.321 238.96C130.922 241.921 131.559 244.921 133.141 247.534C134.723 250.147 137.17 252.24 140.134 253.517C148.211 256.933 155.895 251.82 164.168 252.468C170.968 252.981 179.879 253.584 184.495 247.712C189.871 240.903 185.452 229.851 188.717 222.015C190.485 217.773 183.022 215.942 181.352 220.139C179.959 223.475 179.187 226.999 179.069 230.566C179.278 232.899 179.278 235.243 179.069 237.576V240.367L170.06 245.949C166.402 246.708 161.492 244.274 157.49 244.743C155.747 244.966 154.274 245.725 152.58 246.083C145.216 247.69 143.178 249.097 141.681 241.215C140.478 234.808 141.091 234.875 144.97 230.342C146.198 228.936 147.425 227.641 148.653 226.123C151.107 222.818 151.107 219.425 152.85 215.987C155.845 210.025 162.94 210.204 169.249 211.678C172.637 212.459 182.531 215.54 181.23 220.028C179.928 224.515 187.441 226.279 188.717 221.903Z" fill="#FC6078"/>
<path d="M217.342 244.63C201.409 245.836 190.558 260.906 188.889 274.391C188.324 278.856 196.057 278.856 196.622 274.391C197.776 265.059 206.147 252.511 217.342 251.663C222.251 251.283 222.251 244.251 217.342 244.63Z" fill="#166CFF"/>
<path d="M192.816 271.399L77.2371 268.318C72.3272 268.184 72.3272 275.217 77.2371 275.351L192.816 278.432C197.725 278.566 197.725 271.533 192.816 271.399Z" fill="#166CFF"/>
<path d="M45.1771 237.353C59.9067 244.497 70.242 256.509 69.4564 272.271C69.2109 276.737 76.8212 276.737 77.1895 272.271C78.0978 254.232 66.1668 239.518 49.0804 231.28C44.6861 229.159 40.7827 235.209 45.1771 237.353Z" fill="#166CFF"/>
<path d="M61.4515 109.021C62.5866 143.726 60.0215 178.45 53.792 212.705C52.9819 217.17 60.4204 219.045 61.1569 214.58C67.5818 179.713 70.2703 144.361 69.1845 109.021C69.0372 104.556 61.3042 104.556 61.4515 109.021Z" fill="#166CFF"/>
<path d="M224.264 115.918C224.631 151.147 220.962 186.315 213.315 220.853C212.333 225.318 219.796 227.171 220.68 222.728C228.473 187.596 232.233 151.824 231.899 115.985C231.822 115.101 231.381 114.276 230.664 113.674C229.948 113.072 229.008 112.738 228.033 112.738C227.057 112.738 226.118 113.072 225.401 113.674C224.685 114.276 224.244 115.101 224.166 115.985L224.264 115.918Z" fill="#166CFF"/>
<path d="M62.4103 81.6918C79.2267 81.8257 89.0464 68.6308 94.9383 55.8824C96.8777 51.7744 90.2248 48.1798 88.2608 52.3325C83.351 62.4687 76.3789 74.659 62.4103 74.659C61.4381 74.7295 60.5307 75.1305 59.869 75.7822C59.2073 76.4339 58.8398 77.2883 58.8398 78.1754C58.8398 79.0624 59.2073 79.9169 59.869 80.5685C60.5307 81.2202 61.4381 81.6213 62.4103 81.6918Z" fill="#166CFF"/>
<path d="M204.624 54.3656C208.576 69.6146 217.488 84.6849 235.335 88.8376C240.245 89.9763 242.234 83.189 237.397 82.1397C222.201 78.5898 215.303 65.3725 212.087 52.5572C210.933 48.0919 203.495 50.0343 204.722 54.4326L204.624 54.3656Z" fill="#166CFF"/>
<path d="M208.208 49.6544C169.176 47.4143 130.03 47.3174 90.9851 49.3641C86.0753 49.6097 86.0753 56.6425 90.9851 56.3969C130.03 54.3502 169.176 54.4472 208.208 56.6872C213.118 56.9551 213.118 49.9893 208.208 49.6544Z" fill="#166CFF"/>
<path d="M160.239 141.996L91.0099 142.286C90.0377 142.357 89.1303 142.758 88.4686 143.41C87.8069 144.061 87.4395 144.916 87.4395 145.803C87.4395 146.69 87.8069 147.544 88.4686 148.196C89.1303 148.848 90.0377 149.249 91.0099 149.319L160.239 149.029C161.211 148.958 162.119 148.557 162.781 147.906C163.442 147.254 163.81 146.4 163.81 145.512C163.81 144.625 163.442 143.771 162.781 143.119C162.119 142.468 161.211 142.067 160.239 141.996Z" fill="#374151"/>
<path d="M201.015 168.453H85.633C84.6607 168.524 83.7533 168.925 83.0916 169.576C82.4299 170.228 82.0625 171.083 82.0625 171.97C82.0625 172.857 82.4299 173.711 83.0916 174.363C83.7533 175.014 84.6607 175.415 85.633 175.486H201.015C201.987 175.415 202.895 175.014 203.556 174.363C204.218 173.711 204.586 172.857 204.586 171.97C204.586 171.083 204.218 170.228 203.556 169.576C202.895 168.925 201.987 168.524 201.015 168.453Z" fill="#374151"/>
</g>
<path fill-rule="evenodd" clip-rule="evenodd" d="M105.846 85.7273L102.341 85.8074C99.2039 85.8781 99.3315 81.0736 102.453 81.0026L107.906 80.878C108.224 80.8152 108.555 80.8079 108.875 80.8558L113.488 80.7504C116.625 80.6766 116.494 85.4841 113.376 85.5552L110.71 85.6161C110.238 94.9554 109.666 104.29 108.993 113.619C113.826 113.305 118.663 113.463 123.504 113.621C123.676 113.626 123.848 113.632 124.02 113.637C124.019 112.503 124.003 111.371 123.974 110.241C123.889 107.144 128.75 107.27 128.833 110.349C128.894 112.392 128.901 114.434 128.853 116.476C128.812 118.513 126.689 119.159 125.263 118.483C124.753 118.466 124.243 118.449 123.734 118.432C118.276 118.248 112.824 118.065 107.376 118.536C105.887 119.194 103.775 118.465 103.928 116.407C104.686 106.186 105.326 95.9598 105.846 85.7273Z" fill="#374151"/>
<path fill-rule="evenodd" clip-rule="evenodd" d="M140.661 86.5163L137.155 86.5965C134.018 86.6671 134.146 81.8627 137.267 81.7917L142.722 81.667C143.039 81.6046 143.369 81.5974 143.687 81.6449L148.303 81.5394C151.439 81.4657 151.308 86.2731 148.19 86.3442L145.525 86.4052C145.053 95.7443 144.48 105.078 143.807 114.407C148.641 114.093 153.477 114.251 158.319 114.409C158.491 114.415 158.662 114.42 158.834 114.426C158.833 113.291 158.818 112.16 158.788 111.031C158.703 107.933 163.565 108.06 163.647 111.139C163.709 113.181 163.715 115.223 163.668 117.266C163.626 119.303 161.501 119.949 160.075 119.271C159.566 119.254 159.057 119.237 158.548 119.22C153.091 119.037 147.64 118.853 142.193 119.324C140.704 119.984 138.589 119.256 138.742 117.196C139.501 106.976 140.14 96.749 140.661 86.5163Z" fill="#374151"/>
<path d="M197.45 84.6523C193.204 79.7787 186.065 79.8189 180.633 82.5122C177.81 83.9522 175.257 85.8656 173.084 88.1689C170.693 90.6807 169.688 93.7088 169.441 97.1233C168.967 103.666 170.379 110.611 174.401 115.901C177.943 120.557 183.803 123.435 189.666 121.935C191.243 121.556 192.718 120.843 193.993 119.843C195.268 118.844 196.312 117.582 197.053 116.144C198.682 112.876 198.818 109.203 198.803 105.624C198.788 102.536 193.983 102.415 193.989 105.515C194.008 109.619 194.043 115.002 189.604 116.918C185.641 118.632 181.427 116.666 178.756 113.65C175.584 110.066 174.332 105.074 174.198 100.394C174.126 97.9338 174.099 95.1051 175.409 92.9258C176.573 90.9965 178.72 89.3701 180.571 88.1274C184.526 85.4709 190.37 83.8548 193.97 87.9815C196.008 90.3187 199.497 86.9927 197.449 84.6645L197.45 84.6523Z" fill="#374151"/>
<defs>
<clipPath id="clip0_4369_286882">
<rect width="263.857" height="300" fill="white" transform="translate(18)"/>
</clipPath>
</defs>
</svg>
