<svg width="300" height="300" viewBox="0 0 300 300" fill="none" xmlns="http://www.w3.org/2000/svg">
<path d="M10.9228 15.5449L232.841 16.5721L233.621 18.7496C235.554 82.7388 235.361 146.738 233.042 210.748L233.256 210.935C217.994 223.664 202.121 235.207 185.811 247.068C126.102 243.406 69.9797 246.112 10.098 245.768L10.4976 244.898L8.25977 17.327" fill="white"/>
<path d="M10.1664 17.0051L97.9174 17.4008L185.668 17.799L235.266 18.025L232.847 16.5376L233.434 18.1817C233.794 19.1939 233.599 20.4014 233.631 21.5061C233.727 24.7516 233.816 27.9954 233.899 31.2375C234.065 37.8107 234.21 44.384 234.336 50.9572C234.58 64.0198 234.737 77.0824 234.807 90.145C234.948 116.359 234.735 142.571 234.17 168.78C234.011 176.035 233.825 183.291 233.612 190.547C233.504 194.218 233.389 197.888 233.268 201.558C233.209 203.442 233.145 205.32 233.077 207.192C233.023 208.782 232.494 210.614 233.915 211.883V209.026C218.824 221.64 202.723 233.432 186.618 245.175L188.39 244.584C165.156 243.161 141.858 242.693 118.557 242.644C95.3422 242.596 72.1304 242.955 48.9186 243.158C35.7303 243.279 22.542 243.348 9.35369 243.274L11.7759 245.843C12.3082 244.676 12.254 243.639 12.2412 242.385L12.187 236.733L12.0659 225.468L11.846 202.907L11.403 157.782L10.517 67.5299L10.0198 16.7662C9.99431 14.1638 4.9746 14.1561 5.0001 16.7662L5.87975 106.502L6.76256 196.497L7.00798 221.622L7.13228 234.185L7.19284 240.35C7.19284 241.817 7.54022 243.433 6.92511 244.782C6.34824 246.043 7.83026 247.335 9.34414 247.351C41.7412 247.533 74.1287 246.837 106.523 246.721C122.653 246.67 138.789 246.768 154.909 247.202C163.02 247.419 171.127 247.732 179.23 248.139C181.124 248.234 183.017 248.336 184.91 248.445C185.866 248.499 186.822 248.597 187.75 248.615C189.203 248.64 189.773 248.34 190.841 247.561C193.79 245.409 196.736 243.254 199.679 241.098C212.577 231.634 225.342 222.036 237.456 211.911C237.912 211.526 238.167 211.013 238.167 210.48C238.167 209.947 237.912 209.435 237.456 209.049L237.242 208.862L237.979 210.293C238.911 184.346 239.5 158.399 239.744 132.452C239.989 106.505 239.882 80.5489 239.426 54.5847C239.294 47.2424 239.137 39.901 238.954 32.5605C238.862 28.9742 238.766 25.3887 238.664 21.804C238.622 20.3782 238.794 18.8137 238.374 17.4239C238.179 16.7791 237.918 16.1394 237.692 15.5048C237.537 15.0814 237.219 14.7088 236.783 14.4417C236.347 14.1745 235.817 14.0267 235.27 14.0199L147.519 13.6217L59.7708 13.2235L10.1696 13C6.94104 12.9846 6.93786 17.0308 10.1696 17.0462L10.1664 17.0051Z" fill="#374151"/>
<path d="M188.443 246.053C203.958 233.652 220.168 222.852 235.683 210.451C235.683 210.451 205.485 211.993 190.547 210.885L190.365 211.235L188.453 246.053" fill="white"/>
<path d="M190.216 247.484C205.543 235.255 222.129 224.106 237.456 211.882C238.928 210.706 237.895 208.317 235.68 208.43C224.526 208.995 213.326 209.334 202.152 209.252C198.28 209.223 194.404 209.141 190.544 208.861C189.352 208.776 188.527 209.568 188.125 210.346C187.59 211.374 187.775 212.692 187.714 213.796L187.459 218.403L186.949 227.62L185.933 246.053C185.789 248.658 190.809 248.65 190.952 246.053L191.94 228.131L192.422 219.428L192.677 214.819C192.731 213.791 192.482 212.355 192.967 211.423L190.544 212.907C204.189 213.891 218.113 213.239 231.77 212.651C233.072 212.597 234.376 212.538 235.68 212.473L233.905 209.018C218.578 221.246 201.993 232.396 186.666 244.619C184.368 246.456 187.918 249.316 190.216 247.481V247.484Z" fill="#374151"/>
<path fill-rule="evenodd" clip-rule="evenodd" d="M46.1893 73.6722L41.9647 73.8642C38.1743 74.0352 38.193 68.1793 41.9647 68.0083L48.5387 67.7095C48.9284 67.6221 49.3349 67.604 49.7287 67.6555L55.3 67.4023C59.0904 67.2275 59.068 73.0871 55.3 73.2582L52.0787 73.4046C51.7709 84.8067 51.3409 96.2053 50.7886 107.6C56.6195 107.087 62.467 107.147 68.3206 107.208C68.528 107.21 68.7354 107.212 68.9428 107.214C68.9096 105.829 68.8591 104.447 68.7913 103.069C68.6008 99.2954 74.4861 99.3177 74.6728 103.069C74.8048 105.558 74.8708 108.048 74.8708 110.539C74.8781 113.021 72.3312 113.867 70.587 113.084C69.9689 113.078 69.3508 113.071 68.7327 113.064C62.1359 112.989 55.5464 112.914 48.9794 113.635C47.1938 114.486 44.6043 113.656 44.7317 111.137C45.3622 98.653 45.8481 86.1647 46.1893 73.6722Z" fill="#FC6078"/>
<path d="M97.1674 65.9343C89.1273 70.0688 82.8088 77.832 80.9752 86.7553C79.9259 91.8453 80.5159 97.0654 81.9872 101.999C83.3204 106.461 85.5461 110.837 89.4559 113.607C92.9401 116.087 97.369 116.838 101.548 116.18C106.051 115.473 109.636 112.8 112.217 109.149C117.744 101.341 119.398 90.8489 117.445 81.5984C116.377 76.5567 113.953 71.5894 109.726 68.4589C105.499 65.3283 99.9494 64.6851 95.274 67.0497C91.9131 68.7563 94.8707 73.8128 98.2428 72.1062C101.04 70.6897 104.52 71.6452 106.832 73.5935C109.427 75.802 110.809 79.0664 111.597 82.3011C113.338 89.7066 112.223 97.4931 108.471 104.118C106.854 106.952 104.789 109.324 101.529 110.216C100.113 110.601 98.632 110.69 97.1795 110.478C95.7271 110.265 94.3345 109.756 93.0894 108.982C90.2476 107.175 88.7315 103.821 87.7867 100.728C86.6253 96.9464 85.9195 92.8714 86.5618 88.9266C87.8651 81.1448 93.2276 74.5602 100.17 70.9834C103.531 69.2545 100.562 64.198 97.2047 65.9306L97.1674 65.9343Z" fill="#FC6078"/>
<path fill-rule="evenodd" clip-rule="evenodd" d="M156.856 65.9565V66.2558C151.834 63.9739 145.653 64.7486 140.702 67.3396C137.295 69.1721 134.231 71.5743 131.642 74.441C128.793 77.5679 127.65 81.2859 127.445 85.4538C127.049 93.4402 128.968 101.865 134.028 108.201C138.483 113.778 145.721 117.124 152.838 115.135C154.752 114.63 156.534 113.72 158.063 112.466C159.591 111.213 160.831 109.647 161.696 107.874C163.399 104.259 163.624 100.28 163.566 96.349L165.156 96.2546C168.92 96.0315 168.943 90.172 165.156 90.3988L152.127 91.1721C148.363 91.3952 148.341 97.2547 152.127 97.0279L157.696 96.6974C157.77 101.394 157.4 106.834 152.622 109.022C147.831 111.22 142.629 108.941 139.283 105.338C135.309 101.058 133.64 95.0092 133.345 89.3095C133.188 86.3127 133.076 82.8661 134.615 80.1742C135.981 77.791 138.558 75.7498 140.784 74.1845C145.439 70.9077 152.336 68.7968 156.856 73.34V81.5239C156.856 85.2939 162.738 85.2977 162.738 81.5239V65.9565C162.738 62.1901 156.856 62.1827 156.856 65.9565Z" fill="#FC6078"/>
<path d="M189.75 66.1048C181.713 70.243 175.395 78.0025 173.561 86.9258C172.512 92.0121 173.102 97.2359 174.573 102.17C175.906 106.631 178.132 111.008 182.042 113.777C185.526 116.254 189.955 117.005 194.134 116.35C198.637 115.644 202.222 112.967 204.803 109.316C210.329 101.508 211.984 91.0194 210.031 81.7689C208.963 76.7235 206.539 71.7562 202.312 68.6256C198.085 65.4951 192.535 64.8518 187.86 67.2165C184.499 68.9268 187.457 73.9796 190.829 72.273C193.626 70.8602 197.106 71.8157 199.418 73.7602C202.032 75.9725 203.395 79.2369 204.183 82.4716C205.924 89.8759 204.808 97.6612 201.057 104.285C199.44 107.118 197.375 109.491 194.115 110.383C192.699 110.769 191.218 110.859 189.765 110.646C188.313 110.434 186.92 109.924 185.675 109.148C182.834 107.345 181.317 103.992 180.373 100.898C179.211 97.1132 178.505 93.0383 179.148 89.0934C180.451 81.3116 185.814 74.7269 192.756 71.1539C196.117 69.4213 193.129 64.3685 189.768 66.0974L189.75 66.1048Z" fill="#FC6078"/>
<path d="M171.308 278.365C174.422 281.406 178.225 283.641 182.389 284.879C184.083 285.4 185.839 285.691 187.61 285.746C191.455 285.814 195.217 284.46 198.531 282.505C201.845 280.549 204.771 278 207.676 275.471L213.657 270.259C238.691 241.957 266.518 214.251 292.931 187.24C280.267 175.505 265.756 162.33 253.091 150.582L252.468 150.924L175.69 233.551C171.962 237.56 168.178 241.652 165.796 246.589C160.485 257.584 163.622 272.029 173.007 279.815" fill="white"/>
<path d="M169.837 279.841C173.333 283.239 177.618 285.707 182.303 287.023C187.53 288.454 192.696 287.749 197.543 285.401C202.316 283.09 206.3 279.425 210.268 275.97C212.329 274.176 214.49 272.466 216.292 270.421C218.094 268.375 219.986 266.289 221.832 264.236C236.871 247.602 252.462 231.484 268.147 215.476C276.888 206.55 285.639 197.629 294.4 188.71C295.162 187.931 295.234 186.529 294.4 185.758C281.155 173.499 267.797 161.362 254.56 149.101C254.229 148.785 253.807 148.583 253.354 148.524C252.901 148.465 252.442 148.553 252.042 148.775C251.311 149.207 250.656 149.758 250.106 150.407L246.697 154.078L240.597 160.642L227.861 174.347L202.746 201.377L177.451 228.598C173.673 232.663 169.708 236.641 166.539 241.223C163.79 245.133 162.024 249.654 161.394 254.399C160.122 264.286 163.882 274.844 171.539 281.286C173.575 283 176.53 280.064 174.478 278.336C168.119 272.983 164.845 264.713 165.351 256.434C165.969 246.345 173.193 239.294 179.673 232.319L228.107 180.193L241.742 165.523L248.38 158.368L251.787 154.7C252.536 153.905 253.206 152.885 254.14 152.368L251.623 152.042C264.868 164.304 278.226 176.438 291.463 188.7L291.463 185.748C276.424 201.134 261.253 216.406 246.346 231.924C238.821 239.759 231.376 247.672 224.009 255.663C220.428 259.564 216.878 263.494 213.36 267.453C211.595 269.438 209.521 271.096 207.522 272.84C205.58 274.533 203.656 276.256 201.625 277.843C197.353 281.185 192.242 284.034 186.654 283.597C181.488 283.191 176.467 280.416 172.781 276.873C170.85 275.018 167.905 277.963 169.842 279.826L169.837 279.841Z" fill="#374151"/>
<path d="M182.313 251.868C180.263 253.277 178.847 255.439 178.369 257.888C177.89 260.336 178.389 262.876 179.757 264.959C180.264 265.764 180.933 266.454 181.72 266.986C182.949 267.781 184.442 268.046 185.902 268.155C189.049 268.42 192.632 267.868 194.519 265.324C195.508 263.999 195.875 262.295 196.044 260.642C196.284 258.299 196.099 255.713 194.545 253.951C192.764 251.931 189.796 251.616 187.113 251.438" fill="white"/>
<path d="M181.262 250.065C177.803 252.559 175.703 256.581 176.196 260.914C176.724 265.456 179.626 269.325 184.252 270.046C188.027 270.631 192.486 270.311 195.37 267.499C198.206 264.725 198.847 259.467 197.795 255.762C196.388 250.804 191.639 249.667 187.112 249.349C184.442 249.164 184.452 253.34 187.112 253.523C188.695 253.634 190.433 253.735 191.877 254.49C193.32 255.246 193.916 256.679 194.03 258.256C194.143 259.833 194.006 261.72 193.354 263.209C192.702 264.698 191.428 265.445 189.945 265.822C188.369 266.19 186.736 266.246 185.138 265.989C183.273 265.724 181.985 264.831 181.107 263.156C180.297 261.564 180.079 259.734 180.492 257.995C180.905 256.256 181.922 254.722 183.36 253.669C184.27 253.012 184.711 251.851 184.107 250.812C183.579 249.911 182.178 249.402 181.262 250.065Z" fill="#374151"/>
<path d="M217.702 254.547L246.01 223.971L246.01 223.598L219.684 197.593L219.301 197.643C209.047 207.713 199.14 218.127 189.582 228.884L217.702 254.547Z" fill="white"/>
<path d="M219.17 256.012L236.909 236.853L245.687 227.371C246.797 226.17 248.526 224.883 248.019 223.03C247.755 222.052 246.673 221.308 245.98 220.624L243.341 218.024L224.912 199.821L223.03 197.966C222.321 197.264 221.592 196.289 220.73 195.783C218.843 194.672 217.21 196.766 216.023 197.94C213.02 200.913 210.046 203.917 207.1 206.95C200.621 213.624 194.289 220.44 188.103 227.397C187.382 228.192 187.235 229.554 188.103 230.347L212.751 252.832L216.231 256.012C218.207 257.817 221.154 254.873 219.17 253.06L194.546 230.572L191.066 227.392L191.066 230.342C200.62 219.598 210.527 209.186 220.785 199.103L219.315 199.713L219.698 199.662L218.228 199.05L244.555 225.057L243.945 223.581L243.945 223.955L244.555 222.479L216.244 253.055C214.411 255.037 217.345 257.994 219.17 256.012Z" fill="#374151"/>
<path d="M282.436 186.402C272.566 196.945 262.741 207.517 252.959 218.117L252.695 218.009C243.271 209.144 235.458 201.785 226.047 192.905C235.704 182.228 254.94 160.421 254.94 160.421C263.735 169.299 272.782 177.92 282.082 186.285" fill="white"/>
<path d="M280.967 184.928C271.099 195.461 261.274 206.036 251.49 216.654L253.511 216.124L253.248 216.015L254.166 216.545C245.276 208.182 236.393 199.813 227.518 191.439L227.518 194.391C236.388 184.586 245.14 174.662 253.902 164.751L256.414 161.905L253.477 161.905C262.282 170.782 271.33 179.405 280.619 187.772C282.605 189.56 285.553 186.619 283.558 184.819C274.271 176.456 265.223 167.835 256.414 158.955C255.659 158.192 254.221 158.11 253.477 158.955C246.367 167.015 239.238 175.053 232.087 183.07C229.595 185.867 227.094 188.655 224.584 191.434C223.848 192.25 223.734 193.583 224.584 194.386C229.257 198.792 233.93 203.197 238.602 207.602L245.314 213.922L248.971 217.367C250.045 218.377 251.037 219.564 252.401 220.141C253.042 220.406 253.984 220.094 254.424 219.611C264.206 208.996 274.031 198.419 283.901 187.883C285.732 185.927 282.801 182.97 280.962 184.933L280.967 184.928Z" fill="#374151"/>
<path d="M181.354 285.602C185.647 286.273 190.038 285.885 194.148 284.473C195.828 283.914 197.425 283.132 198.897 282.146C202.064 279.971 204.364 276.679 205.939 273.158C207.515 269.636 208.435 265.859 209.346 262.107L211.224 254.38C215.337 216.75 222.076 177.977 228.06 140.599C210.963 138.394 191.536 136.062 174.442 133.855L174.133 134.496L159.094 246.506C158.366 251.942 157.638 257.477 158.535 262.889C160.537 274.944 171.423 284.91 183.558 285.798" fill="white"/>
<path d="M180.81 287.616C186.087 288.392 191.425 287.913 196.361 285.848C200.873 283.962 204.334 280.599 206.696 276.327C209.202 271.79 210.39 266.694 211.601 261.696C212.244 259.046 213.099 256.343 213.4 253.622C213.706 250.829 214.026 248.037 214.36 245.248C217.028 222.914 220.466 200.68 224.036 178.468C226.036 166.013 228.086 153.589 230.078 141.145C230.312 139.68 229.513 138.688 228.075 138.495C210.208 136.19 192.322 134.054 174.457 131.751C173.797 131.666 172.945 132.199 172.663 132.784C171.631 134.92 171.65 137.605 171.343 139.939L170.117 149.098L167.658 167.417L162.769 203.807L157.89 240.186C156.45 250.921 154.167 262.147 159.634 272.151C164.452 280.959 173.597 287.07 183.583 287.878C186.248 288.093 186.222 283.919 183.583 283.705C175.576 283.055 168.175 278.14 163.972 271.329C161.651 267.557 160.365 263.235 160.244 258.803C160.046 253.121 161.072 247.431 161.827 241.819L171.167 172.206L173.763 152.839L175.098 142.894L175.731 138.182C175.876 137.083 175.805 135.824 176.259 134.902L174.465 135.935C192.33 138.238 210.215 140.374 228.083 142.679L226.078 140.029C222.648 161.439 219.06 182.824 215.822 204.265C214.2 215.016 212.656 225.783 211.287 236.572C210.602 241.905 209.961 247.245 209.363 252.591C209.081 255.127 208.308 257.613 207.717 260.088C207.126 262.563 206.522 265.123 205.775 267.611C204.342 272.381 202.105 277.416 197.86 280.331C193.34 283.434 187.256 284.367 181.91 283.577C180.802 283.413 179.678 283.842 179.354 285.035C179.09 286.018 179.689 287.436 180.805 287.603L180.81 287.616Z" fill="#374151"/>
<path d="M175.075 257.602C174.214 259.943 174.304 262.53 175.324 264.805C176.345 267.079 178.215 268.86 180.531 269.763C181.409 270.125 182.352 270.3 183.301 270.277C184.763 270.214 186.13 269.554 187.386 268.801C190.098 267.177 192.71 264.657 192.784 261.485C192.821 259.823 192.143 258.225 191.33 256.778C190.177 254.73 188.536 252.726 186.254 252.194C183.639 251.579 181.032 253.05 178.742 254.462" fill="white"/>
<path d="M173.073 257.039C172.411 258.989 172.27 261.078 172.663 263.099C173.056 265.121 173.97 267.003 175.313 268.559C178.03 271.72 182.45 273.26 186.378 271.633C189.872 270.189 193.455 267.332 194.557 263.564C195.689 259.663 193.452 255.139 190.692 252.434C189.048 250.82 186.851 249.813 184.523 249.975C182.028 250.144 179.795 251.368 177.703 252.651C175.424 254.048 177.508 257.66 179.801 256.255C181.334 255.314 183.091 254.135 184.956 254.135C186.518 254.135 187.734 255.179 188.624 256.38C189.597 257.689 190.576 259.374 190.705 261.03C190.835 262.644 189.914 264.049 188.806 265.133C187.623 266.31 186.217 267.237 184.671 267.859C182.983 268.501 181.336 268.045 179.872 267.064C176.906 265.095 175.967 261.436 177.088 258.147C177.954 255.601 173.943 254.506 173.081 257.037L173.073 257.039Z" fill="#374151"/>
<path d="M205.485 239.217L210.96 197.826L210.752 197.519L174.299 191.617L174.014 191.882C171.451 206.055 169.37 220.305 167.771 234.632L205.485 239.217Z" fill="white"/>
<path d="M207.56 239.216L210.958 213.542L212.621 200.971C212.837 199.341 213.528 197.359 212.217 196.042C211.475 195.294 210.193 195.326 209.217 195.167L205.573 194.576L180.577 190.522L177.453 190.016C176.44 189.851 175.321 189.517 174.287 189.517C171.991 189.517 171.833 192.226 171.54 193.877C170.817 197.979 170.133 202.087 169.488 206.202C168.01 215.645 166.741 225.118 165.68 234.621C165.546 235.834 166.751 236.584 167.759 236.706L200.803 240.734L205.473 241.304C206.589 241.439 207.55 240.244 207.55 239.216C207.55 237.976 206.592 237.265 205.473 237.13L172.429 233.102L167.759 232.532L169.836 234.621C171.419 220.487 173.476 206.422 176.007 192.425L175.479 193.344L175.762 193.079L173.741 193.609L210.193 199.521L208.953 198.562L209.162 198.872L208.879 197.812L203.402 239.202C203.254 240.321 204.457 241.291 205.481 241.291C206.729 241.304 207.412 240.339 207.56 239.216Z" fill="#374151"/>
<path d="M219.028 146.017C217.049 160.345 215.128 174.681 213.263 189.024L212.999 189.088C200.206 187.334 189.594 185.871 176.803 184.095C178.528 169.785 181.655 140.81 181.655 140.81C193.948 142.93 206.294 144.705 218.693 146.134" fill="white"/>
<path d="M217.025 145.463C215.02 159.975 213.074 174.495 211.186 189.024L212.711 187.013L212.447 187.074L213.542 187.074C201.476 185.42 189.411 183.757 177.348 182.084L178.873 184.095C180.457 170.941 181.881 157.765 183.314 144.592L183.726 140.81L181.087 142.824C193.562 144.978 206.092 146.777 218.677 148.222C219.793 148.349 220.753 147.162 220.753 146.134C220.753 144.899 219.796 144.178 218.677 144.048C206.47 142.644 194.307 140.894 182.19 138.799C180.757 138.552 179.715 139.374 179.552 140.81C178.396 151.516 177.212 162.218 176 172.915C175.576 176.643 175.143 180.369 174.699 184.095C174.602 184.89 175.407 185.995 176.224 186.109C182.573 186.993 188.921 187.871 195.269 188.743C198.308 189.162 201.347 189.58 204.384 189.997C206.04 190.225 207.694 190.452 209.347 190.678C210.764 190.871 212.392 191.354 213.798 191.038C214.775 190.818 215.207 189.917 215.323 189.024C217.163 174.864 219.06 160.713 221.014 146.571C221.167 145.458 220.751 144.332 219.563 144.006C218.592 143.741 217.162 144.34 217.007 145.463L217.025 145.463Z" fill="#374151"/>
<path d="M155.521 250.977C165.811 244.015 177.281 237.499 188.206 231.605L155.521 250.977Z" fill="#FC6078"/>
<path d="M156.569 252.783C167.072 245.687 178.111 239.427 189.253 233.412C191.609 232.14 189.517 228.536 187.143 229.808C176.001 235.823 164.961 242.083 154.458 249.179C152.252 250.671 154.328 254.288 156.569 252.783Z" fill="#FC6078"/>
<path d="M197.711 282.461C201.49 280.308 204.691 277.266 207.041 273.597C208.012 272.109 208.782 270.498 209.328 268.805C210.474 265.119 210.231 261.12 209.289 257.368C208.347 253.616 206.732 250.091 205.128 246.582L201.819 239.356C181.767 207.291 163.082 172.706 144.661 139.676C129.885 148.609 113.229 158.902 98.4668 167.835L98.6198 168.529L156.103 265.692C158.892 270.409 161.744 275.203 165.794 278.883C174.818 287.083 189.511 288.103 199.566 281.231" fill="white"/>
<path d="M198.746 284.264C202.955 281.844 206.499 278.411 209.057 274.273C211.888 269.654 212.637 264.495 211.772 259.168C210.907 253.842 208.498 248.987 206.289 244.161C205.113 241.593 204.034 238.991 202.543 236.593C201.136 234.321 199.729 232.043 198.321 229.758C186.638 210.615 175.602 191.084 164.692 171.49C158.594 160.537 152.506 149.576 146.429 138.609C146.144 138.137 145.688 137.795 145.157 137.656C144.626 137.516 144.062 137.59 143.584 137.861C128.158 147.2 112.82 156.676 97.3908 166.02C97.0029 166.261 96.7014 166.619 96.5302 167.043C96.3589 167.467 96.3267 167.935 96.4383 168.379C96.6497 169.208 96.9994 169.994 97.4726 170.706L99.8894 174.792L104.588 182.742L113.992 198.642L132.806 230.423L151.476 261.98C156.668 270.759 161.639 280.593 171.362 285.035C180.668 289.275 192.026 288.803 200.606 283.039C202.82 281.553 200.741 277.935 198.495 279.435C191.506 284.131 182.522 284.889 174.694 281.945C165.257 278.394 160.576 269.225 155.721 261.01L119.614 199.94L109.541 182.914L104.438 174.288L102.021 170.202C101.462 169.256 100.702 168.347 100.465 167.287L99.5094 169.643C114.936 160.304 130.276 150.828 145.703 141.484L142.861 140.734C153.349 159.549 163.705 178.428 174.351 197.142C179.707 206.551 185.16 215.905 190.709 225.203C193.424 229.729 196.174 234.234 198.96 238.718C200.366 240.978 201.39 243.414 202.498 245.833C203.569 248.173 204.683 250.5 205.625 252.896C207.682 258.127 209.115 264.087 206.872 269.511C204.917 274.241 201.018 278.14 196.654 280.665C194.34 282.009 196.43 285.615 198.765 284.269L198.746 284.264Z" fill="#374151"/>
<path d="M173.438 264.99C174.786 268.84 177.924 271.97 181.981 272.797C186.19 273.65 190.812 272.33 192.992 268.4C194.907 264.94 195.923 260.27 194.197 256.55C192.472 252.829 187.678 250.797 183.81 250.606C178.496 250.341 175.971 254.761 174.37 259.131C173.446 261.656 177.462 262.745 178.377 260.241C178.905 258.784 179.48 257.207 180.538 256.038C181.723 254.729 183.359 254.578 185.005 254.978C186.651 255.378 188.522 256.059 189.712 257.294C190.831 258.455 191.031 260.077 190.881 261.627C190.697 263.344 190.158 265.003 189.298 266.498C188.393 268.027 186.847 268.732 185.116 268.883C183.468 269.019 181.822 268.603 180.434 267.7C179.047 266.798 177.996 265.459 177.446 263.893C176.565 261.375 172.549 262.459 173.438 265.003L173.438 264.99Z" fill="#374151"/>
<path d="M187.923 231.06L166.622 195.205L166.266 195.094L134.04 213.199L133.982 213.583C140.737 226.289 147.917 238.755 155.523 250.982L187.923 231.06Z" fill="#FC6078"/>
<path d="M189.717 230.006L176.506 207.765L169.765 196.42C169.008 195.148 168.398 193.442 166.818 193.081C165.683 192.816 164.776 193.54 163.836 194.067L160.615 195.877L138.056 208.549L135.294 210.102C134.431 210.587 133.273 211.017 132.571 211.721C131.144 213.158 132.407 215.052 133.157 216.446C135.178 220.222 137.238 223.977 139.339 227.712C143.954 235.927 148.751 244.035 153.729 252.036C154.013 252.507 154.468 252.848 154.999 252.987C155.529 253.127 156.093 253.054 156.57 252.783L184.96 235.328L188.973 232.861C191.25 231.461 189.163 227.849 186.875 229.257L158.486 246.712L154.473 249.179L157.317 249.929C149.72 237.707 142.54 225.24 135.777 212.527L135.985 214.136L136.043 213.751L135.088 214.999L167.314 196.895L165.712 197.104L166.069 197.215L164.828 196.256L186.129 232.113C187.498 234.416 191.091 232.32 189.717 230.006Z" fill="#374151"/>
<path d="M140.909 149.563C148.216 162.029 155.574 174.464 162.982 186.87L162.808 187.087C151.698 193.694 142.474 199.169 131.353 205.754C123.849 193.453 108.398 168.802 108.398 168.802C119.348 162.796 130.122 156.486 140.719 149.873" fill="#166CFF"/>
<path d="M139.116 150.619C146.421 163.084 153.778 175.519 161.189 187.923L161.516 185.395C161.191 185.795 160.413 186.086 159.972 186.349C159.316 186.738 158.653 187.144 157.999 187.52C156.713 188.287 155.428 189.051 154.144 189.812L146.242 194.505C140.93 197.655 135.617 200.804 130.303 203.953L133.148 204.703C126.253 193.403 119.225 182.178 112.201 170.968L110.185 167.751L109.439 170.605C120.388 164.598 131.163 158.288 141.762 151.673C144.028 150.261 141.944 146.638 139.651 148.072C129.055 154.683 118.281 160.992 107.328 167.001C106.858 167.286 106.518 167.744 106.379 168.278C106.24 168.811 106.314 169.378 106.584 169.858C112.297 178.965 117.986 188.09 123.652 197.232C125.625 200.412 127.59 203.605 129.546 206.809C129.83 207.28 130.286 207.621 130.816 207.761C131.347 207.9 131.91 207.827 132.388 207.557C137.84 204.329 143.293 201.098 148.746 197.863L156.661 193.164C158.024 192.355 159.387 191.546 160.748 190.737C161.901 190.051 163.6 189.412 164.442 188.352C165.025 187.626 165.278 186.675 164.767 185.821C157.358 173.417 150 160.983 142.693 148.517C141.337 146.204 137.744 148.302 139.105 150.637L139.116 150.619Z" fill="#374151"/>
</svg>
