<svg width="38" height="40" viewBox="0 0 38 40" fill="none" xmlns="http://www.w3.org/2000/svg">
  <g clip-path="url(#clip0_4550_230943)">
    <path d="M28.7653 11.954C27.7228 12.1932 26.7645 12.7109 25.992 13.4522C25.2195 14.1935 24.6618 15.1306 24.3781 16.164C24.1742 17.001 24.1439 17.871 24.289 18.7202C24.4341 19.5694 24.7516 20.3797 25.2218 21.101C26.1805 22.5426 27.6206 23.5945 29.2834 24.0679C31.5777 24.7325 34.3693 24.1361 35.6925 22.1453C36.3201 21.2019 36.5806 20.0685 36.6754 18.9262C36.8382 17.2559 36.6931 15.4549 35.7073 14.0961C34.612 12.5592 32.6375 11.9035 30.7636 11.7404C29.1058 11.6039 27.2112 11.8976 26.2165 13.2238L28.7653 11.954Z" fill="#FC6078"/>
    <path d="M28.641 11.506C27.7162 11.7331 26.8535 12.1636 26.1154 12.7664C25.3773 13.3691 24.7823 14.129 24.3736 14.9908C23.9648 15.8526 23.7527 16.7948 23.7524 17.7491C23.7522 18.7033 23.9639 19.6456 24.3722 20.5077C25.9826 23.979 30.509 25.8481 34.017 24.1481C37.525 22.448 38.2621 16.7842 36.0892 13.7995C34.017 10.9482 28.3272 10.0938 25.8908 12.8886C25.8166 12.9705 25.7734 13.0761 25.769 13.1867C25.7645 13.2973 25.7989 13.4059 25.8663 13.4936C25.9337 13.5813 26.0298 13.6425 26.1376 13.6664C26.2455 13.6903 26.3583 13.6754 26.4563 13.6244L28.9874 12.3575C29.5261 12.0905 29.0554 11.2865 28.5167 11.5505L25.9649 12.8204L26.5303 13.5532C28.5315 11.2568 33.2058 11.9362 35.1005 14.0783C37.3148 16.5795 36.5392 22.0445 33.4071 23.3915C30.5948 24.602 27.0187 23.2847 25.4942 20.656C23.5936 17.3924 25.1981 13.3485 28.8778 12.405C29.4699 12.2567 29.2242 11.3547 28.641 11.506Z" fill="#FC6078"/>
    <path d="M28.1289 5.70822L29.165 9.45248C29.2122 9.55259 29.2932 9.63273 29.3937 9.67871C29.4942 9.72469 29.6076 9.73354 29.714 9.70369C29.8204 9.67383 29.9128 9.60721 29.9749 9.51561C30.0369 9.42402 30.0646 9.31336 30.0531 9.20326L29.017 5.459C28.9698 5.35889 28.8888 5.27875 28.7883 5.23277C28.6878 5.18679 28.5743 5.17794 28.4679 5.20779C28.3615 5.23764 28.2691 5.30427 28.2071 5.39587C28.145 5.48746 28.1173 5.59811 28.1289 5.70822Z" fill="#166CFF"/>
    <path d="M32.9276 10.0337C34.3722 6.94024 35.6669 3.78443 36.8115 0.566314C37.0158 -0.000367347 36.1129 -0.246622 35.9234 0.317093C34.8044 3.46005 33.5414 6.54169 32.1342 9.56201C31.8796 10.105 32.6848 10.5797 32.9365 10.0337H32.9276Z" fill="#166CFF"/>
    <path d="M22.1934 17.92C19.1324 17.8755 16.0714 17.92 13.0163 18.0535C10.4142 18.1722 7.72323 18.2137 5.15365 18.6766C3.27088 19.0237 1.64861 19.9138 1.08614 21.8304C0.360861 24.3019 0.494076 27.2688 0.532561 29.8203C0.559204 32.0633 0.511838 34.6178 1.58052 36.665C2.55743 38.5312 4.41653 39.3352 6.40884 39.6557C9.18268 40.0948 12.0808 39.9969 14.8813 39.9702C17.8732 39.9405 20.8632 39.8099 23.8512 39.5785C26.1839 39.3946 28.6469 39.2462 29.7926 36.8727C30.9382 34.4992 30.5711 31.3424 30.4142 28.7938C30.3787 28.2004 29.4462 28.2004 29.4817 28.7938C29.6357 31.2889 30.2396 35.2617 28.4042 37.3148C27.2852 38.5668 25.3905 38.5223 23.8512 38.6439C22.3118 38.7656 20.7694 38.8546 19.2271 38.9199C16.3319 39.0445 13.4357 39.0741 10.5385 39.0089C7.74099 38.9436 3.88663 39.0801 2.38573 36.1933C1.10095 33.7189 1.40882 30.2594 1.49763 27.5536C1.5746 24.7884 1.2016 20.8365 4.40173 19.8129C7.06603 18.9644 10.2632 19.1127 13.0252 18.9881C16.0832 18.8457 19.1472 18.8101 22.2023 18.8546C22.7943 18.8546 22.7943 17.9289 22.2023 17.92H22.1934Z" fill="black"/>
    <path d="M2.11635 20.8634C6.07728 24.0756 10.1576 27.1295 14.3574 30.0252C14.908 30.405 15.6125 31.1378 16.3467 31.0933C17.143 31.0429 17.9571 30.135 18.5551 29.69C20.5287 28.2006 22.449 26.6331 24.3159 24.9874C24.7659 24.5898 24.1058 23.9282 23.6558 24.3258C21.9921 25.7974 20.279 27.2077 18.5166 28.5566C17.9246 29.0135 16.8115 30.1944 15.9855 30.0104C15.6333 29.9333 14.8961 29.2687 14.5971 29.061C14.1413 28.7465 13.6863 28.429 13.2324 28.1086C9.65633 25.5966 6.17103 22.964 2.7765 20.2107C2.31173 19.8339 1.64861 20.5074 2.11635 20.8693V20.8634Z" fill="black"/>
    <path d="M5.30464 36.6918C7.32754 33.6952 9.45898 30.7827 11.699 27.9542C12.069 27.4854 11.4029 26.8208 11.0388 27.2926C8.74751 30.1824 6.57068 33.1621 4.50831 36.2319C4.17379 36.7333 4.98196 37.2021 5.31352 36.7036L5.30464 36.6918Z" fill="black"/>
    <path d="M19.7274 28.2958C22.0404 30.6516 24.3682 32.9934 26.7109 35.3215C27.1371 35.7428 27.7973 35.0841 27.371 34.6599C25.0264 32.3338 22.6976 29.9919 20.3846 27.6342C19.9642 27.207 19.3041 27.8686 19.7274 28.2958Z" fill="black"/>
  </g>
  <defs>
    <clipPath id="clip0_4550_230943">
      <rect width="36.8" height="40" fill="white" transform="translate(0.5)"/>
    </clipPath>
  </defs>
</svg>
