<svg width="115" height="118" viewBox="0 0 115 118" fill="none" xmlns="http://www.w3.org/2000/svg">
<g clip-path="url(#clip0_4746_223715)">
<path d="M91.1768 41.4262C84.5874 42.3795 77.9295 42.7336 71.28 42.4845C69.9862 42.4458 68.5097 42.4845 67.64 43.4542C67.1414 44.1369 66.8483 44.9558 66.7971 45.8091C65.8414 52.5467 66.679 59.4007 67.5272 66.1495C67.5612 66.8902 67.7834 67.6087 68.1715 68.2328C68.7728 69.0141 69.8144 69.2357 70.77 69.341C72.9118 69.541 75.0645 69.5873 77.2126 69.4795C84.7682 69.2616 92.3168 68.9033 99.8581 68.4046C100.54 68.3603 101.313 68.2716 101.737 67.7065C101.938 67.3972 102.069 67.0448 102.118 66.6759C103.419 60.4905 104.174 54.1962 104.373 47.8702C104.486 46.6488 104.351 45.4165 103.976 44.2521C102 39.2653 95.1121 40.7724 91.15 41.4207" fill="white"/>
<path d="M91.0693 41.0216C86.624 41.6978 82.1401 42.068 77.6473 42.1298C75.4461 42.1686 73.2449 42.1298 71.0436 42.0855C69.3417 42.0467 67.511 42.3293 66.7862 44.1522C66.4762 45.133 66.2956 46.1525 66.2493 47.1831C66.1205 48.3522 66.0453 49.5268 66.0131 50.7015C65.9576 53.0123 66.0257 55.3245 66.2171 57.6275C66.3943 59.9436 66.6627 62.2486 66.9472 64.548C67.0024 65.5951 67.1644 66.6333 67.4304 67.6454C67.5746 68.0651 67.8096 68.4455 68.1175 68.7575C68.4254 69.0695 68.7982 69.3051 69.2075 69.4462C70.1494 69.7414 71.1277 69.8945 72.112 69.9005C73.2287 69.9725 74.3562 69.9836 75.4783 69.967C77.7385 69.9282 79.9988 69.8395 82.2591 69.7564C86.8118 69.5902 91.3628 69.3723 95.9119 69.1026L99.305 68.8865C100.143 68.8367 101.109 68.8533 101.807 68.2937C102.505 67.734 102.634 66.4652 102.811 65.5565C103.036 64.4261 103.242 63.294 103.428 62.1599C104.172 57.5911 104.624 52.9767 104.781 48.3466C104.851 46.4738 104.862 44.5456 103.761 42.9443C103.018 41.8838 101.958 41.105 100.744 40.728C98.1937 39.8858 95.375 40.2958 92.7712 40.728C92.2021 40.8222 91.633 40.9219 91.0639 41.0106C90.4948 41.0992 90.7686 41.8971 91.2733 41.814C93.7161 41.415 96.1965 40.9219 98.6769 41.1602C99.8614 41.2311 101.009 41.6125 102.011 42.2683C102.572 42.6874 103.037 43.2278 103.375 43.8518C103.712 44.4758 103.914 45.1683 103.965 45.881C104.032 46.8956 104.032 47.9138 103.965 48.9284C103.917 50.0366 103.858 51.0949 103.777 52.1754C103.62 54.3917 103.392 56.608 103.095 58.8244C102.798 61.0407 102.44 63.2219 102.022 65.3681C101.92 65.8723 101.834 66.3876 101.705 66.8863C101.671 67.0836 101.59 67.2691 101.469 67.4259C101.348 67.5826 101.191 67.7057 101.012 67.7839C100.657 67.9136 100.283 67.981 99.9063 67.9834C99.3265 68.0277 98.752 68.0609 98.1722 68.0942C93.8771 68.3712 89.5732 68.5984 85.2602 68.7757C83.0805 68.8718 80.9043 68.9512 78.7318 69.014C76.5842 69.0805 74.3991 69.1746 72.2409 69.0472C71.3182 69.0403 70.4007 68.9042 69.5135 68.6427C69.1404 68.5236 68.8049 68.3036 68.5418 68.0055C68.2664 67.6202 68.0926 67.1677 68.0371 66.6924C67.8492 65.6618 67.7579 64.609 67.6345 63.5673C67.511 62.5256 67.3768 61.4008 67.2694 60.3148C66.7296 55.9033 66.6612 51.4438 67.0654 47.0168C67.0954 46.0487 67.2917 45.0938 67.6452 44.1965C67.8504 43.8372 68.1378 43.5352 68.4822 43.3169C68.8266 43.0986 69.2176 42.9707 69.6209 42.9443C70.4839 42.8724 71.3511 42.8724 72.214 42.9443C73.2878 42.9443 74.3991 42.9776 75.4944 42.9776C79.7417 42.9953 83.9865 42.7604 88.2077 42.2739C89.2457 42.152 90.2765 42.0098 91.3001 41.8472C91.837 41.7696 91.5954 40.9662 91.0907 41.0438L91.0693 41.0216Z" fill="#374151"/>
<path d="M66.6629 47.1277C71.5163 46.7953 76.3733 46.5349 81.2338 46.3465C86.0944 46.1581 90.9263 46.0491 95.7296 46.0196C98.4784 45.9974 101.227 45.9974 103.976 46.0196C104.083 46.0196 104.185 45.9758 104.261 45.8979C104.336 45.8199 104.379 45.7142 104.379 45.604C104.379 45.4938 104.336 45.3881 104.261 45.3102C104.185 45.2322 104.083 45.1885 103.976 45.1885C99.1119 45.1367 94.2496 45.1626 89.389 45.266C84.5285 45.3695 79.6966 45.5431 74.8933 45.7869C72.1445 45.9309 69.3992 46.0972 66.6575 46.2855C66.1207 46.3188 66.1207 47.1499 66.6575 47.1167L66.6629 47.1277Z" fill="#374151"/>
<path d="M71.0385 40.9054C70.9267 40.9086 70.8171 40.9376 70.7177 40.9903C70.6182 41.0431 70.5316 41.1182 70.464 41.2102C70.2109 41.4159 70.0345 41.7056 69.9647 42.0302C69.9579 42.3079 70.0431 42.5796 70.2063 42.8004C70.2999 42.961 70.4219 43.102 70.566 43.216C70.7966 43.3841 71.0821 43.4518 71.3606 43.4043C71.6371 43.3591 71.8988 43.245 72.123 43.0719C72.2226 43.0005 72.3082 42.9102 72.3753 42.8059C72.435 42.6859 72.4663 42.553 72.4666 42.4181C72.4829 42.1929 72.4525 41.9668 72.3775 41.7547C72.3025 41.5426 72.1847 41.3494 72.0317 41.188C71.8791 41.0277 71.6829 40.919 71.4691 40.8765C71.2552 40.8339 71.0339 40.8595 70.8345 40.9498" fill="#FC6078"/>
<path d="M71.0383 40.49C70.8561 40.4973 70.6778 40.5464 70.5162 40.6336C70.3546 40.7208 70.2139 40.844 70.1041 40.9943C69.8484 41.2231 69.662 41.5232 69.5673 41.8586C69.5123 42.2477 69.6025 42.6438 69.8196 42.9668C70.0024 43.3069 70.2868 43.577 70.6303 43.737C70.9582 43.8491 71.3097 43.8655 71.6461 43.7843C71.9824 43.7031 72.2905 43.5276 72.5362 43.2771C73.0462 42.7784 72.9281 41.8143 72.5953 41.2491C72.4073 40.9112 72.1038 40.6579 71.7442 40.539C71.3847 40.4201 70.995 40.4441 70.6518 40.6064C70.6028 40.6322 70.5595 40.668 70.5245 40.7117C70.4894 40.7553 70.4635 40.806 70.4481 40.8604C70.4327 40.9148 70.4283 40.9719 70.4352 41.0282C70.442 41.0845 70.4599 41.1387 70.4878 41.1875C70.5157 41.2364 70.5529 41.2788 70.5973 41.3123C70.6417 41.3457 70.6922 41.3694 70.7458 41.3819C70.7994 41.3944 70.8549 41.3955 70.9089 41.385C70.9629 41.3746 71.0142 41.3529 71.0598 41.3212C71.1296 41.2879 71.0598 41.3212 71.0598 41.3212H71.1242H71.194C71.1135 41.3212 71.194 41.3212 71.194 41.3212H71.339C71.398 41.3212 71.2799 41.3212 71.339 41.3212H71.4249C71.4249 41.3212 71.5752 41.3821 71.5 41.3212L71.645 41.4043H71.6772H71.7094C71.7515 41.444 71.7909 41.4866 71.8275 41.5317C71.7899 41.4819 71.8275 41.5317 71.8275 41.5317L71.8705 41.5982C71.8705 41.6315 71.9027 41.6592 71.9188 41.6869V41.7312C71.9188 41.6869 71.9188 41.7644 71.9188 41.7755L71.9456 41.8531C71.9456 41.914 71.9456 41.9694 71.9886 42.0304C72.0315 42.0913 71.9886 42.0636 71.9886 42.0304C71.9886 41.9972 71.9886 42.0858 71.9886 42.1135C71.9886 42.1412 71.9886 42.2354 71.9886 42.2964C71.9886 42.3573 71.9886 42.3518 71.9886 42.3795C71.9886 42.4072 71.9886 42.4792 71.9886 42.4349C71.986 42.4704 71.9749 42.5046 71.9564 42.5346C71.9242 42.6011 71.9564 42.5679 71.9564 42.5346C71.9345 42.56 71.9112 42.584 71.8866 42.6066L71.849 42.6399L71.806 42.6731C71.7083 42.7429 71.604 42.8023 71.4947 42.8504C71.5483 42.8504 71.4678 42.8504 71.4571 42.8504H71.3765H71.296H71.2477H71.0383C70.9954 42.8504 71.0759 42.8504 71.0061 42.8504L70.8343 42.8006C70.7752 42.8006 70.8826 42.8006 70.8343 42.8006L70.7645 42.7618C70.6904 42.7021 70.6237 42.6332 70.5658 42.5568C70.5658 42.59 70.539 42.518 70.539 42.5125L70.4907 42.4404C70.4585 42.3906 70.4316 42.3407 70.4048 42.2908C70.3531 42.207 70.3201 42.1124 70.3081 42.0138C70.3081 42.0636 70.3081 41.975 70.3081 41.9639C70.3081 41.9528 70.3081 41.8697 70.3081 41.9307C70.3099 41.9048 70.3099 41.8789 70.3081 41.8531C70.3404 41.7478 70.2759 41.8974 70.3081 41.8032C70.3376 41.742 70.3736 41.6844 70.4155 41.6315C70.4155 41.6315 70.3726 41.6758 70.4155 41.6315L70.4853 41.5539C70.5698 41.4547 70.6613 41.3621 70.7591 41.2768C70.7591 41.2768 70.8182 41.227 70.7591 41.2768C70.7912 41.2533 70.8254 41.2329 70.8611 41.2159C70.8611 41.2159 70.8128 41.2159 70.8611 41.2159C70.786 41.2159 70.8611 41.2159 70.9041 41.2159C70.9572 41.2166 71.0098 41.2064 71.059 41.1858C71.1082 41.1652 71.1529 41.1346 71.1904 41.0958C71.228 41.0571 71.2576 41.011 71.2776 40.9602C71.2975 40.9095 71.3075 40.8551 71.3067 40.8003C71.304 40.691 71.2607 40.5869 71.1858 40.5096C71.1109 40.4323 71.01 40.3876 70.9041 40.3848L71.0383 40.49Z" fill="#FC6078"/>
<path d="M75.4461 40.8776C75.1726 40.8831 74.9115 40.9961 74.716 41.1935C74.4754 41.477 74.3353 41.8365 74.3187 42.213C74.2914 42.3807 74.3081 42.5529 74.367 42.7117C74.4201 42.8256 74.4972 42.9259 74.5925 43.0053C74.7956 43.202 75.0489 43.3347 75.3226 43.3877C75.5977 43.4321 75.8787 43.3646 76.1065 43.1993C76.2851 43.0415 76.4218 42.8393 76.5038 42.6119C76.6183 42.3637 76.6558 42.0851 76.6111 41.8141C76.5875 41.698 76.5438 41.5873 76.4823 41.4871C76.352 41.2778 76.1683 41.1096 75.9514 41.0011C75.7345 40.8926 75.4928 40.848 75.2528 40.8721" fill="#FC6078"/>
<path d="M75.4462 40.4624C75.1135 40.476 74.794 40.6005 74.5356 40.8173C74.2771 41.0341 74.0937 41.3314 74.0128 41.6647C73.9113 41.9862 73.8837 42.3277 73.9322 42.6621C73.9772 42.8386 74.056 43.0041 74.1639 43.1487C74.2717 43.2933 74.4066 43.4142 74.5604 43.5043C74.8307 43.7099 75.1589 43.818 75.4946 43.812C75.8303 43.8059 76.1548 43.6862 76.418 43.4711C76.6679 43.2393 76.8533 42.9428 76.9549 42.6122C77.0876 42.2555 77.0876 41.8608 76.9549 41.5041C76.8146 41.1664 76.5744 40.8833 76.2687 40.6952C75.963 40.507 75.6074 40.4236 75.253 40.4568C75.1462 40.4568 75.0437 40.5006 74.9682 40.5786C74.8927 40.6565 74.8503 40.7622 74.8503 40.8724C74.8503 40.9826 74.8927 41.0883 74.9682 41.1662C75.0437 41.2442 75.1462 41.288 75.253 41.288C75.3011 41.2824 75.3497 41.2824 75.3979 41.288H75.4731C75.5482 41.288 75.4731 41.288 75.4731 41.288L75.6127 41.3212H75.6825C75.7898 41.36 75.6234 41.288 75.72 41.3212L75.8489 41.3932C75.8489 41.3932 75.9724 41.4819 75.9187 41.4376L76.0207 41.5373L76.0744 41.5983C76.1227 41.6537 76.0744 41.5983 76.0744 41.5983L76.1603 41.7423C76.1603 41.8088 76.1603 41.698 76.1603 41.7423C76.1724 41.7707 76.1814 41.8005 76.1871 41.831C76.1871 41.831 76.1871 41.9252 76.1871 41.8864C76.1871 41.8476 76.1871 41.9362 76.1871 41.9418V42.0304C76.1871 42.0637 76.1871 42.0637 76.1871 42.0304V42.0748C76.1612 42.1941 76.1252 42.3109 76.0798 42.4238V42.4238L76.0475 42.4959C76.0167 42.5551 75.9827 42.6124 75.9455 42.6676C75.9777 42.6122 75.8918 42.7286 75.8811 42.7397L75.8221 42.7951C75.8221 42.7951 75.8757 42.7618 75.8221 42.7951L75.7523 42.8339C75.7523 42.8339 75.6825 42.8339 75.7523 42.8339L75.5805 42.8837C75.5214 42.8837 75.6341 42.8837 75.5805 42.8837H75.5214C75.5214 42.8837 75.355 42.8837 75.4301 42.8837C75.3791 42.878 75.3287 42.8668 75.2798 42.8505H75.2046C75.0973 42.8117 75.2583 42.8837 75.1563 42.8505C75.1098 42.828 75.065 42.802 75.0221 42.7729L74.9523 42.7286C74.9523 42.7286 74.8932 42.6787 74.9523 42.7286C74.9104 42.6946 74.871 42.6576 74.8342 42.6178L74.7751 42.5568C74.8127 42.5956 74.7751 42.5568 74.7751 42.518C74.7751 42.4792 74.7751 42.5679 74.7751 42.518C74.7751 42.4682 74.7751 42.4626 74.7751 42.4349C74.7751 42.4072 74.7751 42.4903 74.7751 42.4349V42.3518C74.7751 42.2909 74.7751 42.2354 74.7751 42.18C74.7751 42.1246 74.7751 42.241 74.7751 42.18C74.7721 42.1487 74.7721 42.1172 74.7751 42.0858C74.7751 42.0194 74.7751 41.9529 74.8181 41.8864C74.861 41.8199 74.8181 41.8365 74.8449 41.8088C74.8718 41.7811 74.8825 41.7091 74.8449 41.7479C74.8074 41.7866 74.8449 41.7479 74.8449 41.7091C74.8571 41.6803 74.8715 41.6525 74.8879 41.626L74.9308 41.5595C74.8932 41.6204 74.9577 41.5262 74.963 41.5207L75.0167 41.4597C75.065 41.4099 75.0167 41.4597 75.0167 41.4597L75.1671 41.3711C75.2369 41.3323 75.1671 41.3711 75.1671 41.3711L75.2798 41.3378H75.355C75.2852 41.3378 75.355 41.3378 75.4033 41.3378C75.5096 41.3364 75.6113 41.2922 75.6865 41.2145C75.7617 41.1369 75.8046 41.032 75.8059 40.9223C75.8032 40.8129 75.7599 40.7089 75.685 40.6315C75.6101 40.5542 75.5092 40.5095 75.4033 40.5067L75.4462 40.4624Z" fill="#FC6078"/>
<path d="M79.7573 40.8833C79.532 40.8924 79.3133 40.9641 79.1243 41.0909C78.9353 41.2177 78.783 41.3949 78.6835 41.6037C78.4994 41.9011 78.4358 42.2612 78.5064 42.6065C78.562 42.7903 78.6631 42.9559 78.7996 43.087C78.9361 43.2182 79.1033 43.3104 79.2848 43.3546C79.5086 43.4103 79.7429 43.401 79.9618 43.3276C80.1808 43.2543 80.3757 43.1198 80.525 42.939C80.6743 42.7575 80.771 42.5363 80.8042 42.3007C80.8374 42.0651 80.8058 41.8246 80.7128 41.6067C80.6198 41.3888 80.4694 41.2023 80.2786 41.0685C80.0878 40.9348 79.8643 40.859 79.6338 40.8501" fill="#FC6078"/>
<path d="M79.7574 40.4675C79.4299 40.4825 79.1136 40.5952 78.8468 40.7919C78.58 40.9885 78.3742 41.2608 78.2542 41.5756C78.0878 41.9181 78.0368 42.3081 78.1092 42.6838C78.1925 43.0241 78.3929 43.3214 78.6729 43.5205C78.9349 43.7069 79.2446 43.8089 79.5628 43.8139C79.8809 43.8188 80.1934 43.7264 80.4607 43.5482C80.7878 43.3735 81.0471 43.0883 81.1952 42.7403C81.3432 42.3922 81.3713 42.0023 81.2746 41.6355C81.1779 41.2687 80.9623 40.9472 80.6637 40.7246C80.3652 40.502 80.0017 40.3917 79.6339 40.4121C79.5271 40.4121 79.4247 40.4559 79.3492 40.5338C79.2737 40.6117 79.2313 40.7174 79.2313 40.8276C79.2353 40.9365 79.279 41.0399 79.3536 41.1169C79.4283 41.194 79.5284 41.2391 79.6339 41.2432C79.6339 41.2432 79.7467 41.2432 79.6876 41.2432C79.6286 41.2432 79.6876 41.2432 79.7198 41.2432L79.8702 41.2875C79.8702 41.2875 79.94 41.2875 79.8702 41.2875L79.9292 41.3208C79.9812 41.3489 80.0314 41.3803 80.0796 41.415C80.144 41.4593 80.0796 41.415 80.0796 41.415L80.144 41.4759C80.1825 41.5139 80.2184 41.5546 80.2514 41.5978C80.203 41.5313 80.2514 41.6421 80.2889 41.6588L80.3211 41.7252C80.3748 41.8194 80.3211 41.6532 80.3211 41.764C80.3368 41.8111 80.3493 41.8593 80.3587 41.9081C80.3587 41.9081 80.3587 42.0245 80.3587 41.9635C80.3587 41.9026 80.3587 41.9912 80.3587 42.0078C80.3587 42.0245 80.3587 42.1186 80.3587 42.1796C80.3587 42.2405 80.3587 42.2572 80.3587 42.1796C80.3613 42.2183 80.3613 42.2572 80.3587 42.296C80.3469 42.3447 80.3325 42.3928 80.3158 42.44C80.3158 42.3735 80.3158 42.44 80.3158 42.44C80.3036 42.4688 80.2892 42.4966 80.2728 42.5231L80.2245 42.6062C80.2245 42.6062 80.1762 42.6672 80.2245 42.6062C80.1861 42.6532 80.1449 42.6976 80.101 42.7392C80.101 42.7392 80.042 42.7835 80.101 42.7392L80.042 42.778L79.9024 42.8611C79.8487 42.8944 79.9561 42.8611 79.9024 42.8611L79.8165 42.8944H79.7467C79.7467 42.8944 79.6232 42.8944 79.7091 42.8944C79.6147 42.9082 79.5189 42.9082 79.4246 42.8944C79.5051 42.8944 79.4246 42.8944 79.4246 42.8944H79.3601H79.2742C79.3279 42.8944 79.2742 42.8944 79.2742 42.8944C79.2272 42.8708 79.1823 42.843 79.14 42.8113C79.2044 42.8556 79.1078 42.8113 79.0863 42.7614L79.038 42.7115C78.9628 42.6395 79.038 42.7503 79.038 42.7115C79.038 42.6727 78.9789 42.6118 78.9521 42.5619C78.9253 42.512 78.9521 42.645 78.9521 42.5619C78.9521 42.4788 78.9521 42.5065 78.9521 42.4843C78.9521 42.4622 78.9521 42.4068 78.9521 42.4843V42.3181C78.9521 42.1907 78.9521 42.3569 78.9521 42.2849C78.9625 42.2152 78.9787 42.1466 79.0004 42.0799L79.0273 42.0023V41.9469C79.0542 41.8866 79.0866 41.8291 79.1239 41.7751L79.1669 41.7086L79.2044 41.6643C79.2417 41.6129 79.285 41.5664 79.3333 41.5258C79.3484 41.5062 79.3665 41.4894 79.387 41.4759L79.4353 41.4427L79.4943 41.4039L79.5588 41.3651C79.5158 41.3651 79.5588 41.3651 79.5964 41.3651H79.6984C79.7521 41.3651 79.6339 41.3651 79.6984 41.3651H79.8272C79.9336 41.3637 80.0352 41.3194 80.1104 41.2418C80.1856 41.1642 80.2285 41.0593 80.2299 40.9495C80.2272 40.8402 80.1839 40.7361 80.1089 40.6588C80.034 40.5815 79.9332 40.5368 79.8272 40.534L79.7574 40.4675Z" fill="#FC6078"/>
<path d="M60.3652 71.6625L62.6577 74.3886C62.7339 74.4651 62.836 74.5079 62.9422 74.5079C63.0485 74.5079 63.1506 74.4651 63.2268 74.3886C63.3022 74.3107 63.3446 74.205 63.3446 74.0949C63.3446 73.9848 63.3022 73.8792 63.2268 73.8012L60.9343 71.0751C60.8588 70.9973 60.7565 70.9536 60.6498 70.9536C60.5431 70.9536 60.4407 70.9973 60.3652 71.0751C60.2923 71.1544 60.2517 71.2595 60.2517 71.3688C60.2517 71.4781 60.2923 71.5832 60.3652 71.6625V71.6625Z" fill="#166CFF"/>
<path d="M64.8107 73.1475C64.4886 69.8526 64.0967 66.5669 63.6349 63.2904C63.5598 62.7363 62.7867 62.9856 62.8618 63.5065C63.3056 66.7128 63.6868 69.9265 64.0054 73.1475C64.0591 73.7016 64.8644 73.7016 64.8107 73.1475V73.1475Z" fill="#166CFF"/>
<path d="M74.0021 26.8706C78.2789 29.3287 81.9238 32.8073 84.6323 37.0158C86.0144 39.1503 87.1327 41.4547 87.9609 43.8754C88.8951 46.6458 89.4481 49.6656 88.9649 52.5912C88.6073 55.1266 87.3759 57.444 85.4967 59.1183C84.6162 59.8607 83.4565 60.437 82.3237 59.9494C81.8889 59.74 81.5022 59.4376 81.1893 59.0622C80.8765 58.6867 80.6446 58.2469 80.5091 57.7718C79.8702 55.6165 81.5828 53.8489 83.5263 53.4666C85.7866 53.0289 87.7677 54.5748 88.7233 56.5806C89.9098 59.085 89.3837 62.0272 88.2455 64.443C86.8165 67.4585 84.5809 69.9888 81.8029 71.7348C81.3627 72.0173 81.7707 72.7377 82.211 72.4551C84.6086 70.9206 86.6299 68.8346 88.1166 66.3601C89.6521 63.8169 90.699 60.6642 89.9635 57.661C89.3729 55.2618 87.5637 52.9679 85.0833 52.5967C82.9358 52.2698 80.4285 53.4223 79.7145 55.6774C79.0434 57.794 80.4983 60.4813 82.6458 60.8858C83.9934 61.1351 85.2282 60.4204 86.2215 59.5394C87.2423 58.6316 88.0766 57.5219 88.675 56.2758C91.3111 50.735 89.4803 44.2134 86.7959 39.0992C84.262 34.2687 80.5871 30.1767 76.112 27.203C75.5751 26.8318 74.9899 26.4827 74.4101 26.1558C73.9538 25.8954 73.5511 26.6101 74.0021 26.8706V26.8706Z" fill="#374151"/>
<path d="M73.5778 30.6546C76.1317 31.5653 78.2781 33.4024 79.6177 35.8243C79.6718 35.9198 79.7604 35.9892 79.8641 36.0173C79.9679 36.0453 80.0781 36.0297 80.1707 35.9739C80.2632 35.918 80.3305 35.8265 80.3577 35.7195C80.3849 35.6125 80.3697 35.4987 80.3156 35.4032C78.8625 32.8025 76.5449 30.8339 73.7925 29.8623C73.2986 29.6905 73.0892 30.494 73.5778 30.6657V30.6546Z" fill="#374151"/>
<path d="M63.3182 100.47C65.4657 100.47 67.5649 100.425 69.6856 100.398C72.4774 100.361 75.2656 100.326 78.0502 100.292C79.0541 100.292 80.0635 100.292 81.0674 100.292C81.1742 100.292 81.2766 100.249 81.3522 100.171C81.4277 100.093 81.4701 99.9871 81.4701 99.8769C81.4701 99.7666 81.4277 99.6609 81.3522 99.583C81.2766 99.5051 81.1742 99.4613 81.0674 99.4613C78.9199 99.4336 76.7724 99.4613 74.6249 99.5056L66.2764 99.6164C65.2885 99.6164 64.3007 99.6164 63.3128 99.6164C63.206 99.6164 63.1036 99.6602 63.0281 99.7381C62.9526 99.8161 62.9102 99.9218 62.9102 100.032C62.9102 100.142 62.9526 100.248 63.0281 100.326C63.1036 100.404 63.206 100.448 63.3128 100.448L63.3182 100.47Z" fill="#374151"/>
<path d="M51.3187 100.807C53.7847 100.704 56.2508 100.674 58.7169 100.719C58.8237 100.719 58.9261 100.675 59.0016 100.597C59.0771 100.519 59.1195 100.413 59.1195 100.303C59.1195 100.193 59.0771 100.087 59.0016 100.009C58.9261 99.9314 58.8237 99.8876 58.7169 99.8876C56.2472 99.8433 53.7812 99.8728 51.3187 99.9763C50.7818 99.9763 50.7818 100.83 51.3187 100.807Z" fill="#374151"/>
<path d="M56.2098 50.3858C55.1594 48.7455 53.683 47.4434 51.9494 46.6282C50.2158 45.8129 48.295 45.5176 46.4064 45.7759C44.3152 46.1481 42.3477 47.0548 40.6832 48.4133C39.0261 49.7671 37.5206 51.3078 36.1949 53.0067C34.6917 54.8462 33.2475 56.8021 32.4368 59.0573C33.4061 59.1699 34.3431 59.4848 35.191 59.9826C37.2257 60.9965 39.2659 62.0161 41.3329 62.9525C45.7836 64.9638 50.3847 66.6039 55.0018 68.1609C55.5387 66.5762 56.6554 65.2741 57.4715 63.8168C58.373 62.0869 59.0516 60.2428 59.4901 58.3314C59.9304 56.6691 60.3223 54.9238 59.8498 53.2892C59.3774 51.6547 57.7023 50.2529 56.1239 50.7294L56.2098 50.3858Z" fill="#374151"/>
<path d="M56.5587 50.192C55.5161 48.5632 54.0701 47.252 52.3707 46.3946C50.6714 45.5372 48.7807 45.1648 46.8949 45.3161C42.3636 45.7483 38.8739 49.1282 36.066 52.5192C34.4554 54.4696 32.9306 56.5252 32.0501 58.941C31.9481 59.2125 32.2005 59.4508 32.4367 59.4951C33.1882 59.5784 33.9172 59.8097 34.5842 60.1766C35.3036 60.5202 36.0177 60.8858 36.7317 61.2405C38.1598 61.9497 39.5987 62.6478 41.0268 63.3072C43.8937 64.6038 46.8251 65.7507 49.7779 66.8201C51.4637 67.4296 53.1549 68.0114 54.8514 68.5821C54.9539 68.6096 55.0627 68.5949 55.1548 68.5411C55.247 68.4874 55.3153 68.3987 55.3453 68.294C55.8339 66.9254 56.7359 65.7729 57.4929 64.5539C58.2602 63.2493 58.868 61.8516 59.3022 60.3927C59.8017 58.9101 60.1612 57.3811 60.3759 55.8271C60.603 54.4086 60.2831 52.9548 59.4847 51.7767C59.1006 51.21 58.5632 50.7728 57.9397 50.5195C57.3162 50.2662 56.6342 50.2082 55.9789 50.3527L56.4782 50.8625L56.5587 50.5189C56.5773 50.4166 56.558 50.3109 56.5047 50.2226C56.4514 50.1342 56.3679 50.0698 56.2707 50.0419C56.1735 50.014 56.0698 50.0248 55.98 50.0721C55.8901 50.1194 55.8208 50.1998 55.7856 50.2973L55.6997 50.6408C55.6828 50.7112 55.6839 50.7849 55.7028 50.8548C55.7216 50.9246 55.7576 50.9883 55.8073 51.0395C55.857 51.0908 55.9186 51.128 55.9863 51.1474C56.054 51.1669 56.1254 51.168 56.1936 51.1506C56.7121 51.0497 57.2479 51.1114 57.7321 51.3277C58.2163 51.544 58.6266 51.9049 58.9102 52.364C59.6941 53.4722 59.7263 54.9184 59.5169 56.2426C59.264 57.6617 58.905 59.0585 58.4431 60.4204C58.0357 61.7448 57.4713 63.0122 56.7627 64.1937C55.9789 65.4626 55.0823 66.6594 54.5722 68.0723L55.0715 67.7842C52.0435 66.7591 49.0316 65.7064 46.0573 64.5373C43.083 63.3681 40.1516 62.0106 37.2364 60.5811C36.4257 60.1822 35.6258 59.7611 34.8043 59.3787C34.0529 58.9875 33.2371 58.7451 32.3991 58.664L32.7857 59.1904C33.6021 57.1844 34.7361 55.3325 36.1412 53.7105C37.4627 51.9875 38.9523 50.4093 40.5865 49.0007C42.1845 47.6276 44.0825 46.6767 46.1164 46.2303C47.8596 45.9128 49.6542 46.1048 51.2973 46.7844C53.1661 47.5306 54.7618 48.8617 55.8607 50.591C56.1453 51.0619 56.8432 50.6464 56.5587 50.192Z" fill="#374151"/>
<path d="M56.5425 47.477L55.9627 50.4635C55.909 50.735 56.1453 51.1063 56.4566 50.9733C57.5224 50.5198 58.5621 50.0037 59.5705 49.4274C59.6524 49.3655 59.7086 49.2739 59.7278 49.1711C59.7471 49.0682 59.728 48.9617 59.6744 48.8727C59.6208 48.7838 59.5366 48.719 59.4387 48.6914C59.3408 48.6638 59.2364 48.6753 59.1464 48.7237C58.2015 49.2699 57.2263 49.7584 56.2258 50.1865L56.7197 50.6962L57.3049 47.7153C57.3299 47.6088 57.3144 47.4966 57.2614 47.4017C57.2084 47.3068 57.1221 47.2366 57.0204 47.2055C56.9696 47.1904 56.9164 47.1859 56.864 47.1922C56.8115 47.1986 56.7608 47.2157 56.7148 47.2425C56.6688 47.2694 56.6284 47.3054 56.5961 47.3485C56.5638 47.3916 56.5401 47.441 56.5264 47.4936L56.5425 47.477Z" fill="#374151"/>
<path d="M39.6202 66.8532C36.6221 65.6544 33.5001 64.8159 30.3161 64.3543C29.3827 64.1773 28.4284 64.1493 27.4867 64.2712C25.715 64.5815 24.2279 65.8005 22.9018 67.0416C18.2903 71.4109 14.553 76.6703 11.9011 82.5227C10.2529 86.152 9.05565 90.4683 10.7307 94.0809C12.0514 96.9289 14.9774 98.7297 17.9893 99.2505C21.0012 99.7714 24.1044 99.1619 27.0143 98.2088C28.2276 97.8099 31.1214 96.807 31.1214 96.807L60.4941 97.0231C61.0229 90.9942 60.0142 84.9274 57.5681 79.4254C55.9575 75.7518 53.5898 72.3442 50.4276 69.9561C47.2654 67.568 43.228 66.2825 39.3625 66.9308" fill="#FC6078"/>
<path d="M39.7275 66.4543C37.2032 65.4467 34.5909 64.6915 31.9267 64.1991C30.578 63.8742 29.1922 63.7436 27.8088 63.8113C26.6325 63.9688 25.5126 64.4257 24.5499 65.1411C23.5794 65.8593 22.6673 66.6579 21.8226 67.5292C20.9421 68.4046 20.0938 69.3133 19.2778 70.2553C17.6369 72.1479 16.1382 74.1669 14.7948 76.2948C13.4497 78.4099 12.2719 80.6334 11.2729 82.9438C10.2797 85.2654 9.49046 87.781 9.53341 90.3408C9.53378 91.5217 9.76074 92.6908 10.2012 93.7806C10.6417 94.8705 11.2869 95.8595 12.0997 96.6906C13.6646 98.2128 15.6288 99.2263 17.7477 99.6051C22.2414 100.442 26.5793 98.7906 30.7831 97.3445C30.9392 97.3062 31.0919 97.2543 31.2395 97.1893C31.1697 97.2281 31.0891 97.1893 31.1858 97.1893C31.3163 97.1976 31.4472 97.1976 31.5777 97.1893H33.4031L40.0604 97.2392L48.5216 97.3001L56.1561 97.3611L60.3169 97.3888H60.5048C60.6111 97.3874 60.7128 97.3431 60.788 97.2655C60.8632 97.1879 60.9061 97.083 60.9074 96.9732C61.4307 91.1923 60.5333 85.3686 58.2982 80.0404C56.242 75.0537 52.8918 70.3606 48.0975 67.9503C45.3718 66.548 42.2946 66.0432 39.2819 66.5041C38.745 66.5872 38.9866 67.3907 39.4967 67.3076C44.7098 66.4543 49.8155 69.1582 53.2408 73.1033C56.6661 77.0484 58.7492 82.3842 59.7102 87.6203C60.2848 90.7029 60.424 93.855 60.1236 96.9788L60.5263 96.5632H57.7023L50.8785 96.5133L42.5784 96.4524L35.1909 96.3748H31.2878C31.197 96.3609 31.1047 96.3609 31.014 96.3748C30.4771 96.4967 29.9724 96.735 29.4624 96.9289C27.5176 97.6571 25.5264 98.2458 23.503 98.6909C21.0765 99.2241 18.5568 99.0903 16.1961 98.303C14.1899 97.6259 12.4791 96.2409 11.3642 94.3912C10.1455 92.2303 10.1401 89.6427 10.6716 87.2712C11.2834 84.8345 12.2059 82.4924 13.4151 80.3064C15.6995 75.9246 18.6159 71.9265 22.0642 68.449C23.6748 66.82 25.5593 64.8419 27.9377 64.6313C29.2917 64.5871 30.6455 64.7269 31.9643 65.0469C33.2528 65.2907 34.5252 65.601 35.7868 65.9667C37.0485 66.3324 38.2887 66.7646 39.5128 67.2522C39.996 67.4461 40.2054 66.6427 39.7275 66.4543V66.4543Z" fill="#374151"/>
<path d="M18.8806 83.4479C19.8249 84.0782 20.8036 84.6517 21.812 85.1655C21.9045 85.2214 22.0148 85.237 22.1185 85.2089C22.2222 85.1809 22.3108 85.1114 22.365 85.0159C22.4191 84.9204 22.4342 84.8066 22.407 84.6996C22.3798 84.5926 22.3126 84.5011 22.22 84.4452C21.2117 83.9333 20.233 83.3616 19.2886 82.7331C19.2431 82.7014 19.1917 82.6797 19.1377 82.6692C19.0837 82.6588 19.0282 82.6598 18.9747 82.6724C18.9211 82.6849 18.8705 82.7086 18.8262 82.742C18.7818 82.7754 18.7445 82.8179 18.7166 82.8667C18.6887 82.9156 18.6708 82.9698 18.664 83.0261C18.6572 83.0823 18.6616 83.1394 18.6769 83.1939C18.6923 83.2483 18.7183 83.2989 18.7533 83.3426C18.7883 83.3863 18.8317 83.4221 18.8806 83.4479V83.4479Z" fill="#374151"/>
<path d="M18.7141 86.2738C23.2203 84.8812 27.7623 83.6309 32.3401 82.5227L33.1723 82.3232C33.3763 82.2734 33.6072 82.1847 33.7468 82.3786C33.8558 82.5879 33.9302 82.8145 33.9669 83.0491C34.0528 83.3372 34.1441 83.6032 34.2353 83.9134C34.5789 85.0216 34.9655 86.1298 35.3789 87.1936C35.7923 88.2575 36.2164 89.2936 36.6835 90.3242C36.9251 90.8506 37.1667 91.3714 37.4244 91.8923C37.6821 92.4131 37.9613 92.8952 38.1921 93.416C38.2512 93.5601 38.278 93.6265 38.1492 93.7097C38.0015 93.7892 37.8445 93.8488 37.6821 93.887L36.7372 94.2416L34.8527 94.9508L31.0248 96.3748C30.5416 96.5576 30.751 97.3611 31.2395 97.1782L34.8796 95.8207L36.764 95.1115C37.3439 94.8954 37.9559 94.7125 38.5089 94.441C38.6231 94.3883 38.7257 94.3121 38.8105 94.2171C38.8953 94.1222 38.9606 94.0104 39.0022 93.8886C39.0439 93.7668 39.0612 93.6376 39.053 93.5087C39.0448 93.3799 39.0113 93.254 38.9545 93.1389C38.7397 92.5849 38.4176 92.0308 38.1492 91.5266C37.6123 90.4184 37.0754 89.277 36.6137 88.1245C36.152 86.972 35.6903 85.753 35.2876 84.5451C35.089 83.9522 34.9064 83.3594 34.7507 82.7609C34.6111 82.29 34.4984 81.7525 34.0259 81.5253C33.5535 81.2982 32.9522 81.5253 32.4636 81.6417L30.606 82.096C29.3676 82.4063 28.1328 82.7277 26.9015 83.0602C24.0955 83.7989 21.3019 84.6042 18.5208 85.476C18.0269 85.6311 18.2363 86.4345 18.7356 86.2794L18.7141 86.2738Z" fill="#374151"/>
<path d="M48.1566 68.8756C48.2634 68.8756 48.3658 68.8318 48.4413 68.7538C48.5168 68.6759 48.5592 68.5702 48.5592 68.46C48.5592 68.3498 48.5168 68.2441 48.4413 68.1661C48.3658 68.0882 48.2634 68.0444 48.1566 68.0444C48.0498 68.0444 47.9474 68.0882 47.8718 68.1661C47.7963 68.2441 47.7539 68.3498 47.7539 68.46C47.7539 68.5702 47.7963 68.6759 47.8718 68.7538C47.9474 68.8318 48.0498 68.8756 48.1566 68.8756V68.8756Z" fill="#374151"/>
<path d="M47.7486 68.3715C47.2537 69.7165 46.5719 70.9802 45.7245 72.1226C45.4193 72.5735 45.0238 72.9514 44.5649 73.2308C43.8002 73.5712 42.9392 73.6009 42.1543 73.3139C40.6301 72.8661 39.299 71.8963 38.3799 70.564C37.4607 69.2317 37.0083 67.6163 37.0969 65.9834V65.9834C37.8339 66.331 38.6146 66.5698 39.4162 66.6926C40.5299 64.8618 41.5253 62.9572 42.3959 60.9911C41.9785 60.9782 41.5729 60.8461 41.224 60.6093C40.8752 60.3726 40.5969 60.0405 40.4201 59.6502C40.2577 59.2537 40.2255 58.8133 40.3282 58.3961C40.431 57.979 40.6631 57.6079 40.9892 57.3396C41.2289 57.1701 41.5019 57.0573 41.7887 57.0094C42.0755 56.9615 42.369 56.9797 42.6482 57.0626C43.208 57.2348 43.6981 57.5908 44.0441 58.0766C45.0325 58.5656 46.1492 58.7058 47.2224 58.4755C48.5556 58.1387 49.7511 57.3744 50.637 56.2924C51.5711 55.2674 52.3442 54.0761 53.3214 53.0898C53.6878 52.6437 54.1675 52.3117 54.7065 52.1313C54.7866 52.1034 54.8734 52.1034 54.9535 52.1313C55.0416 52.194 55.1031 52.2892 55.1253 52.3972C56.3095 55.8997 56.2829 59.7172 55.0501 63.2019C54.8686 63.6949 54.621 64.1594 54.3146 64.5815C53.9199 65.0776 53.4482 65.5026 52.9187 65.8393C52.0232 66.5683 50.9131 66.9593 49.7726 66.9475C48.9941 66.8699 48.2747 66.482 47.5016 66.3934L47.0077 67.8949C47.2378 68.0824 47.478 68.2563 47.7271 68.4158" fill="white"/>
<path d="M47.335 68.2605C46.925 69.3771 46.3841 70.4377 45.7244 71.4188C45.4412 71.8723 45.0999 72.2842 44.7097 72.6433C44.2819 72.9847 43.7451 73.1469 43.2064 73.0976C41.1824 73.0034 39.255 71.4354 38.3047 69.6789C37.7093 68.5518 37.4287 67.2762 37.494 65.9943L36.8874 66.3544C37.6596 66.706 38.4711 66.9572 39.3033 67.1024C39.3887 67.1229 39.4781 67.1152 39.559 67.0804C39.6399 67.0456 39.7082 66.9855 39.7543 66.9085C40.8698 65.0798 41.867 63.177 42.7393 61.2125C42.7737 61.149 42.7915 61.0774 42.791 61.0046C42.7905 60.9319 42.7718 60.8605 42.7367 60.7975C42.7015 60.7344 42.6512 60.6818 42.5905 60.6449C42.5298 60.6079 42.4608 60.5877 42.3904 60.5864C41.2844 60.5199 40.3341 59.4395 40.7797 58.287C40.886 58.0221 41.0675 57.7966 41.3004 57.6403C41.5333 57.484 41.8066 57.4043 42.0844 57.4115C42.3824 57.4243 42.6743 57.5032 42.9402 57.6427C43.206 57.7823 43.4397 57.9794 43.6252 58.2205C44.0684 58.6381 44.6368 58.8865 45.2358 58.9242C45.8411 59.0156 46.456 59.0156 47.0612 58.9242C48.2895 58.7042 49.4251 58.1076 50.3201 57.212C51.2738 56.2045 52.1701 55.1407 53.0045 54.0261C53.3893 53.501 53.8599 53.0491 54.395 52.6907C54.497 52.6298 54.701 52.6021 54.7816 52.53C54.6796 52.6242 54.6849 52.325 54.7225 52.5633C54.7401 52.6443 54.7634 52.724 54.7923 52.8015C54.8997 53.1506 54.9963 53.5052 55.0822 53.8598C55.775 56.6302 55.7156 59.544 54.9104 62.2819C54.7121 63.0715 54.3655 63.8132 53.8903 64.465C53.3748 65.0507 52.7621 65.5366 52.081 65.9001C51.4363 66.3126 50.6921 66.5296 49.9335 66.5262C49.1551 66.4763 48.4303 66.0774 47.6572 65.9721C47.5541 65.9477 47.4459 65.9644 47.3543 66.0188C47.2627 66.0733 47.1944 66.1615 47.1632 66.2658L46.6639 67.7673C46.6449 67.8385 46.6448 67.9136 46.6637 67.9848C46.6826 68.056 46.7198 68.1206 46.7713 68.1718C47.0252 68.3755 47.2925 68.5606 47.5713 68.7259C48.0115 69.0085 48.4195 68.2882 47.9739 68.0111C47.7515 67.8764 47.5381 67.7264 47.335 67.5623L47.437 67.9668L47.9363 66.4597L47.437 66.7534C48.2101 66.8808 48.9242 67.2354 49.6973 67.3074C50.4646 67.3817 51.2369 67.238 51.9307 66.8919C53.3864 66.3085 54.5778 65.1838 55.2701 63.7391C56.4466 60.7526 56.7143 57.4672 56.0379 54.3197C55.9573 53.9429 55.8714 53.5606 55.7694 53.2115C55.6926 52.808 55.5644 52.4168 55.3882 52.048C54.9909 51.3609 54.089 51.8817 53.6434 52.2253C52.4354 53.1617 51.5979 54.5801 50.5939 55.7326C49.5899 56.8851 48.4786 57.8548 47.0236 58.1041C46.344 58.2255 45.6473 58.199 44.9781 58.0265C44.6859 57.9765 44.4149 57.8376 44.1997 57.6276C43.9492 57.3385 43.6534 57.095 43.3245 56.9073C43.013 56.7149 42.6616 56.6018 42.2994 56.5774C41.9371 56.553 41.5744 56.6179 41.2413 56.7668C40.9082 56.9157 40.6142 57.1443 40.3836 57.4336C40.153 57.723 39.9925 58.0649 39.9154 58.431C39.8632 58.7998 39.8882 59.1758 39.9886 59.5338C40.0891 59.8917 40.2626 60.2233 40.4976 60.5063C40.7326 60.7892 41.0236 61.017 41.351 61.1741C41.6784 61.3313 42.0347 61.4143 42.3957 61.4175L42.0468 60.7914C41.1751 62.757 40.1797 64.6615 39.0671 66.4929L39.5181 66.299C38.7547 66.1752 38.0096 65.9517 37.3007 65.6341C37.2392 65.5987 37.1698 65.5803 37.0993 65.5808C37.0288 65.5813 36.9597 65.6006 36.8986 65.6369C36.8375 65.6732 36.7865 65.7251 36.7507 65.7878C36.7149 65.8504 36.6954 65.9215 36.6941 65.9943C36.6363 67.2392 36.8729 68.48 37.3837 69.6094C37.8944 70.7389 38.6638 71.7231 39.6254 72.4771C40.562 73.2308 41.6718 73.7214 42.8467 73.9011C43.4583 73.9982 44.0839 73.9136 44.6506 73.6573C45.173 73.3735 45.6222 72.9651 45.9606 72.466C46.8632 71.2568 47.5869 69.9161 48.1081 68.4876C48.2907 67.9834 47.5122 67.7673 47.3297 68.266L47.335 68.2605Z" fill="#374151"/>
<path d="M41.5637 58.5033C41.6334 58.6363 41.7032 58.7748 41.7677 58.9134C41.7779 58.9421 41.7905 58.9699 41.8052 58.9965C41.8052 58.9965 41.8697 59.1405 41.8052 59.0353C41.8052 59.1017 41.8589 59.1682 41.8804 59.2347C41.9803 59.5129 42.0611 59.7981 42.122 60.088C42.1508 60.1936 42.2189 60.2831 42.3115 60.3371C42.404 60.3911 42.5134 60.4051 42.6159 60.3761C42.7167 60.344 42.8017 60.2733 42.8536 60.1785C42.9055 60.0837 42.9204 59.9721 42.8951 59.8664C42.7638 59.2414 42.543 58.6401 42.2401 58.0822C42.2152 58.0317 42.1804 57.987 42.1381 57.9509C42.0958 57.9147 42.0468 57.8879 41.994 57.872C41.9413 57.8562 41.8859 57.8516 41.8314 57.8587C41.7769 57.8657 41.7244 57.8842 41.677 57.913C41.6297 57.9418 41.5886 57.9802 41.5562 58.026C41.5238 58.0718 41.5008 58.124 41.4887 58.1793C41.4766 58.2346 41.4755 58.2919 41.4857 58.3476C41.4958 58.4033 41.5168 58.4563 41.5475 58.5033H41.5637Z" fill="#374151"/>
<path d="M33.8272 69.0751C34.2342 71.3515 35.4239 73.3998 37.1774 74.8432C37.2542 74.9184 37.356 74.9603 37.4619 74.9603C37.5678 74.9603 37.6697 74.9184 37.7465 74.8432C37.8219 74.7652 37.8642 74.6596 37.8642 74.5495C37.8642 74.4394 37.8219 74.3337 37.7465 74.2558C36.0974 72.9096 34.9807 70.9888 34.6057 68.8535C34.5145 68.2994 33.736 68.5488 33.8272 69.0751V69.0751Z" fill="white"/>
<path d="M55.0823 57.0904H55.2219H55.3078L55.5816 57.1514C55.6779 57.1758 55.7729 57.2054 55.8662 57.24H55.9306L56.0595 57.3065C56.1323 57.3455 56.2023 57.39 56.2689 57.4395L56.3172 57.4727C56.3655 57.5115 56.2689 57.4284 56.3172 57.4727L56.4192 57.5669L56.5051 57.6556L56.548 57.7054C56.548 57.7442 56.548 57.7054 56.548 57.7054C56.6093 57.7756 56.6583 57.8562 56.693 57.9437C56.7179 57.9942 56.7527 58.0389 56.795 58.0751C56.8373 58.1112 56.8864 58.138 56.9391 58.1539C56.9919 58.1697 57.0472 58.1743 57.1017 58.1672C57.1562 58.1602 57.2087 58.1417 57.2561 58.1129C57.3034 58.0842 57.3445 58.0457 57.3769 57.9999C57.4093 57.9541 57.4323 57.9019 57.4444 57.8466C57.4565 57.7913 57.4576 57.7341 57.4475 57.6783C57.4373 57.6226 57.4163 57.5696 57.3856 57.5226C57.169 57.1425 56.8475 56.8376 56.4621 56.6471C56.0299 56.4244 55.559 56.2926 55.077 56.2593C54.9702 56.2593 54.8678 56.3031 54.7923 56.381C54.7167 56.4589 54.6743 56.5646 54.6743 56.6748C54.677 56.7842 54.7203 56.8882 54.7953 56.9656C54.8702 57.0429 54.971 57.0876 55.077 57.0904H55.0823Z" fill="#374151"/>
<path d="M52.4784 57.7329C52.0297 58.5086 51.8061 59.4009 51.8341 60.3039C51.842 60.5212 51.8635 60.7377 51.8986 60.9521C51.9503 61.1622 51.9755 61.3782 51.9737 61.5949C51.9637 61.7384 51.904 61.8735 51.8054 61.9752C51.7068 62.077 51.5759 62.1387 51.4368 62.149C50.9 62.149 50.9 63.0023 51.4368 62.9801C51.658 62.975 51.8748 62.9161 52.0698 62.8083C52.2648 62.7005 52.4323 62.5467 52.5589 62.3595C52.6788 62.142 52.7536 61.9011 52.7786 61.6522C52.8036 61.4032 52.7781 61.1516 52.7039 60.9134C52.5271 59.962 52.6932 58.9768 53.171 58.1429C53.2176 58.0487 53.2275 57.9396 53.1989 57.8379C53.1702 57.7363 53.105 57.6498 53.0167 57.5961C52.9283 57.5424 52.8234 57.5255 52.7234 57.5488C52.6233 57.5722 52.5357 57.6341 52.4784 57.7218V57.7329Z" fill="#374151"/>
<path d="M48.9886 59.883C48.798 60.1071 48.6609 60.3742 48.5882 60.6628C48.5155 60.9515 48.5092 61.2536 48.5699 61.5452C48.6257 61.8373 48.714 62.1217 48.8329 62.393C48.8783 62.5336 48.9563 62.6607 49.0602 62.763C49.1641 62.8654 49.2906 62.94 49.4289 62.9803C49.532 63.0066 49.6409 62.9914 49.7336 62.9379C49.8263 62.8844 49.8959 62.7966 49.9282 62.6922C49.9547 62.585 49.9399 62.4713 49.8868 62.3752C49.8337 62.279 49.7465 62.2079 49.6436 62.1769C49.5201 62.1769 49.6436 62.1769 49.6436 62.2101L49.6007 62.1603C49.6007 62.2046 49.6329 62.2046 49.6007 62.1603L49.5362 62.0384C49.5362 61.9996 49.5362 61.9996 49.5362 62.0384L49.504 61.9552C49.425 61.7536 49.3673 61.5436 49.3322 61.3291C49.3322 61.3679 49.3322 61.3624 49.3322 61.3291C49.3322 61.2959 49.3322 61.2737 49.3322 61.246C49.3295 61.1925 49.3295 61.1389 49.3322 61.0853C49.3322 61.0466 49.3322 61.0133 49.3322 60.9745C49.3322 61.0687 49.3322 60.9136 49.3322 60.897C49.3441 60.8482 49.3584 60.8001 49.3752 60.7529C49.3752 60.7086 49.3752 60.703 49.3752 60.7529L49.4074 60.6864C49.4292 60.642 49.4544 60.5994 49.4825 60.559C49.4825 60.5146 49.4825 60.5146 49.4825 60.559L49.5309 60.5036C49.602 60.4248 49.6407 60.3206 49.6389 60.2129C49.637 60.1053 49.5948 60.0025 49.521 59.9264C49.4472 59.8503 49.3477 59.8067 49.2434 59.8048C49.1391 59.8029 49.0381 59.8428 48.9618 59.9162L48.9886 59.883Z" fill="#374151"/>
<path d="M49.88 58.3258H49.982H49.8746C49.9482 58.3376 50.0202 58.358 50.0893 58.3867L50.0195 58.3369C50.0896 58.3648 50.1548 58.4041 50.2128 58.4532L50.1269 58.3867C50.1835 58.4313 50.2341 58.4835 50.2773 58.5419L50.2182 58.4588C50.2584 58.5138 50.2926 58.5733 50.3202 58.6361C50.3459 58.6829 50.3805 58.7237 50.4221 58.7561C50.4637 58.7885 50.5112 58.8118 50.5618 58.8245C50.6128 58.8391 50.666 58.8432 50.7185 58.8365C50.7711 58.8298 50.8218 58.8126 50.8678 58.7857C50.9587 58.73 51.0258 58.641 51.0557 58.5363V58.4255C51.0552 58.3511 51.0348 58.2782 50.9967 58.215C50.8978 58.0004 50.7412 57.8196 50.5457 57.6941C50.4506 57.6318 50.3476 57.5833 50.2397 57.5501C50.127 57.5123 50.0092 57.4936 49.8907 57.4947C49.8377 57.4941 49.7852 57.5046 49.7363 57.5256C49.6874 57.5465 49.6431 57.5775 49.6062 57.6166C49.5306 57.6944 49.4881 57.8001 49.488 57.9102C49.4893 58.0202 49.5316 58.1254 49.6062 58.2039C49.6849 58.2766 49.7852 58.3195 49.8907 58.3258H49.88Z" fill="#374151"/>
<path d="M53.8099 60.1209C53.9368 60.1494 54.0623 60.1846 54.1857 60.2262L54.0945 60.1874C54.1735 60.2208 54.2476 60.2656 54.3146 60.3204L54.234 60.2539C54.3045 60.3099 54.3676 60.3751 54.422 60.4478L54.3575 60.3592C54.3808 60.3911 54.4024 60.4244 54.422 60.4589C54.4759 60.5527 54.5622 60.622 54.6636 60.6528C54.7157 60.6677 54.7701 60.6714 54.8237 60.6638C54.8772 60.6562 54.9287 60.6374 54.9749 60.6085C55.0651 60.5546 55.1322 60.4675 55.1629 60.3647C55.1895 60.2559 55.1741 60.1406 55.1199 60.0433C54.9987 59.839 54.8333 59.6664 54.6367 59.5391C54.54 59.48 54.4374 59.4317 54.3307 59.3951C54.2287 59.3618 54.1267 59.3507 54.0247 59.3175C53.9222 59.2885 53.8127 59.3026 53.7202 59.3565C53.6277 59.4105 53.5596 59.5 53.5307 59.6056C53.5019 59.7137 53.5154 59.8291 53.5683 59.927C53.6238 60.0194 53.7095 60.0882 53.8099 60.1209V60.1209Z" fill="#374151"/>
<path d="M45.1876 55.3338C46.1758 55.2304 47.1141 54.8352 47.8902 54.1954C48.6662 53.5556 49.2471 52.6985 49.5631 51.7267C49.7242 51.2224 48.9457 51.0008 48.7847 51.5106C48.5197 52.3087 48.0413 53.0132 47.4048 53.5427C46.7683 54.0722 45.9996 54.4049 45.1876 54.5026C45.0821 54.5067 44.9819 54.5518 44.9073 54.6289C44.8326 54.706 44.7889 54.8093 44.7849 54.9182C44.7849 55.0284 44.8273 55.1341 44.9029 55.212C44.9784 55.29 45.0808 55.3338 45.1876 55.3338Z" fill="white"/>
<path d="M35.352 58.2705C36.0625 56.9786 36.8627 55.7416 37.7465 54.5692C37.8194 54.4899 37.86 54.3848 37.86 54.2755C37.86 54.1663 37.8194 54.0612 37.7465 53.9819C37.671 53.9041 37.5687 53.8604 37.462 53.8604C37.3553 53.8604 37.2529 53.9041 37.1774 53.9819C36.2473 55.2095 35.4058 56.5058 34.6595 57.8605C34.4018 58.3259 35.0997 58.747 35.352 58.2816V58.2705Z" fill="white"/>
<path d="M36.3184 58.2813C36.4313 58.1379 36.5336 57.9861 36.6244 57.8269C36.7101 57.6637 36.782 57.4932 36.8392 57.3172C36.8534 57.2643 36.857 57.209 36.8496 57.1546C36.8422 57.1003 36.824 57.0481 36.7962 57.0013C36.7436 56.9064 36.6567 56.8367 36.5546 56.8074C36.4509 56.7802 36.341 56.7961 36.2486 56.8517C36.161 56.9087 36.0947 56.9946 36.0607 57.0955C36.0607 57.1509 36.0231 57.2064 36.0016 57.2618L36.0446 57.162C35.9646 57.3599 35.8599 57.5462 35.7332 57.7161L35.7976 57.633L35.7493 57.6995C35.7084 57.7339 35.6785 57.7803 35.6634 57.8325C35.6365 57.8812 35.6252 57.9374 35.6312 57.9932C35.6324 58.1031 35.6747 58.2083 35.7493 58.2868C35.8247 58.3648 35.9271 58.4086 36.0338 58.4087C36.1404 58.4074 36.2423 58.3638 36.3184 58.2868V58.2813Z" fill="white"/>
<path d="M37.5211 91.1498C39.2422 89.898 41.0552 88.7865 42.9436 87.8253H43.0671C43.3974 88.7331 43.9309 89.5476 44.624 90.2023C44.755 90.3413 44.9202 90.4409 45.1018 90.4904C45.2614 90.5031 45.4205 90.4596 45.5531 90.367C45.6856 90.2744 45.784 90.1383 45.832 89.9807C45.9204 89.6639 45.9204 89.3278 45.832 89.011C45.4788 87.6908 44.9125 86.4413 44.1569 85.3153L45.3434 87.3432C45.4173 87.5193 45.5248 87.6783 45.6595 87.8106C45.7941 87.9429 45.9532 88.0459 46.1273 88.1134C46.3702 88.1368 46.6123 88.0613 46.8019 87.9028C46.9915 87.7444 47.1136 87.5157 47.142 87.2657C47.1758 86.7672 47.0555 86.2706 46.7984 85.8472C46.3062 84.9269 45.7462 84.047 45.1233 83.2153C45.6614 83.8439 46.1313 84.5314 46.5246 85.2654C46.7209 85.7275 47.0079 86.1425 47.3675 86.4844C47.5522 86.6475 47.7874 86.7371 48.0305 86.7371C48.2737 86.7371 48.5088 86.6475 48.6936 86.4844C48.8027 86.3257 48.8766 86.1441 48.91 85.9526C48.9434 85.761 48.9355 85.5643 48.8868 85.3762C48.613 83.6143 47.5446 82.0961 46.3796 80.7829C46.2866 80.6999 46.2241 80.5864 46.2024 80.4615C46.2049 80.379 46.2336 80.2996 46.284 80.2355C46.3344 80.1715 46.4039 80.1263 46.4816 80.1069C46.6394 80.0792 46.8014 80.0906 46.9541 80.1401C47.7139 80.3523 48.4099 80.7581 48.9781 81.3203C49.2859 81.6906 49.6482 82.0085 50.0519 82.2623C50.2544 82.3837 50.4935 82.4232 50.7226 82.3731C50.9518 82.3229 51.1547 82.1866 51.2921 81.9908C51.3659 81.8167 51.3937 81.6255 51.3726 81.4367C51.2576 80.6734 50.8963 79.9725 50.3472 79.4475C49.1757 78.2075 47.6028 77.456 45.9286 77.3365C45.4366 77.2952 44.9413 77.3382 44.463 77.4639C43.4581 77.8141 42.5812 78.4734 41.9504 79.3533C41.2793 80.1956 40.7263 81.1264 40.0122 81.9298C38.6343 83.3659 36.8359 84.2929 34.8958 84.5673L37.5211 91.1498Z" fill="white"/>
<path d="M37.7251 91.5101C38.6163 90.8563 39.5344 90.2431 40.4793 89.6705C40.9464 89.3824 41.4188 89.1164 41.8913 88.8449C42.1275 88.712 42.3637 88.5845 42.6 88.4626C42.7123 88.4121 42.8217 88.3547 42.9275 88.2909C43.0617 88.241 43.0724 88.2244 42.9758 88.241H43.067L42.6751 87.9362C43.0456 88.9225 44.8226 92.2027 46.0628 90.4075C46.5997 89.6428 46.1648 88.4959 45.8588 87.7201C45.4776 86.8108 45.0233 85.9359 44.5005 85.1049C44.4432 85.0171 44.3556 84.9552 44.2555 84.9319C44.1555 84.9085 44.0506 84.9254 43.9622 84.9791C43.8739 85.0329 43.8087 85.1193 43.78 85.221C43.7514 85.3226 43.7613 85.4317 43.8079 85.526L44.5971 86.8779C44.8109 87.2835 45.0531 87.6724 45.3219 88.0415C45.4336 88.1931 45.5778 88.316 45.7431 88.4006C45.9084 88.4851 46.0904 88.5292 46.2749 88.5292C46.4594 88.5292 46.6414 88.4851 46.8067 88.4006C46.972 88.316 47.1162 88.1931 47.2279 88.0415C47.8292 87.2713 47.4909 86.2906 47.0936 85.5149C46.6155 84.6361 46.0773 83.7936 45.483 82.9938L44.8548 83.498C45.3686 84.1027 45.8185 84.7621 46.197 85.465C46.4417 86.0765 46.8612 86.5965 47.3997 86.9555C47.6568 87.1015 47.953 87.1572 48.2436 87.1142C48.5341 87.0712 48.8032 86.9319 49.0103 86.7173C49.4344 86.213 49.3432 85.4872 49.2143 84.8832C48.8526 83.4903 48.1776 82.2051 47.244 81.1321C47.0172 80.8954 46.8056 80.6436 46.6104 80.3785C46.6856 80.506 46.3742 80.4229 46.7286 80.4727C46.8054 80.4827 46.881 80.5013 46.9541 80.5281C47.1548 80.5873 47.3505 80.6633 47.5392 80.7553C48.1428 81.0889 48.6873 81.5254 49.1499 82.0463C49.3504 82.2897 49.6051 82.4793 49.8922 82.599C50.1792 82.7186 50.49 82.7648 50.7981 82.7334C51.0905 82.6803 51.3524 82.5146 51.5308 82.2698C51.7092 82.0249 51.7908 81.7193 51.7591 81.4147C51.6625 80.0295 50.5511 78.9102 49.4989 78.1677C48.3653 77.373 47.0354 76.9289 45.6655 76.8878C44.9773 76.8831 44.2963 77.0328 43.6697 77.3265C43.043 77.6203 42.4857 78.0509 42.0362 78.5888C40.9303 79.7967 40.2001 81.3593 38.917 82.3732C37.7062 83.3178 36.2811 83.9263 34.7776 84.1408C34.6739 84.1706 34.5858 84.2414 34.5325 84.3379C34.4792 84.4345 34.4651 84.5488 34.4931 84.6561L36.8017 90.4573L37.1292 91.2829C37.3278 91.7705 38.1063 91.56 37.9076 91.0613L35.599 85.26L35.2715 84.4344L34.987 84.9442C36.2017 84.7593 37.3713 84.3381 38.4338 83.703C39.5196 83.0241 40.4574 82.1205 41.188 81.049C41.9396 80.0018 42.6644 78.8326 43.7865 78.1788C44.9085 77.525 46.3474 77.6247 47.5446 78.0791C48.7369 78.4774 49.7775 79.2528 50.5189 80.2954C50.7229 80.6057 51.2706 81.6197 50.7927 81.8967C50.3149 82.1738 49.778 81.5532 49.4828 81.2429C49.056 80.7683 48.5505 80.3762 47.9902 80.0849C47.4909 79.8355 46.7232 79.4532 46.1863 79.7635C46.0616 79.8354 45.9591 79.9422 45.8907 80.0716C45.8223 80.201 45.7908 80.3478 45.7998 80.4949C45.8744 80.7967 46.0398 81.0663 46.2722 81.2651C46.6961 81.7508 47.0855 82.2674 47.4372 82.811C47.8384 83.4219 48.1462 84.0927 48.3499 84.8001C48.4627 85.2046 48.7902 86.3626 48.0439 86.3128C47.3836 86.274 47.0883 85.4318 46.8091 84.9331C46.4086 84.2093 45.9373 83.5297 45.4025 82.9052C45.1018 82.5561 44.4951 83.0271 44.769 83.4094C45.1931 84.0022 45.6119 84.5951 45.993 85.2212C46.3205 85.7753 46.9379 86.6286 46.7178 87.299C46.648 87.4985 46.4601 87.7479 46.2293 87.7201C45.9984 87.6924 45.7998 87.3378 45.6924 87.1661C45.2951 86.4956 44.9032 85.8141 44.5059 85.1381L43.8133 85.5592C44.1676 86.1632 44.5274 86.7671 44.8334 87.3988C45.1782 88.0408 45.404 88.7436 45.4991 89.471C45.4991 89.6927 45.4508 90.1914 45.1233 90.1027C44.8924 90.0307 44.6347 89.6594 44.479 89.4877C44.0428 88.974 43.6975 88.385 43.459 87.7478C43.434 87.6614 43.3832 87.5853 43.3137 87.5306C43.2443 87.4758 43.1598 87.4452 43.0724 87.4431C42.6 87.5141 42.1518 87.7045 41.7678 87.9972C41.2309 88.2798 40.7424 88.5513 40.2377 88.8726C39.2391 89.4784 38.2673 90.1267 37.3224 90.8175C36.8983 91.1001 37.301 91.8204 37.7251 91.5101Z" fill="#374151"/>
<path d="M57.2192 19.6839C56.2367 19.6839 55.2542 19.6839 54.2771 19.7282C53.425 19.6924 52.5783 19.8832 51.8182 20.2823C51.6301 20.3796 51.4739 20.5317 51.3689 20.7199C51.2639 20.908 51.2147 21.1239 51.2276 21.3406C51.2769 21.5112 51.3653 21.667 51.4853 21.7949C51.8622 22.198 52.299 22.5365 52.7792 22.7978C56.1132 24.8202 59.7586 26.2996 63.3396 27.7458C63.7288 27.9498 64.1677 28.0308 64.6013 27.9785C64.865 27.8813 65.1059 27.728 65.3085 27.5285C65.511 27.329 65.6707 27.0878 65.777 26.8205C66.618 25.189 66.9499 23.3293 66.7273 21.4957C66.72 21.2442 66.6354 21.0017 66.4857 20.8031C66.2947 20.6325 66.0557 20.5296 65.8039 20.5094C62.9848 19.8673 60.0993 19.5899 57.2138 19.6839" fill="#166CFF"/>
<path d="M57.219 19.2685C55.7853 19.1977 54.3484 19.2533 52.924 19.4347C51.9629 19.6009 50.2396 20.4487 50.9321 21.7453C51.2937 22.2908 51.7831 22.733 52.3549 23.0307C52.9615 23.413 53.5789 23.7621 54.2071 24.1057C55.4688 24.7927 56.768 25.4188 58.078 26.0062C59.388 26.5935 60.7087 27.1143 62.0348 27.6684C62.6663 27.9813 63.3287 28.2228 64.0105 28.3887C64.3007 28.436 64.5978 28.4064 64.8739 28.3027C65.15 28.199 65.3961 28.0246 65.5889 27.7959C65.9844 27.3016 66.2916 26.7388 66.4963 26.1336C66.7497 25.4944 66.9299 24.8268 67.0332 24.1444C67.1579 23.4802 67.2137 22.8041 67.1996 22.1276C67.162 21.5347 67.1459 20.7867 66.6305 20.4044C66.3352 20.2243 66.0054 20.1127 65.6641 20.0775L64.4615 19.8503C63.6777 19.7118 62.8884 19.5899 62.0992 19.4901C60.4842 19.2853 58.8554 19.2186 57.2297 19.2907C56.6928 19.2907 56.6928 20.144 57.2297 20.1218C59.7297 20.0364 62.2311 20.2409 64.687 20.7313L65.5782 20.903C65.793 20.9474 66.1151 20.964 66.2386 21.169C66.3419 21.4132 66.3896 21.6785 66.3782 21.9447C66.3969 22.2492 66.3969 22.5545 66.3782 22.859C66.3586 24.0637 66.0895 25.2501 65.5889 26.3386C65.4224 26.8206 65.1099 27.2344 64.6977 27.5188C64.1608 27.7681 63.4844 27.3526 63.0066 27.1587C61.863 26.6988 60.7302 26.2389 59.6027 25.7568C57.2964 24.7952 55.0591 23.6657 52.9078 22.3769C52.6342 22.2143 52.3739 22.029 52.1294 21.8228C51.9576 21.6732 51.5925 21.4017 51.6462 21.1358C51.6999 20.5817 52.6072 20.3434 53.026 20.2548C53.6688 20.1513 54.3189 20.1031 54.9695 20.1107C55.7265 20.1107 56.4835 20.083 57.2458 20.1107C57.3526 20.1107 57.455 20.0669 57.5306 19.989C57.6061 19.9111 57.6485 19.8054 57.6485 19.6951C57.6485 19.5849 57.6061 19.4792 57.5306 19.4013C57.455 19.3234 57.3526 19.2796 57.2458 19.2796L57.219 19.2685Z" fill="#166CFF"/>
<path d="M59.0392 20.7144C58.8342 20.711 58.6311 20.7557 58.4451 20.8449C58.2591 20.9342 58.0952 21.0657 57.9655 21.2297C57.7187 21.4898 57.5475 21.8161 57.4716 22.1716C57.3948 22.5283 57.4234 22.9004 57.5535 23.2402C57.6837 23.5799 57.9094 23.8716 58.2017 24.0777C58.5243 24.2809 58.8979 24.3811 59.2755 24.3658C59.6423 24.3917 60.0071 24.2903 60.3116 24.0777C60.5961 23.8647 60.8097 23.5661 60.9231 23.2228C61.0366 22.8796 61.0443 22.5085 60.9452 22.1605C60.8137 21.7471 60.5625 21.3852 60.2256 21.1237C59.8886 20.8621 59.4821 20.7134 59.0607 20.6978C58.9539 20.6978 58.8515 20.7415 58.776 20.8195C58.7005 20.8974 58.6581 21.0031 58.6581 21.1133C58.6581 21.2235 58.7005 21.3292 58.776 21.4072C58.8515 21.4851 58.9539 21.5289 59.0607 21.5289H59.152H59.1949L59.3828 21.5787C59.4888 21.6129 59.5899 21.6613 59.6835 21.7228C59.7749 21.7763 59.8566 21.8456 59.9251 21.9278L59.9842 21.9943C60.0325 22.0553 59.9412 21.9167 59.9842 22.0331L60.0808 22.1993C60.0808 22.1993 60.1237 22.2991 60.0808 22.2436L60.113 22.3268C60.113 22.3822 60.113 22.4376 60.156 22.493C60.1989 22.5484 60.156 22.5318 60.156 22.493C60.156 22.4542 60.156 22.565 60.156 22.6038C60.156 22.6426 60.156 22.7368 60.156 22.7977C60.156 22.7312 60.156 22.7977 60.156 22.8365V22.9196L60.1237 23.0138C60.1237 23.0138 60.1237 22.9584 60.1237 23.0138C60.1019 23.0618 60.0768 23.1081 60.0486 23.1523C60.0056 23.2188 60.0486 23.1523 60.0486 23.1523L59.968 23.241C59.8496 23.3766 59.6874 23.4633 59.5117 23.4848C59.3831 23.4959 59.2538 23.4959 59.1251 23.4848C59.0063 23.4731 58.8892 23.447 58.7762 23.4072H58.7386L58.6527 23.3574L58.5936 23.313C58.5936 23.313 58.6366 23.3574 58.5936 23.313L58.4809 23.2022L58.4326 23.1413C58.4755 23.2022 58.4326 23.108 58.4326 23.0914C58.4008 23.0416 58.3721 22.9898 58.3467 22.9363C58.3198 22.8698 58.3467 22.9861 58.3467 22.9363C58.3467 22.8864 58.3467 22.8864 58.3198 22.8587C58.3022 22.8027 58.2896 22.7452 58.2822 22.6869V22.5429C58.2822 22.5151 58.2822 22.4874 58.2822 22.4597C58.2822 22.5262 58.2822 22.3988 58.2822 22.3988C58.2822 22.3988 58.3198 22.2603 58.3413 22.1882L58.395 22.0774L58.4433 21.9999C58.4433 21.9999 58.5131 21.8946 58.4755 21.9444C58.5156 21.892 58.5586 21.8421 58.6044 21.7948L58.6795 21.7228H58.7117C58.7557 21.6776 58.8089 21.6432 58.8674 21.6221C58.926 21.601 58.9884 21.5937 59.05 21.6009C59.1568 21.6009 59.2592 21.5571 59.3347 21.4792C59.4102 21.4013 59.4526 21.2956 59.4526 21.1853C59.4526 21.0751 59.4102 20.9694 59.3347 20.8915C59.2592 20.8136 59.1568 20.7698 59.05 20.7698L59.0392 20.7144Z" fill="white"/>
<path d="M70.3298 18.1603C69.0521 17.5549 67.6543 17.2683 66.2495 17.3236C65.549 17.3579 64.863 17.5415 64.2347 17.8629C63.6064 18.1842 63.0493 18.6364 62.5987 19.1909C62.4575 19.3596 62.358 19.5611 62.3088 19.7782C62.2068 20.3822 62.7651 20.8864 63.3235 21.0969C63.562 21.1969 63.8177 21.2459 64.0751 21.241C64.56 21.189 65.0121 20.9636 65.3529 20.6038C65.7019 20.2658 65.9918 19.8613 66.3354 19.4956C66.8507 18.9762 67.4719 18.5822 68.1538 18.3426C68.8356 18.1029 69.5607 18.0236 70.2761 18.1104" fill="#374151"/>
<path d="M70.4209 17.7555C67.9406 16.6862 64.7783 16.3593 62.6845 18.4537C62.2389 18.897 61.7718 19.4898 61.9007 20.1658C61.9792 20.4498 62.1204 20.7112 62.3132 20.9294C62.506 21.1476 62.7452 21.3168 63.012 21.4236C63.3005 21.5654 63.6159 21.6389 63.9354 21.6389C64.2549 21.6389 64.5704 21.5654 64.8589 21.4236C65.4413 21.0745 65.9491 20.607 66.3514 20.0495C66.8355 19.4884 67.4435 19.0561 68.1238 18.7889C68.8042 18.5217 69.5368 18.4277 70.2599 18.5146C70.7967 18.5756 70.7645 17.7445 70.2599 17.6835C69.1714 17.561 68.073 17.7936 67.1191 18.3484C66.6193 18.6422 66.1681 19.0163 65.7823 19.4566C65.4451 19.957 65.0143 20.3828 64.5153 20.7088C64.2679 20.8106 63.9984 20.8411 63.7356 20.7972C63.4727 20.7533 63.2264 20.6366 63.0227 20.4595C62.9323 20.3978 62.8565 20.3161 62.8007 20.2202C62.745 20.1243 62.7108 20.0167 62.7006 19.9054C62.7006 19.6284 62.9529 19.3513 63.1194 19.1795C63.8873 18.3739 64.9026 17.8686 65.9917 17.75C67.4446 17.631 68.9025 17.904 70.2223 18.5423C70.3262 18.5713 70.437 18.5566 70.5305 18.5016C70.624 18.4466 70.6927 18.3557 70.7216 18.2487C70.7453 18.1423 70.7291 18.0307 70.6763 17.9361C70.6235 17.8416 70.5381 17.7711 70.437 17.7389L70.4209 17.7555Z" fill="#374151"/>
<path d="M61.6592 25.3081C61.3181 25.3179 60.9857 25.4204 60.6953 25.6052C60.405 25.7901 60.167 26.0508 60.0056 26.3609C59.6859 26.9863 59.5656 27.6999 59.662 28.3999C59.7818 29.6212 60.3097 30.7613 61.1551 31.6247C62.0005 32.4881 63.1107 33.021 64.2952 33.1318C63.7113 32.5358 63.2762 31.8024 63.0275 30.9946C62.7787 30.1868 62.7237 29.3287 62.8671 28.4941C62.9642 28.0936 63.0324 27.6861 63.0712 27.2751C63.0861 26.8147 62.9454 26.3633 62.673 25.9983C62.4007 25.6334 62.0138 25.3776 61.5786 25.2749" fill="#374151"/>
<path d="M61.659 24.898C61.1748 24.9177 60.7074 25.0865 60.317 25.3828C59.9266 25.679 59.6311 26.0891 59.4685 26.5602C59.1187 27.6352 59.1587 28.8047 59.5813 29.8515C59.9545 30.8601 60.5938 31.7408 61.4269 32.394C62.2599 33.0471 63.2535 33.4466 64.2951 33.5472C64.6548 33.586 64.832 33.0762 64.5796 32.838C64.0382 32.2868 63.6354 31.6075 63.4062 30.8592C63.1769 30.1108 63.1282 29.316 63.2643 28.5438C63.42 27.7238 63.5971 26.9813 63.2643 26.1834C63.1231 25.8542 62.9084 25.5641 62.6378 25.3368C62.3672 25.1096 62.0484 24.9516 61.7073 24.8758C61.2027 24.7761 60.9825 25.5739 61.4926 25.6792C61.7994 25.7448 62.0787 25.9077 62.2914 26.1451C62.5042 26.3826 62.6397 26.6827 62.6791 27.0035C62.6972 27.4288 62.6446 27.8543 62.5234 28.2612C62.4478 28.6256 62.4082 28.9969 62.4053 29.3694C62.403 30.119 62.5441 30.8616 62.8205 31.5547C63.0969 32.2479 63.5031 32.8779 64.0159 33.4087L64.3005 32.6995C63.4702 32.6082 62.6775 32.2942 62.0012 31.7887C61.3249 31.2833 60.7886 30.6039 60.4457 29.8182C60.0797 29.0254 59.9597 28.1353 60.1021 27.2694C60.1497 26.8637 60.3308 26.4872 60.6152 26.2027C60.8996 25.9183 61.2699 25.7433 61.6644 25.7069C61.7712 25.7069 61.8736 25.6631 61.9491 25.5852C62.0246 25.5073 62.067 25.4016 62.067 25.2914C62.067 25.1811 62.0246 25.0754 61.9491 24.9975C61.8736 24.9196 61.7712 24.8758 61.6644 24.8758L61.659 24.898Z" fill="#374151"/>
<path d="M68.4883 24.5877C67.7403 24.3661 66.9833 24.1814 66.2173 24.0336C66.0419 23.9889 65.8602 23.9757 65.6804 23.9948C65.5888 24.0083 65.5021 24.046 65.4287 24.1042C65.3553 24.1625 65.2978 24.2393 65.2617 24.3273C65.2425 24.4312 65.2525 24.5385 65.2906 24.6367C65.3286 24.7349 65.3931 24.8198 65.4764 24.8814C65.6491 25.0024 65.8451 25.0837 66.0509 25.1196C67.4844 25.4853 68.9232 25.8233 70.3459 26.0837C70.4748 26.0837 70.6519 26.0837 70.6734 25.9618C70.6949 25.8399 70.6197 25.8178 70.566 25.7624C69.894 25.1435 69.0753 24.7191 68.193 24.5323" fill="#374151"/>
<path d="M68.5956 24.1887C68.0587 24.0336 67.5218 23.884 66.985 23.7565C66.512 23.5837 66.0077 23.5212 65.5085 23.5737C65.2944 23.6193 65.105 23.7471 64.9785 23.9311C64.852 24.1151 64.7977 24.3418 64.8267 24.5655C64.8845 24.7897 65.0032 24.9922 65.1686 25.1492C65.3341 25.3063 65.5396 25.4113 65.7609 25.452C66.7863 25.7679 67.8601 26.0061 68.9124 26.2C69.407 26.3376 69.9115 26.4339 70.421 26.4882C70.8559 26.4882 71.2532 26.1114 71.0277 25.657C70.8702 25.4321 70.6691 25.2434 70.4371 25.103C70.2328 24.9491 70.0194 24.8085 69.7982 24.6819C69.3319 24.4264 68.8331 24.2399 68.3164 24.1278C67.8118 24.017 67.5916 24.8148 68.1017 24.9256C68.5211 25.0139 68.9273 25.1592 69.3097 25.3578C69.4953 25.4567 69.6746 25.5678 69.8465 25.6903C69.9432 25.7568 70.2814 25.9507 70.2975 26.0671V25.8454C70.378 25.6183 70.5821 25.6903 70.3673 25.6626L70.1579 25.6238L69.5888 25.513L68.5151 25.2803C67.8064 25.1251 67.1085 24.9589 66.4105 24.7816C66.2817 24.7483 65.6535 24.6652 65.6481 24.4602C65.6428 24.2552 66.1152 24.4214 66.2226 24.4602C66.9528 24.6154 67.6722 24.8037 68.3701 25.0143C68.4212 25.0289 68.4746 25.0329 68.5272 25.0261C68.5799 25.0194 68.6307 25.002 68.6768 24.975C68.7229 24.948 68.7634 24.9119 68.796 24.8687C68.8286 24.8255 68.8526 24.7762 68.8667 24.7234C68.8808 24.6707 68.8847 24.6156 68.8782 24.5612C68.8717 24.5069 68.8548 24.4545 68.8287 24.4069C68.8025 24.3593 68.7675 24.3175 68.7257 24.2839C68.6838 24.2502 68.636 24.2254 68.5849 24.2109L68.5956 24.1887Z" fill="#374151"/>
<path d="M82.6941 97.095C82.9205 97.0949 83.1411 97.0208 83.3243 96.8835C83.5075 96.7462 83.644 96.5526 83.7142 96.3304L89.0078 79.3588C89.4105 78.0844 89.7917 76.5884 88.2025 75.6575C87.7801 75.4227 87.3164 75.2777 86.8388 75.2309C80.3963 74.5216 73.9322 74.1282 67.4467 74.0507C66.8319 73.9958 66.213 74.0868 65.6374 74.3166C65.0824 74.65 64.6144 75.1179 64.2738 75.6797C61.1991 80.0559 58.9448 84.9871 57.6272 90.2188C57.4554 90.9115 57.2138 91.7149 56.5534 91.9753C56.2512 92.0707 55.9324 92.0972 55.6193 92.0529C52.7559 91.8756 49.9069 91.7924 47.0721 91.8035C46.3621 91.7426 45.649 91.8764 45.0051 92.1914C44.1086 92.7455 43.7381 93.8536 43.4482 94.8953C43.3646 95.5763 43.4139 96.2677 43.5931 96.9288L82.6941 97.095Z" fill="white"/>
<path d="M82.6941 97.5108C83.0074 97.5032 83.3107 97.3958 83.5625 97.2034C83.8143 97.0109 84.0023 96.7429 84.1008 96.4359C84.133 96.3528 84.1545 96.2696 84.1813 96.1865L84.6215 94.7736L86.259 89.5264L89.3192 79.7524C89.5265 79.1628 89.6705 78.5515 89.7487 77.9295C89.9044 76.2284 88.6052 75.1036 87.0643 74.8764C85.0188 74.5717 82.9357 74.4387 80.8741 74.278C78.8125 74.1173 76.6274 73.9733 74.5014 73.868C72.3753 73.7627 70.3298 73.6575 68.2735 73.6575C67.3447 73.6575 66.3247 73.5356 65.4657 73.9677C64.7567 74.4159 64.1665 75.0384 63.7477 75.7796C61.5841 78.9164 59.8329 82.3353 58.5399 85.947C58.2232 86.817 57.9386 87.7035 57.6809 88.5956C57.5467 89.061 57.4178 89.5264 57.2997 89.9974C57.2232 90.381 57.1005 90.7533 56.9346 91.1056C56.8608 91.2628 56.7478 91.3969 56.6073 91.4943C56.4667 91.5916 56.3036 91.6487 56.1347 91.6597C55.5753 91.6651 55.016 91.6374 54.4596 91.5765C53.4342 91.5211 52.4141 91.4768 51.3887 91.4491C50.3632 91.4214 49.2412 91.3992 48.1674 91.3937C47.2177 91.3022 46.2599 91.3733 45.3327 91.6042C44.6079 91.8814 44.0153 92.4374 43.6791 93.1557C43.3171 93.8042 43.0886 94.5229 43.008 95.2667C42.9677 95.8712 43.0368 96.4781 43.212 97.0564C43.238 97.1433 43.2898 97.2195 43.3602 97.2743C43.4305 97.329 43.5158 97.3594 43.6039 97.3612H47.507L56.8112 97.4L68.1286 97.4498L77.8837 97.4886C79.4621 97.4886 81.0513 97.5607 82.6243 97.4886H82.6941C82.8009 97.4886 82.9034 97.4448 82.9789 97.3669C83.0544 97.289 83.0968 97.1833 83.0968 97.0731C83.0968 96.9628 83.0544 96.8571 82.9789 96.7792C82.9034 96.7013 82.8009 96.6575 82.6941 96.6575H78.791L69.4869 96.6187L58.1641 96.5688L48.409 96.5356H45.1877C44.6816 96.5079 44.1744 96.5079 43.6683 96.5356H43.6039L43.9905 96.8403C43.8073 96.22 43.7678 95.564 43.875 94.925C43.9822 94.286 44.2332 93.6819 44.6079 93.1612C44.857 92.8456 45.1768 92.5974 45.5398 92.4381C45.9028 92.2788 46.2979 92.2132 46.691 92.247C47.6681 92.247 48.6452 92.247 49.6223 92.247C51.6679 92.2802 53.708 92.3966 55.7535 92.4963C56.1202 92.5454 56.4926 92.4791 56.8221 92.3061C57.1517 92.1331 57.4229 91.8614 57.6004 91.5267C57.9271 90.7719 58.172 89.9821 58.3305 89.1718C59.3327 85.6202 60.7764 82.2176 62.6256 79.0487C63.0909 78.2508 63.5812 77.4677 64.0966 76.6994C64.4916 75.963 65.0267 75.3166 65.6697 74.7989C66.4482 74.3113 67.5327 74.4775 68.397 74.4941C69.4171 74.4941 70.4372 74.5385 71.4572 74.5662C75.4874 74.6991 79.5158 74.9522 83.5424 75.3252C84.5142 75.4194 85.4859 75.5136 86.4577 75.6189C87.2791 75.7131 88.2133 75.8904 88.7126 76.6551C89.2119 77.4197 88.879 78.4835 88.6267 79.3091L85.9906 87.7035L84.2565 93.2443C83.9558 94.214 83.6874 95.2058 83.3438 96.1588C83.3028 96.3034 83.2182 96.4307 83.1024 96.5224C82.9865 96.614 82.8454 96.6652 82.6995 96.6686C82.1787 96.7018 82.1734 97.533 82.6941 97.5108Z" fill="#374151"/>
<path d="M60.5853 92.801C62.808 92.7788 65.0288 92.8305 67.248 92.9561C67.7848 92.9561 67.7848 92.1527 67.248 92.125C65.0288 91.9957 62.808 91.944 60.5853 91.9698C60.4785 91.9698 60.3761 92.0136 60.3006 92.0916C60.225 92.1695 60.1826 92.2752 60.1826 92.3854C60.1826 92.4956 60.225 92.6013 60.3006 92.6793C60.3761 92.7572 60.4785 92.801 60.5853 92.801V92.801Z" fill="#374151"/>
<path d="M75.8596 82.3344C75.8326 82.2696 75.7863 82.2153 75.7274 82.1794C75.6685 82.1436 75.6001 82.128 75.5321 82.1349C75.3982 82.1513 75.2707 82.2028 75.1616 82.2845C74.5832 82.685 74.1462 83.2683 73.9161 83.9468C73.6851 84.6138 73.6151 85.3289 73.7121 86.0301C73.7213 86.158 73.756 86.2825 73.8141 86.3958C73.8933 86.519 74.0106 86.6108 74.1469 86.6562C74.3458 86.7111 74.5559 86.7058 74.7519 86.641C74.948 86.5762 75.1219 86.4545 75.2529 86.2905C75.5197 85.9648 75.7221 85.5883 75.8488 85.1824L76.1065 84.5119C76.2719 84.1491 76.3737 83.7589 76.4072 83.3594C76.4236 83.1589 76.3868 82.9575 76.3008 82.7769C76.2147 82.5963 76.0826 82.4433 75.9186 82.3344" fill="#166CFF"/>
<path d="M76.2086 82.1235C76.1486 82.0233 76.0691 81.9371 75.975 81.8704C75.881 81.8036 75.7745 81.7579 75.6624 81.736C75.5502 81.7141 75.4349 81.7165 75.3237 81.7432C75.2126 81.7699 75.108 81.8201 75.0167 81.8908C74.6357 82.1285 74.3051 82.4432 74.045 82.8161C73.5089 83.5919 73.2371 84.5291 73.2718 85.4813C73.2396 85.7337 73.264 85.9904 73.3432 86.2315C73.4223 86.4726 73.554 86.6918 73.7282 86.872C73.9047 86.9928 74.1076 87.0662 74.3186 87.0855C74.5295 87.1049 74.7418 87.0696 74.9362 86.9829C75.8274 86.6116 76.1119 85.5976 76.4394 84.7665C76.6715 84.2878 76.7963 83.7614 76.8045 83.2262C76.7989 82.975 76.7338 82.7291 76.6149 82.5099C76.4961 82.2907 76.3271 82.1048 76.1227 81.9684C75.6824 81.6858 75.2744 82.4061 75.7147 82.6887C76.1549 82.9713 75.967 83.7415 75.8059 84.1736C75.6878 84.495 75.559 84.8164 75.4355 85.1378C75.3402 85.4243 75.1986 85.6922 75.0167 85.9301C74.9439 86.0313 74.8503 86.1145 74.7426 86.1739C74.635 86.2333 74.5159 86.2674 74.3939 86.2736C74.1094 86.2736 74.1094 86.0187 74.0879 85.775C74.0228 85.0936 74.1359 84.4067 74.4154 83.7858C74.553 83.4926 74.7342 83.2234 74.9523 82.9879C75.0587 82.8825 75.1717 82.7844 75.2905 82.6942C75.3534 82.6451 75.4219 82.6042 75.4945 82.5723C75.5536 82.5723 75.4945 82.5723 75.4945 82.5723C75.55 82.6617 75.6357 82.7266 75.735 82.7542C75.8342 82.7819 75.9399 82.7704 76.0314 82.7219C76.1171 82.6639 76.1792 82.5754 76.2059 82.4733C76.2326 82.3712 76.2221 82.2625 76.1764 82.1679L76.2086 82.1235Z" fill="#166CFF"/>
<path d="M29.6182 82.772C29.6182 82.772 31.7657 93.4824 34.1226 95.6655" stroke="#374151" stroke-width="1.5" stroke-miterlimit="10"/>
</g>
<defs>
<clipPath id="clip0_4746_223715">
<rect width="95.2801" height="83.905" fill="white" transform="translate(9.52808 16.9136)"/>
</clipPath>
</defs>
</svg>
